G75*
%MOIN*%
%OFA0B0*%
%FSLAX24Y24*%
%IPPOS*%
%LPD*%
%AMOC8*
5,1,8,0,0,1.08239X$1,22.5*
%
%ADD10C,0.0120*%
%ADD11R,0.0787X0.0630*%
%ADD12OC8,0.0520*%
%ADD13R,0.0394X0.0551*%
%ADD14R,0.0630X0.0787*%
%ADD15R,0.0630X0.0551*%
%ADD16R,0.0551X0.0630*%
%ADD17C,0.0600*%
%ADD18OC8,0.0600*%
%ADD19R,0.0512X0.0591*%
%ADD20R,0.0579X0.0500*%
%ADD21C,0.0660*%
%ADD22R,0.0260X0.0800*%
%ADD23R,0.0480X0.0480*%
%ADD24R,0.0590X0.0630*%
%ADD25C,0.0520*%
%ADD26R,0.0256X0.0669*%
%ADD27C,0.0160*%
%ADD28C,0.0560*%
D10*
X054240Y006240D02*
X055121Y006240D01*
X055121Y006680D01*
X054974Y006827D01*
X054680Y006827D01*
X054534Y006680D01*
X054534Y006240D01*
X054534Y006534D02*
X054240Y006827D01*
X054240Y007161D02*
X054240Y007748D01*
X054240Y008082D02*
X054827Y008082D01*
X055121Y008375D01*
X054827Y008669D01*
X054240Y008669D01*
X054680Y008669D02*
X054680Y008082D01*
X055121Y007748D02*
X055121Y007161D01*
X054240Y007161D01*
X054680Y007161D02*
X054680Y007454D01*
X054534Y009002D02*
X054534Y009443D01*
X054680Y009590D01*
X054974Y009590D01*
X055121Y009443D01*
X055121Y009002D01*
X054240Y009002D01*
X054534Y009296D02*
X054240Y009590D01*
D11*
X052180Y010129D03*
X052180Y011231D03*
X048180Y011231D03*
X048180Y010129D03*
X041180Y010129D03*
X041180Y011231D03*
X012180Y004731D03*
X010680Y004731D03*
X010680Y003629D03*
X012180Y003629D03*
D12*
X041180Y012680D03*
X042180Y012680D03*
X044180Y012680D03*
X045180Y012680D03*
X047180Y012680D03*
X048180Y012680D03*
X051180Y012680D03*
X052180Y012680D03*
D13*
X044680Y011113D03*
X044306Y010247D03*
X045054Y010247D03*
X020554Y012247D03*
X019806Y012247D03*
X020180Y013113D03*
D14*
X021379Y013180D03*
X022481Y013180D03*
X024629Y013180D03*
X025731Y013180D03*
D15*
X037339Y013180D03*
X038521Y013180D03*
D16*
X021180Y002271D03*
X021180Y001089D03*
D17*
X015180Y001380D02*
X015180Y001980D01*
X014180Y001980D02*
X014180Y001380D01*
X013180Y001380D02*
X013180Y001980D01*
X012180Y001980D02*
X012180Y001380D01*
X011180Y001380D02*
X011180Y001980D01*
X010180Y001980D02*
X010180Y001380D01*
X005980Y001680D02*
X005380Y001680D01*
X005380Y002680D02*
X005980Y002680D01*
X005980Y003680D02*
X005380Y003680D01*
X005380Y004680D02*
X005980Y004680D01*
X005980Y005680D02*
X005380Y005680D01*
X005380Y006680D02*
X005980Y006680D01*
X005980Y007680D02*
X005380Y007680D01*
X005380Y008680D02*
X005980Y008680D01*
D18*
X025680Y002680D03*
X026680Y002680D03*
X027680Y002680D03*
X028680Y002680D03*
X029680Y002680D03*
X029680Y001680D03*
X028680Y001680D03*
X027680Y001680D03*
X026680Y001680D03*
X025680Y001680D03*
X043180Y012680D03*
X046180Y012680D03*
X049180Y012680D03*
X050180Y012680D03*
D19*
X025554Y009930D03*
X024806Y009930D03*
X024806Y008430D03*
X025554Y008430D03*
D20*
X009180Y004776D03*
X009180Y003084D03*
X017180Y002526D03*
X019180Y002526D03*
X019180Y000834D03*
X017180Y000834D03*
D21*
X017182Y014152D03*
X018182Y014152D03*
X019182Y014152D03*
X016182Y014152D03*
X015182Y014152D03*
X014182Y014152D03*
X013182Y014152D03*
X012182Y014152D03*
X011182Y014152D03*
X010182Y014152D03*
X009182Y014152D03*
X008182Y014152D03*
X007182Y014152D03*
X006182Y014152D03*
X005182Y014152D03*
X004182Y014152D03*
D22*
X009180Y009890D03*
X009680Y009890D03*
X010180Y009890D03*
X010680Y009890D03*
X011180Y009890D03*
X011680Y009890D03*
X012180Y009890D03*
X012180Y007470D03*
X011680Y007470D03*
X011180Y007470D03*
X010680Y007470D03*
X010180Y007470D03*
X009680Y007470D03*
X009180Y007470D03*
D23*
X004050Y011540D03*
X004050Y012320D03*
D24*
X005325Y011930D03*
D25*
X036695Y011930D02*
X036695Y011410D01*
X037680Y011410D02*
X037680Y011930D01*
X038664Y011930D02*
X038664Y011410D01*
D26*
X022680Y011062D03*
X022180Y011062D03*
X021680Y011062D03*
X021180Y011062D03*
X020680Y011062D03*
X020180Y011062D03*
X019680Y011062D03*
X019180Y011062D03*
X018680Y011062D03*
X018180Y011062D03*
X017680Y011062D03*
X017180Y011062D03*
X016680Y011062D03*
X016180Y011062D03*
X016180Y007298D03*
X016680Y007298D03*
X017180Y007298D03*
X017680Y007298D03*
X018180Y007298D03*
X018680Y007298D03*
X019180Y007298D03*
X019680Y007298D03*
X020180Y007298D03*
X020680Y007298D03*
X021180Y007298D03*
X021680Y007298D03*
X022180Y007298D03*
X022680Y007298D03*
D27*
X003180Y000580D02*
X003180Y015405D01*
X005339Y015405D01*
X004953Y015019D01*
X004841Y014907D01*
X004780Y014760D01*
X004780Y014670D01*
X004631Y014521D01*
X004599Y014445D01*
X004571Y014485D01*
X004514Y014541D01*
X004449Y014589D01*
X004377Y014625D01*
X004301Y014650D01*
X004222Y014662D01*
X004200Y014662D01*
X004200Y014171D01*
X004163Y014171D01*
X004163Y014662D01*
X004141Y014662D01*
X004062Y014650D01*
X003986Y014625D01*
X003914Y014589D01*
X003849Y014541D01*
X003793Y014485D01*
X003745Y014420D01*
X003709Y014348D01*
X003684Y014272D01*
X003672Y014193D01*
X003672Y014171D01*
X004163Y014171D01*
X004163Y014134D01*
X003672Y014134D01*
X003672Y014112D01*
X003684Y014033D01*
X003709Y013957D01*
X003745Y013885D01*
X003793Y013820D01*
X003849Y013763D01*
X003914Y013716D01*
X003986Y013680D01*
X004062Y013655D01*
X004141Y013642D01*
X004163Y013642D01*
X004163Y014134D01*
X004200Y014134D01*
X004532Y014134D01*
X004532Y014171D01*
X004200Y014171D01*
X004200Y014134D01*
X004200Y013642D01*
X004222Y013642D01*
X004301Y013655D01*
X004377Y013680D01*
X004449Y013716D01*
X004514Y013763D01*
X004571Y013820D01*
X004599Y013860D01*
X004631Y013784D01*
X004782Y013633D01*
X004782Y013630D01*
X004671Y013520D01*
X004593Y013330D01*
X004350Y013330D01*
X004203Y013269D01*
X004091Y013157D01*
X004091Y013157D01*
X003823Y012889D01*
X003814Y012880D01*
X003746Y012880D01*
X003629Y012831D01*
X003539Y012741D01*
X003490Y012624D01*
X003490Y012016D01*
X003539Y011899D01*
X003629Y011809D01*
X003631Y011808D01*
X003630Y011804D01*
X003630Y011580D01*
X004010Y011580D01*
X004010Y011500D01*
X004072Y011500D01*
X004090Y011456D01*
X004090Y011120D01*
X004314Y011120D01*
X004359Y011132D01*
X004401Y011156D01*
X004434Y011189D01*
X004458Y011231D01*
X004470Y011276D01*
X004470Y011280D01*
X005010Y011280D01*
X005046Y011295D01*
X005684Y011295D01*
X005762Y011327D01*
X003953Y009519D01*
X003841Y009407D01*
X003780Y009260D01*
X003780Y006100D01*
X003841Y005953D01*
X003953Y005841D01*
X003953Y005841D01*
X004341Y005453D01*
X004453Y005341D01*
X004600Y005280D01*
X004903Y005280D01*
X005029Y005154D01*
X005153Y005103D01*
X005128Y005091D01*
X005067Y005046D01*
X005014Y004993D01*
X004969Y004932D01*
X004935Y004864D01*
X004912Y004792D01*
X004900Y004718D01*
X004900Y004700D01*
X005660Y004700D01*
X005660Y004660D01*
X004900Y004660D01*
X004900Y004642D01*
X004912Y004568D01*
X004935Y004496D01*
X004969Y004428D01*
X005014Y004367D01*
X005067Y004314D01*
X005128Y004269D01*
X005153Y004257D01*
X005029Y004206D01*
X004854Y004031D01*
X004760Y003803D01*
X004760Y003557D01*
X004854Y003329D01*
X005003Y003180D01*
X004854Y003031D01*
X004760Y002803D01*
X004760Y002557D01*
X004854Y002329D01*
X005003Y002180D01*
X004854Y002031D01*
X004760Y001803D01*
X004760Y001557D01*
X004854Y001329D01*
X005029Y001154D01*
X005257Y001060D01*
X006103Y001060D01*
X006331Y001154D01*
X006457Y001280D01*
X007760Y001280D01*
X007907Y001341D01*
X008519Y001953D01*
X008580Y002100D01*
X008580Y002747D01*
X008619Y002652D01*
X008709Y002562D01*
X008780Y002533D01*
X008780Y002100D01*
X008841Y001953D01*
X009341Y001453D01*
X009453Y001341D01*
X009560Y001297D01*
X009560Y001257D01*
X009654Y001029D01*
X009829Y000854D01*
X010057Y000760D01*
X010303Y000760D01*
X010531Y000854D01*
X010680Y001003D01*
X010829Y000854D01*
X011019Y000776D01*
X011214Y000580D01*
X003180Y000580D01*
X003180Y000656D02*
X011139Y000656D01*
X010926Y000814D02*
X010434Y000814D01*
X010649Y000973D02*
X010711Y000973D01*
X011180Y001180D02*
X011680Y000680D01*
X017026Y000680D01*
X017180Y000834D01*
X017276Y000930D01*
X017930Y000930D01*
X018180Y001180D01*
X018430Y000930D01*
X019084Y000930D01*
X019180Y000834D01*
X018180Y001180D02*
X018180Y003180D01*
X020180Y005180D01*
X020180Y006180D01*
X020180Y007298D01*
X020680Y007298D02*
X020680Y007298D01*
X020680Y006783D01*
X020780Y006783D01*
X020781Y006782D01*
X020871Y006692D01*
X020988Y006643D01*
X021372Y006643D01*
X021430Y006668D01*
X021488Y006643D01*
X021780Y006643D01*
X021780Y006100D01*
X021841Y005953D01*
X021953Y005841D01*
X024080Y003714D01*
X024080Y003561D01*
X024171Y003340D01*
X024340Y003171D01*
X024561Y003080D01*
X024799Y003080D01*
X025020Y003171D01*
X025189Y003340D01*
X025266Y003528D01*
X025494Y003300D01*
X025423Y003300D01*
X025203Y003080D01*
X023629Y003080D01*
X023520Y003189D01*
X023299Y003280D01*
X023061Y003280D01*
X022840Y003189D01*
X022731Y003080D01*
X022600Y003080D01*
X022453Y003019D01*
X022341Y002907D01*
X021953Y002519D01*
X021841Y002407D01*
X021780Y002260D01*
X021780Y001346D01*
X021776Y001341D01*
X021776Y001468D01*
X021727Y001586D01*
X021637Y001676D01*
X021519Y001724D01*
X020841Y001724D01*
X020723Y001676D01*
X020633Y001586D01*
X020584Y001468D01*
X020584Y001341D01*
X020580Y001346D01*
X020580Y002260D01*
X020519Y002407D01*
X020407Y002519D01*
X020060Y002866D01*
X019913Y002926D01*
X019754Y002926D01*
X019741Y002958D01*
X019651Y003048D01*
X019533Y003096D01*
X018827Y003096D01*
X018709Y003048D01*
X018619Y002958D01*
X018580Y002863D01*
X018580Y003014D01*
X020407Y004841D01*
X020519Y004953D01*
X020580Y005100D01*
X020580Y005731D01*
X020689Y005840D01*
X020780Y006061D01*
X020780Y006299D01*
X020689Y006520D01*
X020580Y006629D01*
X020580Y006783D01*
X020680Y006783D01*
X020680Y007298D01*
X020680Y003680D01*
X021180Y003180D01*
X021180Y002271D01*
X021238Y002241D02*
X021780Y002241D01*
X021636Y002213D02*
X021636Y001932D01*
X021623Y001886D01*
X021600Y001845D01*
X021566Y001812D01*
X021525Y001788D01*
X021479Y001776D01*
X021238Y001776D01*
X021238Y002213D01*
X021238Y002328D01*
X021636Y002328D01*
X021636Y002609D01*
X021623Y002655D01*
X021600Y002696D01*
X021566Y002730D01*
X021525Y002753D01*
X021479Y002766D01*
X021238Y002766D01*
X021238Y002328D01*
X021122Y002328D01*
X021122Y002213D01*
X020724Y002213D01*
X020724Y001932D01*
X020737Y001886D01*
X020760Y001845D01*
X020794Y001812D01*
X020835Y001788D01*
X020881Y001776D01*
X021122Y001776D01*
X021122Y002213D01*
X021238Y002213D01*
X021636Y002213D01*
X021636Y002082D02*
X021780Y002082D01*
X021780Y001924D02*
X021633Y001924D01*
X021780Y001765D02*
X020580Y001765D01*
X020580Y001607D02*
X020654Y001607D01*
X020584Y001448D02*
X020580Y001448D01*
X020580Y001924D02*
X020727Y001924D01*
X020724Y002082D02*
X020580Y002082D01*
X020580Y002241D02*
X021122Y002241D01*
X021122Y002328D02*
X020724Y002328D01*
X020724Y002609D01*
X020737Y002655D01*
X020760Y002696D01*
X020794Y002730D01*
X020835Y002753D01*
X020881Y002766D01*
X021122Y002766D01*
X021122Y002328D01*
X021122Y002399D02*
X021238Y002399D01*
X021238Y002558D02*
X021122Y002558D01*
X021122Y002716D02*
X021238Y002716D01*
X021580Y002716D02*
X022150Y002716D01*
X021992Y002558D02*
X021636Y002558D01*
X021636Y002399D02*
X021838Y002399D01*
X022180Y002180D02*
X022180Y001180D01*
X021930Y000930D01*
X021339Y000930D01*
X021180Y001089D01*
X021021Y000930D01*
X020430Y000930D01*
X020180Y001180D01*
X020180Y002180D01*
X019834Y002526D01*
X019180Y002526D01*
X018585Y002875D02*
X018580Y002875D01*
X018599Y003033D02*
X018695Y003033D01*
X018757Y003192D02*
X022847Y003192D01*
X022487Y003033D02*
X019665Y003033D01*
X020039Y002875D02*
X022309Y002875D01*
X022680Y002680D02*
X023180Y002680D01*
X025680Y002680D01*
X024860Y002280D02*
X024860Y002016D01*
X024909Y001899D01*
X024999Y001809D01*
X025060Y001783D01*
X025060Y001423D01*
X025423Y001060D01*
X025937Y001060D01*
X026180Y001303D01*
X026423Y001060D01*
X026937Y001060D01*
X027180Y001303D01*
X027423Y001060D01*
X027937Y001060D01*
X028180Y001303D01*
X028423Y001060D01*
X028937Y001060D01*
X029180Y001303D01*
X029423Y001060D01*
X029937Y001060D01*
X030300Y001423D01*
X030300Y001783D01*
X030361Y001809D01*
X030451Y001899D01*
X030500Y002016D01*
X030500Y002344D01*
X030451Y002461D01*
X030361Y002551D01*
X030300Y002577D01*
X030300Y002937D01*
X029937Y003300D01*
X029423Y003300D01*
X029081Y002958D01*
X028879Y003160D01*
X028700Y003160D01*
X028700Y002700D01*
X028660Y002700D01*
X028660Y003160D01*
X028481Y003160D01*
X028279Y002958D01*
X027937Y003300D01*
X027626Y003300D01*
X027280Y003646D01*
X027280Y003799D01*
X027189Y004020D01*
X027020Y004189D01*
X026799Y004280D01*
X026561Y004280D01*
X026340Y004189D01*
X026171Y004020D01*
X026094Y003832D01*
X025832Y004094D01*
X026020Y004171D01*
X026129Y004280D01*
X038264Y004280D01*
X041091Y001453D01*
X041203Y001341D01*
X041350Y001280D01*
X044760Y001280D01*
X044907Y001341D01*
X045019Y001453D01*
X045519Y001953D01*
X045580Y002100D01*
X045580Y002231D01*
X045689Y002340D01*
X045780Y002561D01*
X045780Y002799D01*
X045689Y003020D01*
X045520Y003189D01*
X045299Y003280D01*
X045061Y003280D01*
X044840Y003189D01*
X044671Y003020D01*
X044580Y002799D01*
X044580Y002561D01*
X044671Y002340D01*
X044723Y002289D01*
X044514Y002080D01*
X041596Y002080D01*
X041509Y002167D01*
X041520Y002171D01*
X041689Y002340D01*
X041780Y002561D01*
X041780Y002799D01*
X041689Y003020D01*
X041580Y003129D01*
X041580Y003510D01*
X041519Y003657D01*
X041407Y003769D01*
X039896Y005280D01*
X040514Y005280D01*
X040580Y005214D01*
X040580Y005061D01*
X040671Y004840D01*
X040840Y004671D01*
X041061Y004580D01*
X041299Y004580D01*
X041520Y004671D01*
X041689Y004840D01*
X041780Y005061D01*
X041780Y005299D01*
X041689Y005520D01*
X041520Y005689D01*
X041299Y005780D01*
X041146Y005780D01*
X040907Y006019D01*
X040760Y006080D01*
X025129Y006080D01*
X025020Y006189D01*
X024799Y006280D01*
X024561Y006280D01*
X024340Y006189D01*
X024171Y006020D01*
X024094Y005832D01*
X023098Y006828D01*
X023128Y006900D01*
X023128Y007666D01*
X023453Y007341D01*
X023600Y007280D01*
X050760Y007280D01*
X050907Y007341D01*
X051407Y007841D01*
X051519Y007953D01*
X051580Y008100D01*
X051580Y010225D01*
X051606Y010214D01*
X051606Y010206D01*
X052103Y010206D01*
X052103Y010051D01*
X052257Y010051D01*
X052257Y009634D01*
X052597Y009634D01*
X052643Y009646D01*
X052684Y009670D01*
X052718Y009703D01*
X052741Y009744D01*
X052754Y009790D01*
X052754Y010051D01*
X052257Y010051D01*
X052257Y010206D01*
X052754Y010206D01*
X052754Y010214D01*
X052861Y010259D01*
X052951Y010349D01*
X053000Y010466D01*
X053000Y010894D01*
X052951Y011011D01*
X052894Y011069D01*
X052894Y011610D01*
X052845Y011727D01*
X052755Y011817D01*
X052637Y011866D01*
X052580Y011866D01*
X052580Y012260D01*
X052760Y012440D01*
X052760Y012920D01*
X052420Y013260D01*
X051940Y013260D01*
X051680Y013000D01*
X051420Y013260D01*
X050940Y013260D01*
X050609Y012930D01*
X050379Y013160D01*
X050200Y013160D01*
X050200Y012700D01*
X050160Y012700D01*
X050160Y013160D01*
X049981Y013160D01*
X049700Y012879D01*
X049700Y012700D01*
X050160Y012700D01*
X050160Y012660D01*
X050200Y012660D01*
X050200Y012200D01*
X050379Y012200D01*
X050609Y012430D01*
X050780Y012260D01*
X050780Y008346D01*
X050514Y008080D01*
X025982Y008080D01*
X025990Y008111D01*
X025990Y008382D01*
X025602Y008382D01*
X025602Y008478D01*
X025506Y008478D01*
X025506Y008905D01*
X025334Y008905D01*
X025333Y008907D01*
X025243Y008997D01*
X025206Y009012D01*
X025206Y009348D01*
X025243Y009363D01*
X025333Y009453D01*
X025334Y009455D01*
X025506Y009455D01*
X025506Y009882D01*
X025602Y009882D01*
X025602Y009455D01*
X025834Y009455D01*
X025879Y009467D01*
X025920Y009491D01*
X025954Y009524D01*
X025978Y009565D01*
X025990Y009611D01*
X025990Y009882D01*
X025602Y009882D01*
X025602Y009978D01*
X025506Y009978D01*
X025506Y010405D01*
X025334Y010405D01*
X025333Y010407D01*
X025243Y010497D01*
X025126Y010545D01*
X024486Y010545D01*
X024369Y010497D01*
X024279Y010407D01*
X024230Y010289D01*
X024230Y009580D01*
X023596Y009580D01*
X023580Y009596D01*
X023580Y010014D01*
X024519Y010953D01*
X024580Y011100D01*
X024580Y011760D01*
X024519Y011907D01*
X024407Y012019D01*
X024407Y012019D01*
X023907Y012519D01*
X023760Y012580D01*
X023646Y012580D01*
X023846Y012780D01*
X023994Y012780D01*
X023994Y012723D01*
X024043Y012605D01*
X024133Y012515D01*
X024250Y012466D01*
X025007Y012466D01*
X025125Y012515D01*
X025180Y012570D01*
X025235Y012515D01*
X025353Y012466D01*
X026110Y012466D01*
X026227Y012515D01*
X026317Y012605D01*
X026366Y012723D01*
X026366Y012780D01*
X027514Y012780D01*
X027780Y012514D01*
X027780Y009350D01*
X027841Y009203D01*
X027953Y009091D01*
X028341Y008703D01*
X028453Y008591D01*
X028600Y008530D01*
X044510Y008530D01*
X044657Y008591D01*
X045157Y009091D01*
X045269Y009203D01*
X045330Y009350D01*
X045330Y009658D01*
X045432Y009700D01*
X045522Y009790D01*
X045571Y009908D01*
X045571Y010586D01*
X045522Y010704D01*
X045513Y010713D01*
X046081Y010713D01*
X046754Y010041D01*
X046756Y010036D01*
X046779Y009970D01*
X046786Y009963D01*
X046790Y009953D01*
X046839Y009904D01*
X046886Y009852D01*
X046895Y009848D01*
X046902Y009841D01*
X046967Y009814D01*
X047030Y009784D01*
X047040Y009784D01*
X047049Y009780D01*
X047119Y009780D01*
X047466Y009763D01*
X047466Y009750D01*
X047515Y009633D01*
X047605Y009543D01*
X047723Y009494D01*
X048637Y009494D01*
X048755Y009543D01*
X048845Y009633D01*
X048894Y009750D01*
X048894Y010291D01*
X048951Y010349D01*
X049000Y010466D01*
X049000Y010894D01*
X048951Y011011D01*
X048894Y011069D01*
X048894Y011610D01*
X048845Y011727D01*
X048755Y011817D01*
X048637Y011866D01*
X048580Y011866D01*
X048580Y012260D01*
X048751Y012430D01*
X048981Y012200D01*
X049160Y012200D01*
X049160Y012660D01*
X049200Y012660D01*
X049200Y012700D01*
X049160Y012700D01*
X049160Y013160D01*
X048981Y013160D01*
X048751Y012930D01*
X048420Y013260D01*
X047940Y013260D01*
X047680Y013000D01*
X047580Y013100D01*
X047580Y013260D01*
X047519Y013407D01*
X047407Y013519D01*
X046907Y014019D01*
X046760Y014080D01*
X045600Y014080D01*
X045453Y014019D01*
X045341Y013907D01*
X044841Y013407D01*
X044780Y013260D01*
X044780Y013100D01*
X044680Y013000D01*
X044580Y013100D01*
X044580Y013260D01*
X044519Y013407D01*
X044407Y013519D01*
X043907Y014019D01*
X043760Y014080D01*
X042600Y014080D01*
X042453Y014019D01*
X042341Y013907D01*
X041841Y013407D01*
X041780Y013260D01*
X041780Y013100D01*
X041680Y013000D01*
X041420Y013260D01*
X040940Y013260D01*
X040600Y012920D01*
X040600Y012440D01*
X040780Y012260D01*
X040780Y011866D01*
X040723Y011866D01*
X040605Y011817D01*
X040515Y011727D01*
X040466Y011610D01*
X040466Y011524D01*
X040453Y011519D01*
X040341Y011407D01*
X040014Y011080D01*
X039846Y011080D01*
X039580Y011346D01*
X039580Y014760D01*
X039519Y014907D01*
X039407Y015019D01*
X039407Y015019D01*
X039021Y015405D01*
X053408Y015405D01*
X053408Y000580D01*
X022130Y000580D01*
X022157Y000591D01*
X022269Y000703D01*
X022519Y000953D01*
X022580Y001100D01*
X022580Y001260D01*
X022580Y002014D01*
X022789Y002223D01*
X022840Y002171D01*
X023061Y002080D01*
X023299Y002080D01*
X023520Y002171D01*
X023629Y002280D01*
X024860Y002280D01*
X024860Y002241D02*
X023589Y002241D01*
X023304Y002082D02*
X024860Y002082D01*
X024898Y001924D02*
X022580Y001924D01*
X022580Y001765D02*
X025060Y001765D01*
X025060Y001607D02*
X022580Y001607D01*
X022580Y001448D02*
X025060Y001448D01*
X025194Y001290D02*
X022580Y001290D01*
X022580Y001131D02*
X025352Y001131D01*
X026008Y001131D02*
X026352Y001131D01*
X026194Y001290D02*
X026166Y001290D01*
X027008Y001131D02*
X027352Y001131D01*
X027194Y001290D02*
X027166Y001290D01*
X028008Y001131D02*
X028352Y001131D01*
X028194Y001290D02*
X028166Y001290D01*
X029008Y001131D02*
X029352Y001131D01*
X029194Y001290D02*
X029166Y001290D01*
X030008Y001131D02*
X053408Y001131D01*
X053408Y000973D02*
X022527Y000973D01*
X022380Y000814D02*
X053408Y000814D01*
X053408Y000656D02*
X022221Y000656D01*
X021180Y001089D02*
X021089Y001180D01*
X021776Y001448D02*
X021780Y001448D01*
X021780Y001607D02*
X021706Y001607D01*
X021238Y001924D02*
X021122Y001924D01*
X021122Y002082D02*
X021238Y002082D01*
X020724Y002399D02*
X020522Y002399D01*
X020368Y002558D02*
X020724Y002558D01*
X020780Y002716D02*
X020210Y002716D01*
X018916Y003350D02*
X024167Y003350D01*
X024102Y003509D02*
X019074Y003509D01*
X019233Y003667D02*
X024080Y003667D01*
X023969Y003826D02*
X019391Y003826D01*
X019550Y003984D02*
X023810Y003984D01*
X023652Y004143D02*
X019708Y004143D01*
X019867Y004301D02*
X023493Y004301D01*
X023335Y004460D02*
X020025Y004460D01*
X020184Y004618D02*
X023176Y004618D01*
X023018Y004777D02*
X020342Y004777D01*
X020407Y004841D02*
X020407Y004841D01*
X020501Y004935D02*
X022859Y004935D01*
X022701Y005094D02*
X020577Y005094D01*
X020580Y005252D02*
X022542Y005252D01*
X022384Y005411D02*
X020580Y005411D01*
X020580Y005569D02*
X022225Y005569D01*
X022067Y005728D02*
X020580Y005728D01*
X020708Y005886D02*
X021908Y005886D01*
X021803Y006045D02*
X020773Y006045D01*
X020780Y006203D02*
X021780Y006203D01*
X021780Y006362D02*
X020754Y006362D01*
X020689Y006520D02*
X021780Y006520D01*
X022180Y006180D02*
X022180Y007298D01*
X021680Y007298D02*
X021680Y008180D01*
X020680Y009180D01*
X015180Y009180D01*
X013180Y011180D01*
X011930Y011180D01*
X011680Y010930D01*
X011680Y009890D01*
X012180Y009890D02*
X012180Y010470D01*
X012180Y009890D01*
X012180Y009890D01*
X012490Y009890D01*
X012490Y010314D01*
X012478Y010359D01*
X012454Y010401D01*
X012421Y010434D01*
X012379Y010458D01*
X012334Y010470D01*
X012180Y010470D01*
X012082Y010470D01*
X012081Y010471D01*
X012080Y010473D01*
X012080Y010764D01*
X012096Y010780D01*
X013014Y010780D01*
X014714Y009080D01*
X012580Y009080D01*
X012580Y009100D01*
X012580Y009260D01*
X012519Y009407D01*
X012484Y009442D01*
X012490Y009466D01*
X012490Y009890D01*
X012180Y009890D01*
X012180Y009890D01*
X012180Y010007D02*
X012180Y010007D01*
X012180Y010166D02*
X012180Y010166D01*
X012180Y010324D02*
X012180Y010324D01*
X012080Y010483D02*
X013312Y010483D01*
X013153Y010641D02*
X012080Y010641D01*
X012487Y010324D02*
X013470Y010324D01*
X013629Y010166D02*
X012490Y010166D01*
X012490Y010007D02*
X013787Y010007D01*
X013946Y009849D02*
X012490Y009849D01*
X012490Y009690D02*
X014104Y009690D01*
X014263Y009532D02*
X012490Y009532D01*
X012533Y009373D02*
X014421Y009373D01*
X014580Y009215D02*
X012580Y009215D01*
X011180Y009890D02*
X011180Y011180D01*
X011680Y011680D01*
X013180Y011680D01*
X015180Y009680D01*
X020680Y009680D01*
X020680Y011062D01*
X020180Y011062D02*
X020180Y011062D01*
X020180Y011577D01*
X020028Y011577D01*
X019983Y011564D01*
X019942Y011541D01*
X019930Y011529D01*
X019918Y011541D01*
X019877Y011564D01*
X019832Y011577D01*
X019680Y011577D01*
X019580Y011577D01*
X019580Y011651D01*
X020066Y011651D01*
X020180Y011698D01*
X020294Y011651D01*
X020354Y011651D01*
X020281Y011578D01*
X020280Y011577D01*
X020180Y011577D01*
X020180Y011062D01*
X020180Y011062D01*
X019680Y011062D01*
X019680Y011577D01*
X019680Y011062D01*
X019680Y011062D01*
X019680Y011062D01*
X020180Y011062D01*
X020180Y010180D01*
X021180Y010180D02*
X021180Y011062D01*
X021680Y011062D02*
X021680Y011680D01*
X022430Y012430D01*
X022430Y013129D01*
X022481Y013180D01*
X023116Y013182D02*
X023116Y013637D01*
X023067Y013755D01*
X022977Y013845D01*
X022860Y013894D01*
X022103Y013894D01*
X021985Y013845D01*
X021930Y013790D01*
X021875Y013845D01*
X021757Y013894D01*
X021000Y013894D01*
X020883Y013845D01*
X020793Y013755D01*
X020744Y013637D01*
X020744Y012843D01*
X020697Y012843D01*
X020697Y013452D01*
X020648Y013570D01*
X020558Y013660D01*
X020441Y013709D01*
X020150Y013709D01*
X019907Y013952D01*
X019760Y014013D01*
X019673Y014013D01*
X019679Y014033D01*
X019692Y014112D01*
X019692Y014134D01*
X019200Y014134D01*
X019200Y014171D01*
X019163Y014171D01*
X019163Y014662D01*
X019141Y014662D01*
X019062Y014650D01*
X018986Y014625D01*
X018914Y014589D01*
X018849Y014541D01*
X018793Y014485D01*
X018764Y014445D01*
X018733Y014521D01*
X018550Y014703D01*
X018365Y014780D01*
X029280Y014780D01*
X029280Y010629D01*
X029171Y010520D01*
X029080Y010299D01*
X029080Y010061D01*
X029171Y009840D01*
X029340Y009671D01*
X029561Y009580D01*
X029799Y009580D01*
X030020Y009671D01*
X030189Y009840D01*
X030280Y010061D01*
X030280Y010299D01*
X030189Y010520D01*
X030080Y010629D01*
X030080Y014780D01*
X031023Y014780D01*
X030855Y014612D01*
X030732Y014314D01*
X030732Y013991D01*
X030855Y013692D01*
X031084Y013464D01*
X031382Y013340D01*
X031705Y013340D01*
X032004Y013464D01*
X032232Y013692D01*
X032356Y013991D01*
X032356Y014314D01*
X032232Y014612D01*
X032065Y014780D01*
X038514Y014780D01*
X038780Y014514D01*
X038780Y013776D01*
X038142Y013776D01*
X038024Y013727D01*
X037934Y013637D01*
X037886Y013519D01*
X037886Y012841D01*
X037934Y012723D01*
X038024Y012633D01*
X038142Y012584D01*
X038264Y012584D01*
X038264Y012350D01*
X038172Y012258D01*
X038095Y012073D01*
X038087Y012098D01*
X038056Y012160D01*
X038015Y012216D01*
X037966Y012265D01*
X037910Y012306D01*
X037848Y012337D01*
X037783Y012359D01*
X037714Y012370D01*
X037680Y012370D01*
X037680Y011670D01*
X037680Y011670D01*
X037680Y012370D01*
X037645Y012370D01*
X037576Y012359D01*
X037511Y012337D01*
X037449Y012306D01*
X037393Y012265D01*
X037344Y012216D01*
X037303Y012160D01*
X037272Y012098D01*
X037264Y012073D01*
X037187Y012258D01*
X037024Y012421D01*
X036811Y012510D01*
X036580Y012510D01*
X036367Y012421D01*
X036204Y012258D01*
X036115Y012045D01*
X036115Y011294D01*
X036204Y011081D01*
X036280Y011005D01*
X036280Y010846D01*
X036014Y010580D01*
X032629Y010580D01*
X032520Y010689D01*
X032299Y010780D01*
X032061Y010780D01*
X031840Y010689D01*
X031671Y010520D01*
X031580Y010299D01*
X031580Y010061D01*
X031671Y009840D01*
X031840Y009671D01*
X032061Y009580D01*
X032299Y009580D01*
X032520Y009671D01*
X032629Y009780D01*
X036260Y009780D01*
X036407Y009841D01*
X036907Y010341D01*
X037019Y010453D01*
X037019Y010453D01*
X037034Y010469D01*
X037095Y010616D01*
X037095Y010775D01*
X037080Y010812D01*
X037080Y010974D01*
X037187Y011081D01*
X037264Y011266D01*
X037272Y011241D01*
X037303Y011179D01*
X037344Y011123D01*
X037393Y011074D01*
X037449Y011033D01*
X037511Y011002D01*
X037576Y010980D01*
X037645Y010970D01*
X037680Y010970D01*
X037714Y010970D01*
X037783Y010980D01*
X037848Y011002D01*
X037910Y011033D01*
X037966Y011074D01*
X038015Y011123D01*
X038056Y011179D01*
X038087Y011241D01*
X038095Y011266D01*
X038172Y011081D01*
X038264Y010989D01*
X038264Y010617D01*
X038325Y010470D01*
X038437Y010357D01*
X038437Y010357D01*
X038841Y009953D01*
X038953Y009841D01*
X039100Y009780D01*
X040466Y009780D01*
X040466Y009750D01*
X040515Y009633D01*
X040605Y009543D01*
X040723Y009494D01*
X041637Y009494D01*
X041755Y009543D01*
X041845Y009633D01*
X041894Y009750D01*
X041894Y010291D01*
X041951Y010349D01*
X042000Y010466D01*
X042000Y010894D01*
X041951Y011011D01*
X041894Y011069D01*
X041894Y011610D01*
X041845Y011727D01*
X041755Y011817D01*
X041637Y011866D01*
X041580Y011866D01*
X041580Y012260D01*
X041680Y012360D01*
X041940Y012100D01*
X042420Y012100D01*
X042751Y012430D01*
X042981Y012200D01*
X043160Y012200D01*
X043160Y012660D01*
X043200Y012660D01*
X043200Y012200D01*
X043379Y012200D01*
X043609Y012430D01*
X043940Y012100D01*
X044420Y012100D01*
X044680Y012360D01*
X044940Y012100D01*
X045420Y012100D01*
X045751Y012430D01*
X045981Y012200D01*
X046160Y012200D01*
X046160Y012660D01*
X046200Y012660D01*
X046200Y012200D01*
X046379Y012200D01*
X046609Y012430D01*
X046940Y012100D01*
X047420Y012100D01*
X047680Y012360D01*
X047780Y012260D01*
X047780Y011866D01*
X047723Y011866D01*
X047605Y011817D01*
X047515Y011727D01*
X047466Y011610D01*
X047466Y011069D01*
X047409Y011011D01*
X047360Y010894D01*
X047360Y010569D01*
X047356Y010569D01*
X046474Y011452D01*
X046326Y011513D01*
X046167Y011513D01*
X045172Y011513D01*
X045148Y011570D01*
X045058Y011660D01*
X044941Y011709D01*
X044419Y011709D01*
X044302Y011660D01*
X044212Y011570D01*
X044163Y011452D01*
X044163Y010774D01*
X044193Y010703D01*
X044085Y010703D01*
X044040Y010690D01*
X043999Y010667D01*
X043965Y010633D01*
X043941Y010592D01*
X043929Y010546D01*
X043929Y010265D01*
X044288Y010265D01*
X044288Y010229D01*
X044288Y010228D02*
X044324Y010228D01*
X044324Y009791D01*
X044527Y009791D01*
X044530Y009792D01*
X044530Y009596D01*
X044264Y009330D01*
X028846Y009330D01*
X028580Y009596D01*
X028580Y012760D01*
X028519Y012907D01*
X027907Y013519D01*
X027760Y013580D01*
X026366Y013580D01*
X026366Y013637D01*
X026317Y013755D01*
X026227Y013845D01*
X026110Y013894D01*
X025353Y013894D01*
X025235Y013845D01*
X025180Y013790D01*
X025125Y013845D01*
X025007Y013894D01*
X024250Y013894D01*
X024133Y013845D01*
X024043Y013755D01*
X023994Y013637D01*
X023994Y013580D01*
X023600Y013580D01*
X023453Y013519D01*
X023341Y013407D01*
X023116Y013182D01*
X023116Y013336D02*
X023270Y013336D01*
X023116Y013494D02*
X023428Y013494D01*
X023110Y013653D02*
X024000Y013653D01*
X024099Y013811D02*
X023011Y013811D01*
X021951Y013811D02*
X021909Y013811D01*
X020849Y013811D02*
X020048Y013811D01*
X019865Y013970D02*
X029280Y013970D01*
X029280Y014128D02*
X019692Y014128D01*
X019692Y014171D02*
X019200Y014171D01*
X019200Y014662D01*
X019222Y014662D01*
X019301Y014650D01*
X019377Y014625D01*
X019449Y014589D01*
X019514Y014541D01*
X019571Y014485D01*
X019618Y014420D01*
X019654Y014348D01*
X019679Y014272D01*
X019692Y014193D01*
X019692Y014171D01*
X019674Y014287D02*
X029280Y014287D01*
X029280Y014445D02*
X019599Y014445D01*
X019419Y014604D02*
X029280Y014604D01*
X029280Y014762D02*
X018408Y014762D01*
X018650Y014604D02*
X018944Y014604D01*
X019163Y014604D02*
X019200Y014604D01*
X019200Y014445D02*
X019163Y014445D01*
X019163Y014287D02*
X019200Y014287D01*
X018721Y013613D02*
X018182Y014152D01*
X017182Y014152D02*
X017180Y014151D01*
X017180Y012680D01*
X018180Y011680D01*
X018180Y011062D01*
X018680Y011062D02*
X018680Y012680D01*
X019180Y013180D02*
X019806Y012554D01*
X019806Y012247D01*
X019180Y012180D02*
X019180Y011062D01*
X019680Y011062D02*
X019872Y011062D01*
X020180Y011062D01*
X020180Y011117D02*
X020180Y011117D01*
X020180Y011275D02*
X020180Y011275D01*
X020180Y011434D02*
X020180Y011434D01*
X020295Y011592D02*
X019580Y011592D01*
X019680Y011434D02*
X019680Y011434D01*
X019680Y011275D02*
X019680Y011275D01*
X019680Y011117D02*
X019680Y011117D01*
X017680Y011062D02*
X017680Y011680D01*
X016180Y013180D01*
X016182Y013182D01*
X016182Y014152D01*
X015182Y014152D02*
X015180Y014151D01*
X015180Y013680D01*
X017180Y011680D01*
X017180Y011062D01*
X016680Y011062D02*
X016680Y011654D01*
X014182Y014152D01*
X013599Y014445D02*
X013571Y014485D01*
X013514Y014541D01*
X013449Y014589D01*
X013377Y014625D01*
X013301Y014650D01*
X013222Y014662D01*
X013200Y014662D01*
X013200Y014171D01*
X013163Y014171D01*
X013163Y014662D01*
X013141Y014662D01*
X013062Y014650D01*
X012986Y014625D01*
X012914Y014589D01*
X012849Y014541D01*
X012793Y014485D01*
X012745Y014420D01*
X012709Y014348D01*
X012684Y014272D01*
X012682Y014256D01*
X012679Y014272D01*
X012654Y014348D01*
X012618Y014420D01*
X012571Y014485D01*
X012514Y014541D01*
X012449Y014589D01*
X012377Y014625D01*
X012301Y014650D01*
X012222Y014662D01*
X012200Y014662D01*
X012200Y014171D01*
X012163Y014171D01*
X012163Y014662D01*
X012141Y014662D01*
X012062Y014650D01*
X011986Y014625D01*
X011914Y014589D01*
X011849Y014541D01*
X011793Y014485D01*
X011745Y014420D01*
X011709Y014348D01*
X011684Y014272D01*
X011682Y014256D01*
X011679Y014272D01*
X011654Y014348D01*
X011618Y014420D01*
X011571Y014485D01*
X011514Y014541D01*
X011449Y014589D01*
X011377Y014625D01*
X011301Y014650D01*
X011222Y014662D01*
X011200Y014662D01*
X011200Y014171D01*
X011163Y014171D01*
X011163Y014662D01*
X011141Y014662D01*
X011062Y014650D01*
X010986Y014625D01*
X010914Y014589D01*
X010849Y014541D01*
X010793Y014485D01*
X010745Y014420D01*
X010709Y014348D01*
X010684Y014272D01*
X010682Y014256D01*
X010679Y014272D01*
X010654Y014348D01*
X010618Y014420D01*
X010571Y014485D01*
X010514Y014541D01*
X010449Y014589D01*
X010377Y014625D01*
X010301Y014650D01*
X010222Y014662D01*
X010200Y014662D01*
X010200Y014171D01*
X010163Y014171D01*
X010163Y014662D01*
X010141Y014662D01*
X010062Y014650D01*
X009986Y014625D01*
X009914Y014589D01*
X009849Y014541D01*
X009793Y014485D01*
X009764Y014445D01*
X009733Y014521D01*
X009550Y014703D01*
X009365Y014780D01*
X013998Y014780D01*
X013813Y014703D01*
X013631Y014521D01*
X013599Y014445D01*
X013713Y014604D02*
X013419Y014604D01*
X013200Y014604D02*
X013163Y014604D01*
X013163Y014445D02*
X013200Y014445D01*
X013200Y014287D02*
X013163Y014287D01*
X013163Y014171D02*
X013163Y014134D01*
X012672Y014134D01*
X012200Y014134D01*
X012200Y014171D01*
X013163Y014171D01*
X013163Y014134D02*
X013200Y014134D01*
X013200Y013642D01*
X013222Y013642D01*
X013301Y013655D01*
X013377Y013680D01*
X013449Y013716D01*
X013514Y013763D01*
X013571Y013820D01*
X013599Y013860D01*
X013631Y013784D01*
X013813Y013601D01*
X014052Y013502D01*
X014266Y013502D01*
X015188Y012580D01*
X015100Y012580D01*
X014953Y012519D01*
X014453Y012019D01*
X014341Y011907D01*
X014280Y011760D01*
X014280Y011146D01*
X013519Y011907D01*
X013407Y012019D01*
X013260Y012080D01*
X011600Y012080D01*
X011453Y012019D01*
X010953Y011519D01*
X010930Y011496D01*
X010519Y011907D01*
X010407Y012019D01*
X010260Y012080D01*
X009780Y012080D01*
X009780Y012299D01*
X009689Y012520D01*
X009582Y012627D01*
X009582Y013633D01*
X009733Y013784D01*
X009764Y013860D01*
X009793Y013820D01*
X009849Y013763D01*
X009914Y013716D01*
X009986Y013680D01*
X010062Y013655D01*
X010141Y013642D01*
X010163Y013642D01*
X010163Y014134D01*
X010200Y014134D01*
X010200Y014171D01*
X011163Y014171D01*
X011163Y014134D01*
X010672Y014134D01*
X010200Y014134D01*
X010200Y013642D01*
X010222Y013642D01*
X010301Y013655D01*
X010377Y013680D01*
X010449Y013716D01*
X010514Y013763D01*
X010571Y013820D01*
X010618Y013885D01*
X010654Y013957D01*
X010679Y014033D01*
X010682Y014049D01*
X010684Y014033D01*
X010709Y013957D01*
X010745Y013885D01*
X010793Y013820D01*
X010849Y013763D01*
X010914Y013716D01*
X010986Y013680D01*
X011062Y013655D01*
X011141Y013642D01*
X011163Y013642D01*
X011163Y014134D01*
X011200Y014134D01*
X011200Y014171D01*
X012163Y014171D01*
X012163Y014134D01*
X011672Y014134D01*
X011200Y014134D01*
X011200Y013642D01*
X011222Y013642D01*
X011301Y013655D01*
X011377Y013680D01*
X011449Y013716D01*
X011514Y013763D01*
X011571Y013820D01*
X011618Y013885D01*
X011654Y013957D01*
X011679Y014033D01*
X011682Y014049D01*
X011684Y014033D01*
X011709Y013957D01*
X011745Y013885D01*
X011793Y013820D01*
X011849Y013763D01*
X011914Y013716D01*
X011986Y013680D01*
X012062Y013655D01*
X012141Y013642D01*
X012163Y013642D01*
X012163Y014134D01*
X012200Y014134D01*
X012200Y013642D01*
X012222Y013642D01*
X012301Y013655D01*
X012377Y013680D01*
X012449Y013716D01*
X012514Y013763D01*
X012571Y013820D01*
X012618Y013885D01*
X012654Y013957D01*
X012679Y014033D01*
X012682Y014049D01*
X012684Y014033D01*
X012709Y013957D01*
X012745Y013885D01*
X012793Y013820D01*
X012849Y013763D01*
X012914Y013716D01*
X012986Y013680D01*
X013062Y013655D01*
X013141Y013642D01*
X013163Y013642D01*
X013163Y014134D01*
X013163Y014128D02*
X013200Y014128D01*
X013200Y013970D02*
X013163Y013970D01*
X013163Y013811D02*
X013200Y013811D01*
X013200Y013653D02*
X013163Y013653D01*
X013077Y013653D02*
X012286Y013653D01*
X012200Y013653D02*
X012163Y013653D01*
X012077Y013653D02*
X011286Y013653D01*
X011200Y013653D02*
X011163Y013653D01*
X011077Y013653D02*
X010286Y013653D01*
X010200Y013653D02*
X010163Y013653D01*
X010077Y013653D02*
X009601Y013653D01*
X009582Y013494D02*
X014274Y013494D01*
X014433Y013336D02*
X009582Y013336D01*
X009582Y013177D02*
X014591Y013177D01*
X014750Y013019D02*
X009582Y013019D01*
X009582Y012860D02*
X014908Y012860D01*
X015067Y012702D02*
X009582Y012702D01*
X009666Y012543D02*
X015011Y012543D01*
X014819Y012385D02*
X009745Y012385D01*
X009780Y012226D02*
X014660Y012226D01*
X014502Y012068D02*
X013290Y012068D01*
X013517Y011909D02*
X014343Y011909D01*
X014280Y011751D02*
X013675Y011751D01*
X013834Y011592D02*
X014280Y011592D01*
X014280Y011434D02*
X013992Y011434D01*
X014151Y011275D02*
X014280Y011275D01*
X014680Y011180D02*
X015680Y010180D01*
X016180Y011062D02*
X016180Y011680D01*
X015680Y012180D01*
X015180Y012180D01*
X014680Y011680D01*
X014680Y011180D01*
X011343Y011909D02*
X010517Y011909D01*
X010519Y011907D02*
X010519Y011907D01*
X010675Y011751D02*
X011185Y011751D01*
X011026Y011592D02*
X010834Y011592D01*
X010680Y011180D02*
X010180Y011680D01*
X006680Y011680D01*
X004180Y009180D01*
X004180Y006180D01*
X004680Y005680D01*
X005680Y005680D01*
X006506Y005329D02*
X006600Y005557D01*
X006600Y005803D01*
X006506Y006031D01*
X006357Y006180D01*
X006506Y006329D01*
X006600Y006557D01*
X006600Y006803D01*
X006506Y007031D01*
X006357Y007180D01*
X006457Y007280D01*
X006510Y007280D01*
X006657Y007341D01*
X006769Y007453D01*
X007269Y007953D01*
X007330Y008100D01*
X007330Y008260D01*
X007330Y009514D01*
X007596Y009780D01*
X008730Y009780D01*
X008730Y009426D01*
X008779Y009309D01*
X008794Y009293D01*
X008788Y009280D01*
X008561Y009280D01*
X008340Y009189D01*
X008171Y009020D01*
X008080Y008799D01*
X008080Y008561D01*
X008171Y008340D01*
X008280Y008231D01*
X008280Y007100D01*
X008341Y006953D01*
X008453Y006841D01*
X008600Y006780D01*
X008914Y006780D01*
X008986Y006750D01*
X009374Y006750D01*
X009430Y006773D01*
X009486Y006750D01*
X009874Y006750D01*
X009991Y006799D01*
X010081Y006889D01*
X010082Y006890D01*
X010180Y006890D01*
X010278Y006890D01*
X010279Y006889D01*
X010369Y006799D01*
X010486Y006750D01*
X010874Y006750D01*
X010930Y006773D01*
X010986Y006750D01*
X011280Y006750D01*
X011280Y006346D01*
X011264Y006330D01*
X008100Y006330D01*
X007953Y006269D01*
X007453Y005769D01*
X007341Y005657D01*
X007280Y005510D01*
X007280Y003346D01*
X007014Y003080D01*
X006457Y003080D01*
X006357Y003180D01*
X006506Y003329D01*
X006600Y003557D01*
X006600Y003803D01*
X006506Y004031D01*
X006331Y004206D01*
X006207Y004257D01*
X006232Y004269D01*
X006293Y004314D01*
X006346Y004367D01*
X006391Y004428D01*
X006425Y004496D01*
X006448Y004568D01*
X006460Y004642D01*
X006460Y004660D01*
X005700Y004660D01*
X005700Y004700D01*
X006460Y004700D01*
X006460Y004718D01*
X006448Y004792D01*
X006425Y004864D01*
X006391Y004932D01*
X006346Y004993D01*
X006293Y005046D01*
X006232Y005091D01*
X006207Y005103D01*
X006331Y005154D01*
X006506Y005329D01*
X006539Y005411D02*
X007280Y005411D01*
X007280Y005252D02*
X006429Y005252D01*
X006226Y005094D02*
X007280Y005094D01*
X007280Y004935D02*
X006388Y004935D01*
X006451Y004777D02*
X007280Y004777D01*
X007280Y004618D02*
X006456Y004618D01*
X006406Y004460D02*
X007280Y004460D01*
X007280Y004301D02*
X006275Y004301D01*
X006394Y004143D02*
X007280Y004143D01*
X007280Y003984D02*
X006525Y003984D01*
X006591Y003826D02*
X007280Y003826D01*
X007280Y003667D02*
X006600Y003667D01*
X006580Y003509D02*
X007280Y003509D01*
X007280Y003350D02*
X006514Y003350D01*
X006368Y003192D02*
X007126Y003192D01*
X007180Y002680D02*
X007680Y003180D01*
X007680Y005430D01*
X008180Y005930D01*
X011430Y005930D01*
X011680Y006180D01*
X011680Y007470D01*
X012180Y007470D02*
X012180Y005930D01*
X011680Y005430D01*
X008430Y005430D01*
X008180Y005180D01*
X008180Y002180D01*
X007680Y001680D01*
X005680Y001680D01*
X004905Y002082D02*
X003180Y002082D01*
X003180Y001924D02*
X004810Y001924D01*
X004760Y001765D02*
X003180Y001765D01*
X003180Y001607D02*
X004760Y001607D01*
X004805Y001448D02*
X003180Y001448D01*
X003180Y001290D02*
X004894Y001290D01*
X005085Y001131D02*
X003180Y001131D01*
X003180Y000973D02*
X009711Y000973D01*
X009612Y001131D02*
X006275Y001131D01*
X007783Y001290D02*
X009560Y001290D01*
X009346Y001448D02*
X008014Y001448D01*
X008172Y001607D02*
X009188Y001607D01*
X009029Y001765D02*
X008331Y001765D01*
X008489Y001924D02*
X008871Y001924D01*
X008788Y002082D02*
X008572Y002082D01*
X008580Y002241D02*
X008780Y002241D01*
X008780Y002399D02*
X008580Y002399D01*
X008580Y002558D02*
X008721Y002558D01*
X008593Y002716D02*
X008580Y002716D01*
X009180Y002680D02*
X009180Y002180D01*
X009680Y001680D01*
X010180Y001680D01*
X011180Y001680D02*
X011180Y001180D01*
X009926Y000814D02*
X003180Y000814D01*
X002180Y001180D02*
X001180Y001180D01*
X001180Y002180D01*
X003180Y002241D02*
X004943Y002241D01*
X004825Y002399D02*
X003180Y002399D01*
X003180Y002558D02*
X004760Y002558D01*
X004760Y002716D02*
X003180Y002716D01*
X003180Y002875D02*
X004789Y002875D01*
X004856Y003033D02*
X003180Y003033D01*
X003180Y003192D02*
X004992Y003192D01*
X004846Y003350D02*
X003180Y003350D01*
X003180Y003509D02*
X004780Y003509D01*
X004760Y003667D02*
X003180Y003667D01*
X003180Y003826D02*
X004769Y003826D01*
X004835Y003984D02*
X003180Y003984D01*
X003180Y004143D02*
X004966Y004143D01*
X005085Y004301D02*
X003180Y004301D01*
X003180Y004460D02*
X004954Y004460D01*
X004904Y004618D02*
X003180Y004618D01*
X003180Y004777D02*
X004909Y004777D01*
X004972Y004935D02*
X003180Y004935D01*
X003180Y005094D02*
X005134Y005094D01*
X004931Y005252D02*
X003180Y005252D01*
X003180Y005411D02*
X004384Y005411D01*
X004225Y005569D02*
X003180Y005569D01*
X003180Y005728D02*
X004067Y005728D01*
X003908Y005886D02*
X003180Y005886D01*
X003180Y006045D02*
X003803Y006045D01*
X003780Y006203D02*
X003180Y006203D01*
X003180Y006362D02*
X003780Y006362D01*
X003780Y006520D02*
X003180Y006520D01*
X003180Y006679D02*
X003780Y006679D01*
X003780Y006837D02*
X003180Y006837D01*
X003180Y006996D02*
X003780Y006996D01*
X003780Y007154D02*
X003180Y007154D01*
X003180Y007313D02*
X003780Y007313D01*
X003780Y007471D02*
X003180Y007471D01*
X003180Y007630D02*
X003780Y007630D01*
X003780Y007788D02*
X003180Y007788D01*
X003180Y007947D02*
X003780Y007947D01*
X003780Y008105D02*
X003180Y008105D01*
X003180Y008264D02*
X003780Y008264D01*
X003780Y008422D02*
X003180Y008422D01*
X003180Y008581D02*
X003780Y008581D01*
X003780Y008739D02*
X003180Y008739D01*
X003180Y008898D02*
X003780Y008898D01*
X003780Y009056D02*
X003180Y009056D01*
X003180Y009215D02*
X003780Y009215D01*
X003827Y009373D02*
X003180Y009373D01*
X003180Y009532D02*
X003966Y009532D01*
X003953Y009519D02*
X003953Y009519D01*
X004124Y009690D02*
X003180Y009690D01*
X003180Y009849D02*
X004283Y009849D01*
X004441Y010007D02*
X003180Y010007D01*
X003180Y010166D02*
X004600Y010166D01*
X004758Y010324D02*
X003180Y010324D01*
X003180Y010483D02*
X004917Y010483D01*
X005075Y010641D02*
X003180Y010641D01*
X003180Y010800D02*
X005234Y010800D01*
X005392Y010958D02*
X003180Y010958D01*
X003180Y011117D02*
X005551Y011117D01*
X005709Y011275D02*
X004470Y011275D01*
X004090Y011275D02*
X004010Y011275D01*
X004010Y011120D02*
X003786Y011120D01*
X003741Y011132D01*
X003699Y011156D01*
X003666Y011189D01*
X003642Y011231D01*
X003630Y011276D01*
X003630Y011500D01*
X004010Y011500D01*
X004010Y011120D01*
X003630Y011275D02*
X003180Y011275D01*
X003180Y011434D02*
X003630Y011434D01*
X003630Y011592D02*
X003180Y011592D01*
X003180Y011751D02*
X003630Y011751D01*
X003534Y011909D02*
X003180Y011909D01*
X003180Y012068D02*
X003490Y012068D01*
X003490Y012226D02*
X003180Y012226D01*
X003180Y012385D02*
X003490Y012385D01*
X003490Y012543D02*
X003180Y012543D01*
X003180Y012702D02*
X003522Y012702D01*
X003698Y012860D02*
X003180Y012860D01*
X003180Y013019D02*
X003953Y013019D01*
X003823Y012889D02*
X003823Y012889D01*
X004050Y012550D02*
X004430Y012930D01*
X004930Y012930D01*
X005180Y013180D01*
X005182Y013182D01*
X005182Y014152D01*
X005180Y014151D01*
X005182Y014152D02*
X005182Y014678D01*
X005180Y014680D01*
X005680Y015180D01*
X029680Y015180D01*
X029680Y010180D01*
X030280Y010166D02*
X031580Y010166D01*
X031590Y010324D02*
X030270Y010324D01*
X030204Y010483D02*
X031656Y010483D01*
X031792Y010641D02*
X030080Y010641D01*
X030080Y010800D02*
X036234Y010800D01*
X036280Y010958D02*
X030080Y010958D01*
X030080Y011117D02*
X036189Y011117D01*
X036123Y011275D02*
X030080Y011275D01*
X030080Y011434D02*
X036115Y011434D01*
X036115Y011592D02*
X030080Y011592D01*
X030080Y011751D02*
X036115Y011751D01*
X036115Y011909D02*
X030080Y011909D01*
X030080Y012068D02*
X036125Y012068D01*
X036190Y012226D02*
X030080Y012226D01*
X030080Y012385D02*
X036330Y012385D01*
X037061Y012385D02*
X038264Y012385D01*
X038264Y012543D02*
X030080Y012543D01*
X030080Y012702D02*
X037956Y012702D01*
X037886Y012860D02*
X037829Y012860D01*
X037834Y012881D02*
X037834Y013122D01*
X037397Y013122D01*
X037397Y012724D01*
X037678Y012724D01*
X037724Y012737D01*
X037765Y012760D01*
X037798Y012794D01*
X037822Y012835D01*
X037834Y012881D01*
X037834Y013019D02*
X037886Y013019D01*
X037886Y013177D02*
X037397Y013177D01*
X037397Y013122D02*
X037397Y013238D01*
X037282Y013238D01*
X037282Y013636D01*
X037001Y013636D01*
X036955Y013623D01*
X036914Y013600D01*
X036880Y013566D01*
X036857Y013525D01*
X036844Y013479D01*
X036844Y013238D01*
X037282Y013238D01*
X037282Y013122D01*
X037397Y013122D01*
X037397Y013019D02*
X037282Y013019D01*
X037282Y013122D02*
X037282Y012724D01*
X037001Y012724D01*
X036955Y012737D01*
X036914Y012760D01*
X036880Y012794D01*
X036857Y012835D01*
X036844Y012881D01*
X036844Y013122D01*
X037282Y013122D01*
X037282Y013177D02*
X030080Y013177D01*
X030080Y013019D02*
X036844Y013019D01*
X036850Y012860D02*
X030080Y012860D01*
X029280Y012860D02*
X028538Y012860D01*
X028580Y012702D02*
X029280Y012702D01*
X029280Y012543D02*
X028580Y012543D01*
X028580Y012385D02*
X029280Y012385D01*
X029280Y012226D02*
X028580Y012226D01*
X028580Y012068D02*
X029280Y012068D01*
X029280Y011909D02*
X028580Y011909D01*
X028580Y011751D02*
X029280Y011751D01*
X029280Y011592D02*
X028580Y011592D01*
X028580Y011434D02*
X029280Y011434D01*
X029280Y011275D02*
X028580Y011275D01*
X028580Y011117D02*
X029280Y011117D01*
X029280Y010958D02*
X028580Y010958D01*
X028580Y010800D02*
X029280Y010800D01*
X029280Y010641D02*
X028580Y010641D01*
X028580Y010483D02*
X029156Y010483D01*
X029090Y010324D02*
X028580Y010324D01*
X028580Y010166D02*
X029080Y010166D01*
X029102Y010007D02*
X028580Y010007D01*
X028580Y009849D02*
X029168Y009849D01*
X029321Y009690D02*
X028580Y009690D01*
X028644Y009532D02*
X040632Y009532D01*
X040491Y009690D02*
X032539Y009690D01*
X031821Y009690D02*
X030039Y009690D01*
X030192Y009849D02*
X031668Y009849D01*
X031602Y010007D02*
X030258Y010007D01*
X032180Y010180D02*
X036180Y010180D01*
X036680Y010680D01*
X036680Y011680D01*
X036690Y011670D01*
X036695Y011670D01*
X037680Y011670D02*
X037680Y011670D01*
X037680Y010970D01*
X037680Y011670D01*
X037680Y011592D02*
X037680Y011592D01*
X037680Y011434D02*
X037680Y011434D01*
X037680Y011275D02*
X037680Y011275D01*
X037680Y011117D02*
X037680Y011117D01*
X038009Y011117D02*
X038157Y011117D01*
X038264Y010958D02*
X037080Y010958D01*
X037085Y010800D02*
X038264Y010800D01*
X038264Y010641D02*
X037095Y010641D01*
X037040Y010483D02*
X038319Y010483D01*
X038470Y010324D02*
X036890Y010324D01*
X036907Y010341D02*
X036907Y010341D01*
X036731Y010166D02*
X038629Y010166D01*
X038787Y010007D02*
X036573Y010007D01*
X036414Y009849D02*
X038946Y009849D01*
X039180Y010180D02*
X041129Y010180D01*
X041180Y010129D01*
X041894Y010166D02*
X043929Y010166D01*
X043929Y010229D02*
X043929Y009948D01*
X043941Y009902D01*
X043965Y009861D01*
X043999Y009827D01*
X044040Y009804D01*
X044085Y009791D01*
X044288Y009791D01*
X044288Y010228D01*
X044288Y010229D02*
X043929Y010229D01*
X043929Y010324D02*
X041927Y010324D01*
X042000Y010483D02*
X043929Y010483D01*
X043973Y010641D02*
X042000Y010641D01*
X042000Y010800D02*
X044163Y010800D01*
X044163Y010958D02*
X041973Y010958D01*
X041894Y011117D02*
X044163Y011117D01*
X044163Y011275D02*
X041894Y011275D01*
X041894Y011434D02*
X044163Y011434D01*
X044234Y011592D02*
X041894Y011592D01*
X041822Y011751D02*
X047538Y011751D01*
X047466Y011592D02*
X045126Y011592D01*
X044680Y011113D02*
X046247Y011113D01*
X047180Y010180D01*
X047129Y010180D01*
X048180Y010129D01*
X048894Y010166D02*
X050780Y010166D01*
X050780Y010324D02*
X048927Y010324D01*
X049000Y010483D02*
X050780Y010483D01*
X050780Y010641D02*
X049000Y010641D01*
X049000Y010800D02*
X050780Y010800D01*
X050780Y010958D02*
X048973Y010958D01*
X048894Y011117D02*
X050780Y011117D01*
X050780Y011275D02*
X048894Y011275D01*
X048894Y011434D02*
X050780Y011434D01*
X050780Y011592D02*
X048894Y011592D01*
X048822Y011751D02*
X050780Y011751D01*
X050780Y011909D02*
X048580Y011909D01*
X048580Y012068D02*
X050780Y012068D01*
X050780Y012226D02*
X050405Y012226D01*
X050200Y012226D02*
X050160Y012226D01*
X050160Y012200D02*
X050160Y012660D01*
X049700Y012660D01*
X049700Y012481D01*
X049981Y012200D01*
X050160Y012200D01*
X049955Y012226D02*
X049405Y012226D01*
X049379Y012200D02*
X049200Y012200D01*
X049200Y012660D01*
X049660Y012660D01*
X049660Y012481D01*
X049379Y012200D01*
X049200Y012226D02*
X049160Y012226D01*
X049160Y012385D02*
X049200Y012385D01*
X049200Y012543D02*
X049160Y012543D01*
X049160Y012702D02*
X049200Y012702D01*
X049200Y012700D02*
X049200Y013160D01*
X049379Y013160D01*
X049660Y012879D01*
X049660Y012700D01*
X049200Y012700D01*
X049200Y012860D02*
X049160Y012860D01*
X049160Y013019D02*
X049200Y013019D01*
X049520Y013019D02*
X049840Y013019D01*
X049700Y012860D02*
X049660Y012860D01*
X049660Y012702D02*
X049700Y012702D01*
X049700Y012543D02*
X049660Y012543D01*
X049563Y012385D02*
X049797Y012385D01*
X050160Y012385D02*
X050200Y012385D01*
X050200Y012543D02*
X050160Y012543D01*
X050160Y012702D02*
X050200Y012702D01*
X050200Y012860D02*
X050160Y012860D01*
X050160Y013019D02*
X050200Y013019D01*
X050520Y013019D02*
X050698Y013019D01*
X050857Y013177D02*
X048503Y013177D01*
X048662Y013019D02*
X048840Y013019D01*
X047857Y013177D02*
X047580Y013177D01*
X047549Y013336D02*
X053408Y013336D01*
X053408Y013494D02*
X047432Y013494D01*
X047273Y013653D02*
X053408Y013653D01*
X053408Y013811D02*
X047115Y013811D01*
X046956Y013970D02*
X053408Y013970D01*
X053408Y014128D02*
X039580Y014128D01*
X039580Y013970D02*
X042404Y013970D01*
X042245Y013811D02*
X039580Y013811D01*
X039580Y013653D02*
X042087Y013653D01*
X041928Y013494D02*
X039580Y013494D01*
X039580Y013336D02*
X041811Y013336D01*
X041780Y013177D02*
X041503Y013177D01*
X041662Y013019D02*
X041698Y013019D01*
X042180Y013180D02*
X042680Y013680D01*
X043680Y013680D01*
X044180Y013180D01*
X044180Y012680D01*
X043655Y012385D02*
X043563Y012385D01*
X043405Y012226D02*
X043814Y012226D01*
X043200Y012226D02*
X043160Y012226D01*
X043160Y012385D02*
X043200Y012385D01*
X043200Y012543D02*
X043160Y012543D01*
X043160Y012700D02*
X043160Y013160D01*
X042981Y013160D01*
X042751Y012930D01*
X042623Y013057D01*
X042846Y013280D01*
X043514Y013280D01*
X043737Y013057D01*
X043609Y012930D01*
X043379Y013160D01*
X043200Y013160D01*
X043200Y012700D01*
X043160Y012700D01*
X043160Y012702D02*
X043200Y012702D01*
X043200Y012860D02*
X043160Y012860D01*
X043160Y013019D02*
X043200Y013019D01*
X043520Y013019D02*
X043698Y013019D01*
X043617Y013177D02*
X042743Y013177D01*
X042662Y013019D02*
X042840Y013019D01*
X042180Y013180D02*
X042180Y012680D01*
X042705Y012385D02*
X042797Y012385D01*
X042955Y012226D02*
X042546Y012226D01*
X041814Y012226D02*
X041580Y012226D01*
X041580Y012068D02*
X047780Y012068D01*
X047780Y012226D02*
X047546Y012226D01*
X046814Y012226D02*
X046405Y012226D01*
X046200Y012226D02*
X046160Y012226D01*
X046160Y012385D02*
X046200Y012385D01*
X046200Y012543D02*
X046160Y012543D01*
X046160Y012700D02*
X046160Y013160D01*
X045981Y013160D01*
X045751Y012930D01*
X045623Y013057D01*
X045846Y013280D01*
X046514Y013280D01*
X046737Y013057D01*
X046609Y012930D01*
X046379Y013160D01*
X046200Y013160D01*
X046200Y012700D01*
X046160Y012700D01*
X046160Y012702D02*
X046200Y012702D01*
X046200Y012860D02*
X046160Y012860D01*
X046160Y013019D02*
X046200Y013019D01*
X046520Y013019D02*
X046698Y013019D01*
X046617Y013177D02*
X045743Y013177D01*
X045662Y013019D02*
X045840Y013019D01*
X045180Y013180D02*
X045680Y013680D01*
X046680Y013680D01*
X047180Y013180D01*
X047180Y012680D01*
X046655Y012385D02*
X046563Y012385D01*
X045955Y012226D02*
X045546Y012226D01*
X045705Y012385D02*
X045797Y012385D01*
X045180Y012680D02*
X045180Y013180D01*
X044811Y013336D02*
X044549Y013336D01*
X044580Y013177D02*
X044780Y013177D01*
X044698Y013019D02*
X044662Y013019D01*
X044432Y013494D02*
X044928Y013494D01*
X045087Y013653D02*
X044273Y013653D01*
X044115Y013811D02*
X045245Y013811D01*
X045404Y013970D02*
X043956Y013970D01*
X040857Y013177D02*
X039580Y013177D01*
X039580Y013019D02*
X040698Y013019D01*
X040600Y012860D02*
X039580Y012860D01*
X039580Y012702D02*
X040600Y012702D01*
X040600Y012543D02*
X039580Y012543D01*
X039580Y012385D02*
X040655Y012385D01*
X040780Y012226D02*
X039580Y012226D01*
X039580Y012068D02*
X040780Y012068D01*
X040780Y011909D02*
X039580Y011909D01*
X039580Y011751D02*
X040538Y011751D01*
X040466Y011592D02*
X039580Y011592D01*
X039580Y011434D02*
X040368Y011434D01*
X040209Y011275D02*
X039651Y011275D01*
X039809Y011117D02*
X040051Y011117D01*
X040180Y010680D02*
X040680Y011180D01*
X041129Y011180D01*
X041180Y011231D01*
X041180Y012680D01*
X041580Y011909D02*
X047780Y011909D01*
X048580Y012226D02*
X048955Y012226D01*
X048797Y012385D02*
X048705Y012385D01*
X048180Y012680D02*
X048180Y011231D01*
X047466Y011275D02*
X046651Y011275D01*
X046809Y011117D02*
X047466Y011117D01*
X047387Y010958D02*
X046968Y010958D01*
X047126Y010800D02*
X047360Y010800D01*
X047360Y010641D02*
X047285Y010641D01*
X046470Y010324D02*
X045571Y010324D01*
X045571Y010166D02*
X046629Y010166D01*
X046766Y010007D02*
X045571Y010007D01*
X045546Y009849D02*
X046894Y009849D01*
X047491Y009690D02*
X045408Y009690D01*
X045330Y009532D02*
X047632Y009532D01*
X048728Y009532D02*
X050780Y009532D01*
X050780Y009690D02*
X048869Y009690D01*
X048894Y009849D02*
X050780Y009849D01*
X050780Y010007D02*
X048894Y010007D01*
X050780Y009373D02*
X045330Y009373D01*
X045274Y009215D02*
X050780Y009215D01*
X050780Y009056D02*
X045122Y009056D01*
X044963Y008898D02*
X050780Y008898D01*
X050780Y008739D02*
X044805Y008739D01*
X044632Y008581D02*
X050780Y008581D01*
X050780Y008422D02*
X025602Y008422D01*
X025602Y008478D02*
X025990Y008478D01*
X025990Y008749D01*
X025978Y008795D01*
X025954Y008836D01*
X025920Y008869D01*
X025879Y008893D01*
X025834Y008905D01*
X025602Y008905D01*
X025602Y008478D01*
X025602Y008581D02*
X025506Y008581D01*
X025506Y008739D02*
X025602Y008739D01*
X025602Y008898D02*
X025506Y008898D01*
X025206Y009056D02*
X027988Y009056D01*
X027836Y009215D02*
X025206Y009215D01*
X025253Y009373D02*
X027780Y009373D01*
X027780Y009532D02*
X025958Y009532D01*
X025990Y009690D02*
X027780Y009690D01*
X027780Y009849D02*
X025990Y009849D01*
X025990Y009978D02*
X025990Y010249D01*
X025978Y010295D01*
X025954Y010336D01*
X025920Y010369D01*
X025879Y010393D01*
X025834Y010405D01*
X025602Y010405D01*
X025602Y009978D01*
X025990Y009978D01*
X025990Y010007D02*
X027780Y010007D01*
X027780Y010166D02*
X025990Y010166D01*
X025961Y010324D02*
X027780Y010324D01*
X027780Y010483D02*
X025257Y010483D01*
X025506Y010324D02*
X025602Y010324D01*
X025602Y010166D02*
X025506Y010166D01*
X025506Y010007D02*
X025602Y010007D01*
X025602Y009849D02*
X025506Y009849D01*
X025506Y009690D02*
X025602Y009690D01*
X025602Y009532D02*
X025506Y009532D01*
X024806Y009180D02*
X023430Y009180D01*
X023180Y009430D01*
X023180Y010180D01*
X024180Y011180D01*
X024180Y011680D01*
X023680Y012180D01*
X023180Y012180D01*
X022680Y011680D01*
X022680Y011062D01*
X022180Y011062D02*
X022180Y011680D01*
X023680Y013180D01*
X024629Y013180D01*
X025731Y013180D02*
X027680Y013180D01*
X028180Y012680D01*
X028180Y009430D01*
X028680Y008930D01*
X044430Y008930D01*
X044930Y009430D01*
X044930Y010123D01*
X045054Y010247D01*
X044324Y010166D02*
X044288Y010166D01*
X044288Y010007D02*
X044324Y010007D01*
X044324Y009849D02*
X044288Y009849D01*
X044530Y009690D02*
X041869Y009690D01*
X041894Y009849D02*
X043977Y009849D01*
X043929Y010007D02*
X041894Y010007D01*
X041728Y009532D02*
X044466Y009532D01*
X044307Y009373D02*
X028803Y009373D01*
X028147Y008898D02*
X025863Y008898D01*
X025990Y008739D02*
X028305Y008739D01*
X028478Y008581D02*
X025990Y008581D01*
X025990Y008264D02*
X050698Y008264D01*
X050539Y008105D02*
X025988Y008105D01*
X024806Y008430D02*
X024806Y009180D01*
X024806Y009930D01*
X024230Y010007D02*
X023580Y010007D01*
X023580Y009849D02*
X024230Y009849D01*
X024230Y009690D02*
X023580Y009690D01*
X023731Y010166D02*
X024230Y010166D01*
X024245Y010324D02*
X023890Y010324D01*
X024048Y010483D02*
X024355Y010483D01*
X024207Y010641D02*
X027780Y010641D01*
X027780Y010800D02*
X024365Y010800D01*
X024521Y010958D02*
X027780Y010958D01*
X027780Y011117D02*
X024580Y011117D01*
X024580Y011275D02*
X027780Y011275D01*
X027780Y011434D02*
X024580Y011434D01*
X024580Y011592D02*
X027780Y011592D01*
X027780Y011751D02*
X024580Y011751D01*
X024517Y011909D02*
X027780Y011909D01*
X027780Y012068D02*
X024358Y012068D01*
X024200Y012226D02*
X027780Y012226D01*
X027780Y012385D02*
X024041Y012385D01*
X024105Y012543D02*
X023849Y012543D01*
X023767Y012702D02*
X024003Y012702D01*
X025153Y012543D02*
X025207Y012543D01*
X026255Y012543D02*
X027751Y012543D01*
X027593Y012702D02*
X026357Y012702D01*
X028249Y013177D02*
X029280Y013177D01*
X029280Y013019D02*
X028407Y013019D01*
X028090Y013336D02*
X029280Y013336D01*
X029280Y013494D02*
X027932Y013494D01*
X029280Y013653D02*
X026360Y013653D01*
X026261Y013811D02*
X029280Y013811D01*
X030080Y013811D02*
X030806Y013811D01*
X030740Y013970D02*
X030080Y013970D01*
X030080Y014128D02*
X030732Y014128D01*
X030732Y014287D02*
X030080Y014287D01*
X030080Y014445D02*
X030786Y014445D01*
X030852Y014604D02*
X030080Y014604D01*
X030080Y014762D02*
X031005Y014762D01*
X032083Y014762D02*
X038532Y014762D01*
X038691Y014604D02*
X032236Y014604D01*
X032302Y014445D02*
X038780Y014445D01*
X038780Y014287D02*
X032356Y014287D01*
X032356Y014128D02*
X038780Y014128D01*
X038780Y013970D02*
X032347Y013970D01*
X032281Y013811D02*
X038780Y013811D01*
X037950Y013653D02*
X032192Y013653D01*
X032034Y013494D02*
X036848Y013494D01*
X036844Y013336D02*
X030080Y013336D01*
X030080Y013494D02*
X031054Y013494D01*
X030895Y013653D02*
X030080Y013653D01*
X025201Y013811D02*
X025159Y013811D01*
X021430Y013129D02*
X021430Y012680D01*
X020997Y012247D01*
X020554Y012247D01*
X020697Y012860D02*
X020744Y012860D01*
X020744Y013019D02*
X020697Y013019D01*
X020697Y013177D02*
X020744Y013177D01*
X020744Y013336D02*
X020697Y013336D01*
X020680Y013494D02*
X020744Y013494D01*
X020750Y013653D02*
X020566Y013653D01*
X020180Y013113D02*
X019680Y013613D01*
X018721Y013613D01*
X019180Y013180D02*
X018180Y013180D01*
X021379Y013180D02*
X021430Y013129D01*
X013955Y014762D02*
X009408Y014762D01*
X009650Y014604D02*
X009944Y014604D01*
X010163Y014604D02*
X010200Y014604D01*
X010200Y014445D02*
X010163Y014445D01*
X010163Y014287D02*
X010200Y014287D01*
X010200Y014128D02*
X010163Y014128D01*
X010163Y013970D02*
X010200Y013970D01*
X010200Y013811D02*
X010163Y013811D01*
X009802Y013811D02*
X009744Y013811D01*
X010561Y013811D02*
X010802Y013811D01*
X010705Y013970D02*
X010658Y013970D01*
X011163Y013970D02*
X011200Y013970D01*
X011200Y014128D02*
X011163Y014128D01*
X011163Y014287D02*
X011200Y014287D01*
X011200Y014445D02*
X011163Y014445D01*
X011163Y014604D02*
X011200Y014604D01*
X011419Y014604D02*
X011944Y014604D01*
X012163Y014604D02*
X012200Y014604D01*
X012200Y014445D02*
X012163Y014445D01*
X012163Y014287D02*
X012200Y014287D01*
X012200Y014128D02*
X012163Y014128D01*
X012163Y013970D02*
X012200Y013970D01*
X012200Y013811D02*
X012163Y013811D01*
X011802Y013811D02*
X011561Y013811D01*
X011658Y013970D02*
X011705Y013970D01*
X011200Y013811D02*
X011163Y013811D01*
X010689Y014287D02*
X010674Y014287D01*
X010599Y014445D02*
X010764Y014445D01*
X010944Y014604D02*
X010419Y014604D01*
X011599Y014445D02*
X011764Y014445D01*
X011689Y014287D02*
X011674Y014287D01*
X012419Y014604D02*
X012944Y014604D01*
X012764Y014445D02*
X012599Y014445D01*
X012674Y014287D02*
X012689Y014287D01*
X012705Y013970D02*
X012658Y013970D01*
X012561Y013811D02*
X012802Y013811D01*
X013286Y013653D02*
X013762Y013653D01*
X013619Y013811D02*
X013561Y013811D01*
X009182Y014152D02*
X009182Y012182D01*
X009180Y012180D01*
X008580Y012226D02*
X007575Y012226D01*
X007520Y012171D02*
X007689Y012340D01*
X007780Y012561D01*
X007780Y012799D01*
X007689Y013020D01*
X007582Y013127D01*
X007582Y013633D01*
X007733Y013784D01*
X007764Y013860D01*
X007793Y013820D01*
X007849Y013763D01*
X007914Y013716D01*
X007986Y013680D01*
X008062Y013655D01*
X008141Y013642D01*
X008163Y013642D01*
X008163Y014134D01*
X008200Y014134D01*
X008200Y013642D01*
X008222Y013642D01*
X008301Y013655D01*
X008377Y013680D01*
X008449Y013716D01*
X008514Y013763D01*
X008571Y013820D01*
X008599Y013860D01*
X008631Y013784D01*
X008782Y013633D01*
X008782Y012630D01*
X008671Y012520D01*
X008580Y012299D01*
X008580Y012080D01*
X006600Y012080D01*
X006453Y012019D01*
X005908Y011473D01*
X005940Y011551D01*
X005940Y011874D01*
X006407Y012341D01*
X006519Y012453D01*
X006580Y012600D01*
X006580Y013632D01*
X006682Y013733D01*
X006782Y013633D01*
X006782Y013130D01*
X006671Y013020D01*
X006580Y012799D01*
X006580Y012561D01*
X006671Y012340D01*
X006840Y012171D01*
X007061Y012080D01*
X007299Y012080D01*
X007520Y012171D01*
X007707Y012385D02*
X008615Y012385D01*
X008694Y012543D02*
X007773Y012543D01*
X007780Y012702D02*
X008782Y012702D01*
X008782Y012860D02*
X007755Y012860D01*
X007689Y013019D02*
X008782Y013019D01*
X008782Y013177D02*
X007582Y013177D01*
X007582Y013336D02*
X008782Y013336D01*
X008782Y013494D02*
X007582Y013494D01*
X007601Y013653D02*
X008077Y013653D01*
X008163Y013653D02*
X008200Y013653D01*
X008286Y013653D02*
X008762Y013653D01*
X008619Y013811D02*
X008561Y013811D01*
X008200Y013811D02*
X008163Y013811D01*
X008163Y013970D02*
X008200Y013970D01*
X008200Y014128D02*
X008163Y014128D01*
X008163Y014171D02*
X008163Y014662D01*
X008141Y014662D01*
X008062Y014650D01*
X007986Y014625D01*
X007914Y014589D01*
X007849Y014541D01*
X007793Y014485D01*
X007764Y014445D01*
X007733Y014521D01*
X007550Y014703D01*
X007365Y014780D01*
X008998Y014780D01*
X008813Y014703D01*
X008631Y014521D01*
X008599Y014445D01*
X008571Y014485D01*
X008514Y014541D01*
X008449Y014589D01*
X008377Y014625D01*
X008301Y014650D01*
X008222Y014662D01*
X008200Y014662D01*
X008200Y014171D01*
X008163Y014171D01*
X008163Y014287D02*
X008200Y014287D01*
X008200Y014445D02*
X008163Y014445D01*
X008163Y014604D02*
X008200Y014604D01*
X008419Y014604D02*
X008713Y014604D01*
X008955Y014762D02*
X007408Y014762D01*
X007650Y014604D02*
X007944Y014604D01*
X007182Y014152D02*
X007182Y012682D01*
X007180Y012680D01*
X006580Y012702D02*
X006580Y012702D01*
X006580Y012860D02*
X006605Y012860D01*
X006580Y013019D02*
X006671Y013019D01*
X006580Y013177D02*
X006782Y013177D01*
X006782Y013336D02*
X006580Y013336D01*
X006580Y013494D02*
X006782Y013494D01*
X006762Y013653D02*
X006601Y013653D01*
X007744Y013811D02*
X007802Y013811D01*
X006182Y014152D02*
X006180Y014151D01*
X006180Y012680D01*
X005430Y011930D01*
X005325Y011930D01*
X005330Y011702D01*
X005940Y011751D02*
X006185Y011751D01*
X006343Y011909D02*
X005975Y011909D01*
X006133Y012068D02*
X006570Y012068D01*
X006785Y012226D02*
X006292Y012226D01*
X006450Y012385D02*
X006653Y012385D01*
X006587Y012543D02*
X006556Y012543D01*
X004050Y012550D02*
X004050Y012320D01*
X005940Y011592D02*
X006026Y011592D01*
X006930Y011180D02*
X004680Y008930D01*
X004680Y006930D01*
X004930Y006680D01*
X005680Y006680D01*
X006585Y006520D02*
X011280Y006520D01*
X011280Y006362D02*
X006519Y006362D01*
X006380Y006203D02*
X007887Y006203D01*
X007729Y006045D02*
X006492Y006045D01*
X006566Y005886D02*
X007570Y005886D01*
X007412Y005728D02*
X006600Y005728D01*
X006600Y005569D02*
X007305Y005569D01*
X009180Y004776D02*
X009225Y004731D01*
X010680Y004731D01*
X012180Y004731D01*
X013731Y004731D01*
X015680Y006680D01*
X015680Y008180D01*
X016180Y007298D02*
X016180Y006180D01*
X013180Y003180D01*
X013180Y001680D01*
X012200Y001700D02*
X012160Y001700D01*
X012160Y002460D01*
X012142Y002460D01*
X012068Y002448D01*
X011996Y002425D01*
X011928Y002391D01*
X011867Y002346D01*
X011814Y002293D01*
X011769Y002232D01*
X011757Y002207D01*
X011706Y002331D01*
X011531Y002506D01*
X011303Y002600D01*
X011280Y002600D01*
X011280Y002799D01*
X011190Y003016D01*
X011255Y003043D01*
X011345Y003133D01*
X011394Y003250D01*
X011394Y004007D01*
X011345Y004125D01*
X011290Y004180D01*
X011345Y004235D01*
X011385Y004331D01*
X011475Y004331D01*
X011515Y004235D01*
X011605Y004145D01*
X011704Y004104D01*
X011676Y004088D01*
X011642Y004054D01*
X011619Y004013D01*
X011606Y003967D01*
X011606Y003706D01*
X012103Y003706D01*
X012103Y003551D01*
X012257Y003551D01*
X012257Y003134D01*
X012597Y003134D01*
X012643Y003146D01*
X012684Y003170D01*
X012718Y003203D01*
X012741Y003244D01*
X012754Y003290D01*
X012754Y003551D01*
X012257Y003551D01*
X012257Y003706D01*
X012754Y003706D01*
X012754Y003967D01*
X012741Y004013D01*
X012718Y004054D01*
X012684Y004088D01*
X012656Y004104D01*
X012755Y004145D01*
X012845Y004235D01*
X012885Y004331D01*
X013765Y004331D01*
X012841Y003407D01*
X012780Y003260D01*
X012780Y002457D01*
X012654Y002331D01*
X012603Y002207D01*
X012591Y002232D01*
X012546Y002293D01*
X012493Y002346D01*
X012432Y002391D01*
X012364Y002425D01*
X012292Y002448D01*
X012218Y002460D01*
X012200Y002460D01*
X012200Y001700D01*
X012200Y001765D02*
X012160Y001765D01*
X012160Y001924D02*
X012200Y001924D01*
X012200Y002082D02*
X012160Y002082D01*
X012160Y002241D02*
X012200Y002241D01*
X012200Y002399D02*
X012160Y002399D01*
X011945Y002399D02*
X011638Y002399D01*
X011743Y002241D02*
X011776Y002241D01*
X012415Y002399D02*
X012722Y002399D01*
X012780Y002558D02*
X011406Y002558D01*
X011280Y002716D02*
X012780Y002716D01*
X012780Y002875D02*
X011249Y002875D01*
X011232Y003033D02*
X012780Y003033D01*
X012780Y003192D02*
X012706Y003192D01*
X012754Y003350D02*
X012817Y003350D01*
X012754Y003509D02*
X012943Y003509D01*
X013101Y003667D02*
X012257Y003667D01*
X012103Y003667D02*
X011394Y003667D01*
X011394Y003509D02*
X011606Y003509D01*
X011606Y003551D02*
X011606Y003290D01*
X011619Y003244D01*
X011642Y003203D01*
X011676Y003170D01*
X011717Y003146D01*
X011763Y003134D01*
X012103Y003134D01*
X012103Y003551D01*
X011606Y003551D01*
X011606Y003826D02*
X011394Y003826D01*
X011394Y003984D02*
X011611Y003984D01*
X011611Y004143D02*
X011328Y004143D01*
X011372Y004301D02*
X011488Y004301D01*
X012749Y004143D02*
X013577Y004143D01*
X013735Y004301D02*
X012872Y004301D01*
X012749Y003984D02*
X013418Y003984D01*
X013260Y003826D02*
X012754Y003826D01*
X012257Y003509D02*
X012103Y003509D01*
X012103Y003350D02*
X012257Y003350D01*
X012257Y003192D02*
X012103Y003192D01*
X011654Y003192D02*
X011369Y003192D01*
X011394Y003350D02*
X011606Y003350D01*
X010680Y003629D02*
X010680Y002680D01*
X009180Y002680D02*
X009180Y003084D01*
X007180Y002680D02*
X005680Y002680D01*
X012584Y002241D02*
X012617Y002241D01*
X014180Y001680D02*
X014180Y003180D01*
X016680Y005680D01*
X016680Y007298D01*
X017180Y007298D02*
X017180Y005180D01*
X015180Y003180D01*
X015180Y001680D01*
X017180Y002526D02*
X017180Y003180D01*
X016680Y003680D01*
X018180Y004180D02*
X018180Y007298D01*
X018680Y007298D02*
X018680Y004680D01*
X017680Y004680D02*
X017680Y007298D01*
X019180Y007298D02*
X019180Y005180D01*
X019680Y005680D02*
X019680Y007298D01*
X020680Y007298D02*
X020680Y008180D01*
X020180Y008180D01*
X020680Y008680D02*
X021180Y008180D01*
X021180Y007298D01*
X020680Y007154D02*
X020680Y007154D01*
X020680Y006996D02*
X020680Y006996D01*
X020680Y006837D02*
X020680Y006837D01*
X020580Y006679D02*
X020904Y006679D01*
X022180Y006180D02*
X024680Y003680D01*
X025258Y003509D02*
X025286Y003509D01*
X025193Y003350D02*
X025444Y003350D01*
X025315Y003192D02*
X025040Y003192D01*
X024320Y003192D02*
X023513Y003192D01*
X022680Y002680D02*
X022180Y002180D01*
X022648Y002082D02*
X023056Y002082D01*
X026680Y002680D02*
X022680Y006680D01*
X022680Y007298D01*
X023128Y007313D02*
X023522Y007313D01*
X023323Y007471D02*
X023128Y007471D01*
X023128Y007630D02*
X023165Y007630D01*
X023680Y007680D02*
X021180Y010180D01*
X020680Y008680D02*
X010180Y008680D01*
X009680Y008180D01*
X009680Y007470D01*
X010180Y007470D02*
X010180Y007470D01*
X010180Y006890D01*
X010180Y007470D01*
X010180Y007313D02*
X010180Y007313D01*
X010180Y007154D02*
X010180Y007154D01*
X010180Y006996D02*
X010180Y006996D01*
X010030Y006837D02*
X010330Y006837D01*
X011280Y006679D02*
X006600Y006679D01*
X006586Y006837D02*
X008463Y006837D01*
X008323Y006996D02*
X006520Y006996D01*
X006383Y007154D02*
X008280Y007154D01*
X008280Y007313D02*
X006588Y007313D01*
X006787Y007471D02*
X008280Y007471D01*
X008280Y007630D02*
X006945Y007630D01*
X007104Y007788D02*
X008280Y007788D01*
X008280Y007947D02*
X007262Y007947D01*
X007330Y008105D02*
X008280Y008105D01*
X008248Y008264D02*
X007330Y008264D01*
X007330Y008422D02*
X008137Y008422D01*
X008080Y008581D02*
X007330Y008581D01*
X007330Y008739D02*
X008080Y008739D01*
X008121Y008898D02*
X007330Y008898D01*
X007330Y009056D02*
X008207Y009056D01*
X008403Y009215D02*
X007330Y009215D01*
X007330Y009373D02*
X008752Y009373D01*
X008730Y009532D02*
X007347Y009532D01*
X007506Y009690D02*
X008730Y009690D01*
X009180Y009890D02*
X009180Y010180D01*
X007430Y010180D01*
X006930Y009680D01*
X006930Y008180D01*
X006430Y007680D01*
X005680Y007680D01*
X008680Y007180D02*
X008680Y008680D01*
X006180Y008680D02*
X005680Y008680D01*
X006180Y008680D02*
X006180Y009680D01*
X007180Y010680D01*
X009680Y010680D01*
X009680Y009890D01*
X010180Y009890D02*
X010180Y010930D01*
X009930Y011180D01*
X006930Y011180D01*
X004090Y011434D02*
X004010Y011434D01*
X004111Y013177D02*
X003180Y013177D01*
X003180Y013336D02*
X004595Y013336D01*
X004661Y013494D02*
X003180Y013494D01*
X003180Y013653D02*
X004077Y013653D01*
X004163Y013653D02*
X004200Y013653D01*
X004286Y013653D02*
X004762Y013653D01*
X004619Y013811D02*
X004561Y013811D01*
X004200Y013811D02*
X004163Y013811D01*
X004163Y013970D02*
X004200Y013970D01*
X004200Y014128D02*
X004163Y014128D01*
X004163Y014287D02*
X004200Y014287D01*
X004200Y014445D02*
X004163Y014445D01*
X004163Y014604D02*
X004200Y014604D01*
X004419Y014604D02*
X004713Y014604D01*
X004781Y014762D02*
X003180Y014762D01*
X003180Y014604D02*
X003944Y014604D01*
X003764Y014445D02*
X003180Y014445D01*
X003180Y014287D02*
X003689Y014287D01*
X003672Y014128D02*
X003180Y014128D01*
X003180Y013970D02*
X003705Y013970D01*
X003802Y013811D02*
X003180Y013811D01*
X003180Y014921D02*
X004855Y014921D01*
X004953Y015019D02*
X004953Y015019D01*
X005013Y015079D02*
X003180Y015079D01*
X003180Y015238D02*
X005172Y015238D01*
X005330Y015396D02*
X003180Y015396D01*
X010290Y012068D02*
X011570Y012068D01*
X010680Y011180D02*
X010680Y009890D01*
X009180Y007470D02*
X009180Y007180D01*
X008680Y007180D01*
X023102Y006837D02*
X053408Y006837D01*
X053408Y006679D02*
X023247Y006679D01*
X023406Y006520D02*
X053408Y006520D01*
X053408Y006362D02*
X023564Y006362D01*
X023723Y006203D02*
X024375Y006203D01*
X024196Y006045D02*
X023881Y006045D01*
X024040Y005886D02*
X024116Y005886D01*
X024680Y005680D02*
X040680Y005680D01*
X041180Y005180D01*
X041734Y005411D02*
X053408Y005411D01*
X053408Y005569D02*
X041640Y005569D01*
X041426Y005728D02*
X053408Y005728D01*
X053408Y005886D02*
X041040Y005886D01*
X040845Y006045D02*
X053408Y006045D01*
X053408Y006203D02*
X024985Y006203D01*
X023128Y006996D02*
X053408Y006996D01*
X053408Y007154D02*
X023128Y007154D01*
X023680Y007680D02*
X050680Y007680D01*
X051180Y008180D01*
X051180Y012680D01*
X050655Y012385D02*
X050563Y012385D01*
X052180Y012680D02*
X052180Y011231D01*
X052894Y011275D02*
X053408Y011275D01*
X053408Y011117D02*
X052894Y011117D01*
X052973Y010958D02*
X053408Y010958D01*
X053408Y010800D02*
X053000Y010800D01*
X053000Y010641D02*
X053408Y010641D01*
X053408Y010483D02*
X053000Y010483D01*
X052927Y010324D02*
X053408Y010324D01*
X053408Y010166D02*
X052257Y010166D01*
X052103Y010166D02*
X051580Y010166D01*
X051606Y010051D02*
X051606Y009790D01*
X051619Y009744D01*
X051642Y009703D01*
X051676Y009670D01*
X051717Y009646D01*
X051763Y009634D01*
X052103Y009634D01*
X052103Y010051D01*
X051606Y010051D01*
X051606Y010007D02*
X051580Y010007D01*
X051580Y009849D02*
X051606Y009849D01*
X051580Y009690D02*
X051656Y009690D01*
X051580Y009532D02*
X053408Y009532D01*
X053408Y009690D02*
X052704Y009690D01*
X052754Y009849D02*
X053408Y009849D01*
X053408Y010007D02*
X052754Y010007D01*
X052257Y010007D02*
X052103Y010007D01*
X052103Y009849D02*
X052257Y009849D01*
X052257Y009690D02*
X052103Y009690D01*
X051580Y009373D02*
X053408Y009373D01*
X053408Y009215D02*
X051580Y009215D01*
X051580Y009056D02*
X053408Y009056D01*
X053408Y008898D02*
X051580Y008898D01*
X051580Y008739D02*
X053408Y008739D01*
X053408Y008581D02*
X051580Y008581D01*
X051580Y008422D02*
X053408Y008422D01*
X053408Y008264D02*
X051580Y008264D01*
X051580Y008105D02*
X053408Y008105D01*
X053408Y007947D02*
X051512Y007947D01*
X051354Y007788D02*
X053408Y007788D01*
X053408Y007630D02*
X051195Y007630D01*
X051037Y007471D02*
X053408Y007471D01*
X053408Y007313D02*
X050838Y007313D01*
X053408Y005252D02*
X041780Y005252D01*
X041780Y005094D02*
X053408Y005094D01*
X053408Y004935D02*
X041728Y004935D01*
X041625Y004777D02*
X053408Y004777D01*
X053408Y004618D02*
X041391Y004618D01*
X040969Y004618D02*
X040558Y004618D01*
X040716Y004460D02*
X053408Y004460D01*
X053408Y004301D02*
X040875Y004301D01*
X041033Y004143D02*
X053408Y004143D01*
X053408Y003984D02*
X041192Y003984D01*
X041350Y003826D02*
X053408Y003826D01*
X053408Y003667D02*
X041509Y003667D01*
X041580Y003509D02*
X053408Y003509D01*
X053408Y003350D02*
X041580Y003350D01*
X041580Y003192D02*
X044847Y003192D01*
X044684Y003033D02*
X041676Y003033D01*
X041749Y002875D02*
X044611Y002875D01*
X044580Y002716D02*
X041780Y002716D01*
X041779Y002558D02*
X044581Y002558D01*
X044647Y002399D02*
X041713Y002399D01*
X041589Y002241D02*
X044675Y002241D01*
X044516Y002082D02*
X041594Y002082D01*
X041430Y001680D02*
X044680Y001680D01*
X045180Y002180D01*
X045180Y002680D01*
X045780Y002716D02*
X053408Y002716D01*
X053408Y002558D02*
X045779Y002558D01*
X045713Y002399D02*
X053408Y002399D01*
X053408Y002241D02*
X045589Y002241D01*
X045572Y002082D02*
X053408Y002082D01*
X053408Y001924D02*
X045489Y001924D01*
X045331Y001765D02*
X053408Y001765D01*
X053408Y001607D02*
X045172Y001607D01*
X045014Y001448D02*
X053408Y001448D01*
X053408Y001290D02*
X044783Y001290D01*
X041430Y001680D02*
X038430Y004680D01*
X025680Y004680D01*
X025180Y005180D02*
X039430Y005180D01*
X041180Y003430D01*
X041180Y002680D01*
X040145Y002399D02*
X032236Y002399D01*
X032232Y002408D02*
X032004Y002636D01*
X031705Y002760D01*
X031382Y002760D01*
X031084Y002636D01*
X030855Y002408D01*
X030732Y002109D01*
X030732Y001786D01*
X030855Y001488D01*
X031084Y001259D01*
X031382Y001136D01*
X031705Y001136D01*
X032004Y001259D01*
X032232Y001488D01*
X032356Y001786D01*
X032356Y002109D01*
X032232Y002408D01*
X032302Y002241D02*
X040304Y002241D01*
X040462Y002082D02*
X032356Y002082D01*
X032356Y001924D02*
X040621Y001924D01*
X040779Y001765D02*
X032347Y001765D01*
X032282Y001607D02*
X040938Y001607D01*
X041096Y001448D02*
X032193Y001448D01*
X032034Y001290D02*
X041327Y001290D01*
X039987Y002558D02*
X032082Y002558D01*
X031811Y002716D02*
X039828Y002716D01*
X039670Y002875D02*
X030300Y002875D01*
X030300Y002716D02*
X031277Y002716D01*
X031005Y002558D02*
X030346Y002558D01*
X030477Y002399D02*
X030852Y002399D01*
X030786Y002241D02*
X030500Y002241D01*
X030500Y002082D02*
X030732Y002082D01*
X030732Y001924D02*
X030462Y001924D01*
X030300Y001765D02*
X030740Y001765D01*
X030806Y001607D02*
X030300Y001607D01*
X030300Y001448D02*
X030895Y001448D01*
X031053Y001290D02*
X030166Y001290D01*
X028700Y002716D02*
X028660Y002716D01*
X028660Y002875D02*
X028700Y002875D01*
X028700Y003033D02*
X028660Y003033D01*
X028354Y003033D02*
X028204Y003033D01*
X028045Y003192D02*
X029315Y003192D01*
X029156Y003033D02*
X029006Y003033D01*
X030045Y003192D02*
X039353Y003192D01*
X039194Y003350D02*
X027576Y003350D01*
X027417Y003509D02*
X039036Y003509D01*
X038877Y003667D02*
X027280Y003667D01*
X027269Y003826D02*
X038719Y003826D01*
X038560Y003984D02*
X027204Y003984D01*
X027066Y004143D02*
X038402Y004143D01*
X040399Y004777D02*
X040735Y004777D01*
X040632Y004935D02*
X040241Y004935D01*
X040082Y005094D02*
X040580Y005094D01*
X040542Y005252D02*
X039924Y005252D01*
X045513Y003192D02*
X053408Y003192D01*
X053408Y003033D02*
X045676Y003033D01*
X045749Y002875D02*
X053408Y002875D01*
X055180Y002180D02*
X055180Y001180D01*
X054180Y001180D01*
X039511Y003033D02*
X030204Y003033D01*
X027680Y002680D02*
X026680Y003680D01*
X026156Y003984D02*
X025942Y003984D01*
X025950Y004143D02*
X026294Y004143D01*
X038664Y010696D02*
X039180Y010180D01*
X039680Y010680D02*
X040180Y010680D01*
X039680Y010680D02*
X039180Y011180D01*
X039180Y014680D01*
X038680Y015180D01*
X029680Y015180D01*
X037282Y013494D02*
X037397Y013494D01*
X037397Y013636D02*
X037397Y013238D01*
X037834Y013238D01*
X037834Y013479D01*
X037822Y013525D01*
X037798Y013566D01*
X037765Y013600D01*
X037724Y013623D01*
X037678Y013636D01*
X037397Y013636D01*
X037397Y013336D02*
X037282Y013336D01*
X037834Y013336D02*
X037886Y013336D01*
X037886Y013494D02*
X037830Y013494D01*
X038521Y013180D02*
X038664Y013037D01*
X038664Y011670D01*
X038664Y010696D01*
X037350Y011117D02*
X037202Y011117D01*
X036695Y010695D02*
X036680Y010680D01*
X036075Y010641D02*
X032568Y010641D01*
X037680Y011751D02*
X037680Y011751D01*
X037680Y011909D02*
X037680Y011909D01*
X037680Y012068D02*
X037680Y012068D01*
X037680Y012226D02*
X037680Y012226D01*
X038005Y012226D02*
X038159Y012226D01*
X037354Y012226D02*
X037200Y012226D01*
X037282Y012860D02*
X037397Y012860D01*
X039580Y014287D02*
X053408Y014287D01*
X053408Y014445D02*
X039580Y014445D01*
X039580Y014604D02*
X053408Y014604D01*
X053408Y014762D02*
X039579Y014762D01*
X039505Y014921D02*
X053408Y014921D01*
X053408Y015079D02*
X039347Y015079D01*
X039188Y015238D02*
X053408Y015238D01*
X053408Y015396D02*
X039030Y015396D01*
X047662Y013019D02*
X047698Y013019D01*
X044814Y012226D02*
X044546Y012226D01*
X046492Y011434D02*
X047466Y011434D01*
X046153Y010641D02*
X045548Y010641D01*
X045571Y010483D02*
X046312Y010483D01*
X052580Y011909D02*
X053408Y011909D01*
X053408Y011751D02*
X052822Y011751D01*
X052894Y011592D02*
X053408Y011592D01*
X053408Y011434D02*
X052894Y011434D01*
X052580Y012068D02*
X053408Y012068D01*
X053408Y012226D02*
X052580Y012226D01*
X052705Y012385D02*
X053408Y012385D01*
X053408Y012543D02*
X052760Y012543D01*
X052760Y012702D02*
X053408Y012702D01*
X053408Y012860D02*
X052760Y012860D01*
X052662Y013019D02*
X053408Y013019D01*
X053408Y013177D02*
X052503Y013177D01*
X051857Y013177D02*
X051503Y013177D01*
X051662Y013019D02*
X051698Y013019D01*
D28*
X032180Y010180D03*
X029680Y010180D03*
X020180Y010180D03*
X015680Y010180D03*
X013180Y010180D03*
X008680Y008680D03*
X015680Y008180D03*
X020180Y008180D03*
X020180Y006180D03*
X019680Y005680D03*
X019180Y005180D03*
X018680Y004680D03*
X017680Y004680D03*
X017180Y005180D03*
X016680Y005680D03*
X016180Y006180D03*
X018180Y004180D03*
X016680Y003680D03*
X021180Y003180D03*
X023180Y002680D03*
X024680Y003680D03*
X026680Y003680D03*
X025680Y004680D03*
X025180Y005180D03*
X024680Y005680D03*
X010680Y002680D03*
X041180Y002680D03*
X045180Y002680D03*
X041180Y005180D03*
X041180Y006680D03*
X019180Y012180D03*
X018680Y012680D03*
X018180Y013180D03*
X009180Y012180D03*
X007180Y012680D03*
X005180Y013180D03*
M02*
