G75*
%MOIN*%
%OFA0B0*%
%FSLAX24Y24*%
%IPPOS*%
%LPD*%
%AMOC8*
5,1,8,0,0,1.08239X$1,22.5*
%
%ADD10C,0.0060*%
%ADD11C,0.0040*%
%ADD12C,0.0100*%
%ADD13C,0.0050*%
%ADD14C,0.0080*%
%ADD15C,0.0010*%
D10*
X005180Y001430D02*
X005430Y001180D01*
X005930Y001180D01*
X006180Y001430D01*
X006180Y001930D01*
X005930Y002180D01*
X006180Y002430D01*
X006180Y002930D01*
X005930Y003180D01*
X006180Y003430D01*
X006180Y003930D01*
X005930Y004180D01*
X006180Y004430D01*
X006180Y004930D01*
X005930Y005180D01*
X006180Y005430D01*
X006180Y005930D01*
X005930Y006180D01*
X006180Y006430D01*
X006180Y006930D01*
X005930Y007180D01*
X006180Y007430D01*
X006180Y007930D01*
X005930Y008180D01*
X006180Y008430D01*
X006180Y008930D01*
X005930Y009180D01*
X005430Y009180D01*
X005180Y008930D01*
X005180Y008430D01*
X005430Y008180D01*
X005180Y007930D01*
X005180Y007430D01*
X005430Y007180D01*
X005930Y007180D01*
X005430Y007180D02*
X005180Y006930D01*
X005180Y006430D01*
X005430Y006180D01*
X005180Y005930D01*
X005180Y005430D01*
X005430Y005180D01*
X005180Y004930D01*
X005180Y004430D01*
X005430Y004180D01*
X005930Y004180D01*
X006393Y004027D02*
X006393Y003904D01*
X006516Y003780D01*
X006887Y003780D01*
X007130Y003657D02*
X007253Y003780D01*
X007500Y003780D01*
X007623Y003904D01*
X007623Y004027D01*
X007500Y004151D01*
X007253Y004151D01*
X007130Y004027D01*
X006887Y004151D02*
X006516Y004151D01*
X006393Y004027D01*
X006887Y004151D02*
X006887Y003410D01*
X006516Y003410D01*
X006393Y003533D01*
X006393Y003657D01*
X006516Y003780D01*
X007130Y003657D02*
X007130Y003533D01*
X007253Y003410D01*
X007500Y003410D01*
X007623Y003533D01*
X007866Y003657D02*
X007866Y004151D01*
X008360Y004151D02*
X008360Y003657D01*
X008113Y003410D01*
X007866Y003657D01*
X005930Y003180D02*
X005430Y003180D01*
X005180Y002930D01*
X005180Y002430D01*
X005430Y002180D01*
X005180Y001930D01*
X005180Y001430D01*
X006393Y001910D02*
X006640Y002157D01*
X006516Y002157D02*
X006887Y002157D01*
X007130Y001910D02*
X007376Y002157D01*
X007623Y001910D01*
X007623Y002651D01*
X007866Y002527D02*
X007866Y002280D01*
X007990Y002157D01*
X008360Y002157D01*
X008360Y001910D02*
X008360Y002651D01*
X007990Y002651D01*
X007866Y002527D01*
X007130Y002651D02*
X007130Y001910D01*
X006887Y001910D02*
X006887Y002651D01*
X006516Y002651D01*
X006393Y002527D01*
X006393Y002280D01*
X006516Y002157D01*
X005930Y002180D02*
X005430Y002180D01*
X005430Y003180D02*
X005180Y003430D01*
X005180Y003930D01*
X005430Y004180D01*
X006393Y004533D02*
X006393Y005027D01*
X006516Y005151D01*
X006887Y005151D01*
X006887Y004410D01*
X006516Y004410D01*
X006393Y004533D01*
X007130Y004410D02*
X007130Y005151D01*
X007623Y005151D02*
X007130Y004410D01*
X007623Y004410D02*
X007623Y005151D01*
X007866Y005027D02*
X007990Y005151D01*
X008236Y005151D01*
X008360Y005027D01*
X008360Y004533D01*
X008236Y004410D01*
X007990Y004410D01*
X007866Y004533D01*
X007866Y004780D01*
X008113Y004780D01*
X009710Y004183D02*
X010451Y004183D01*
X010451Y004554D01*
X010327Y004677D01*
X010080Y004677D01*
X009957Y004554D01*
X009957Y004183D01*
X010710Y004183D02*
X010710Y004554D01*
X010833Y004677D01*
X011327Y004677D01*
X011451Y004554D01*
X011451Y004183D01*
X010710Y004183D01*
X010833Y003940D02*
X011327Y003940D01*
X011451Y003817D01*
X011451Y003447D01*
X010710Y003447D01*
X010710Y003817D01*
X010833Y003940D01*
X010451Y003817D02*
X010327Y003940D01*
X010080Y003940D01*
X009957Y003817D01*
X009957Y003447D01*
X009710Y003447D02*
X010451Y003447D01*
X010451Y003817D01*
X011710Y003940D02*
X012451Y003940D01*
X012710Y003940D02*
X013204Y003940D01*
X013451Y003694D01*
X013204Y003447D01*
X012710Y003447D01*
X012451Y003447D02*
X011710Y003940D01*
X011710Y004183D02*
X011710Y004554D01*
X011833Y004677D01*
X012327Y004677D01*
X012451Y004554D01*
X012451Y004183D01*
X011710Y004183D01*
X012710Y004430D02*
X013451Y004430D01*
X013451Y004183D02*
X013451Y004677D01*
X013710Y004677D02*
X014080Y004307D01*
X013957Y004183D02*
X014451Y004677D01*
X014710Y004677D02*
X015451Y004183D01*
X015451Y003940D02*
X014833Y003940D01*
X014710Y003817D01*
X014710Y003570D01*
X014833Y003447D01*
X015451Y003447D01*
X015204Y003204D02*
X014710Y003204D01*
X014451Y003080D02*
X014451Y002833D01*
X014327Y002710D01*
X013833Y002710D01*
X013710Y002833D01*
X013710Y003080D01*
X013833Y003204D01*
X013451Y003080D02*
X013451Y002710D01*
X012710Y002710D01*
X012710Y003080D01*
X012833Y003204D01*
X013327Y003204D01*
X013451Y003080D01*
X013710Y003447D02*
X013710Y003940D01*
X013080Y003940D02*
X013080Y003447D01*
X013710Y003447D02*
X014451Y003447D01*
X014327Y003204D02*
X014451Y003080D01*
X015080Y003204D02*
X015080Y002710D01*
X015204Y002710D02*
X015451Y002957D01*
X015204Y003204D01*
X015204Y002710D02*
X014710Y002710D01*
X014930Y002180D02*
X015430Y002180D01*
X015680Y001930D01*
X015680Y001430D01*
X015430Y001180D01*
X014930Y001180D01*
X014680Y001430D01*
X014680Y001930D01*
X014930Y002180D01*
X014680Y001930D02*
X014430Y002180D01*
X013930Y002180D01*
X013680Y001930D01*
X013430Y002180D01*
X012930Y002180D01*
X012680Y001930D01*
X012430Y002180D01*
X011930Y002180D01*
X011680Y001930D01*
X011430Y002180D01*
X010930Y002180D01*
X010680Y001930D01*
X010430Y002180D01*
X009930Y002180D01*
X009680Y001930D01*
X009680Y001430D01*
X009930Y001180D01*
X010430Y001180D01*
X010680Y001430D01*
X010930Y001180D01*
X011430Y001180D01*
X011680Y001430D01*
X011680Y001930D01*
X010680Y001930D02*
X010680Y001430D01*
X011680Y001430D02*
X011930Y001180D01*
X012430Y001180D01*
X012680Y001430D01*
X012930Y001180D01*
X013430Y001180D01*
X013680Y001430D01*
X013930Y001180D01*
X014430Y001180D01*
X014680Y001430D01*
X013680Y001430D02*
X013680Y001930D01*
X012680Y001930D02*
X012680Y001430D01*
X012327Y002710D02*
X011833Y002710D01*
X011710Y002833D01*
X011710Y003080D01*
X011833Y003204D01*
X012080Y003204D01*
X012080Y002957D01*
X012327Y003204D02*
X012451Y003080D01*
X012451Y002833D01*
X012327Y002710D01*
X011451Y002710D02*
X010957Y002710D01*
X010710Y002957D01*
X010957Y003204D01*
X011451Y003204D01*
X011710Y003447D02*
X012451Y003447D01*
X010451Y003204D02*
X009957Y003204D01*
X009710Y002957D01*
X009957Y002710D01*
X010451Y002710D01*
X013710Y004183D02*
X014451Y004183D01*
X014710Y004183D02*
X015451Y004677D01*
X013451Y005167D02*
X013204Y005414D01*
X012710Y005414D01*
X013080Y005414D02*
X013080Y004920D01*
X013204Y004920D02*
X013451Y005167D01*
X013204Y004920D02*
X012710Y004920D01*
X008360Y005910D02*
X008360Y006404D01*
X008113Y006651D01*
X007866Y006404D01*
X007866Y005910D01*
X007866Y006404D01*
X008113Y006651D01*
X008360Y006404D01*
X008360Y005910D01*
X007623Y006033D02*
X007500Y005910D01*
X007253Y005910D01*
X007130Y006033D01*
X007130Y006651D01*
X007130Y006033D01*
X007253Y005910D01*
X007500Y005910D01*
X007623Y006033D01*
X007623Y006651D01*
X007623Y006033D01*
X006887Y005910D02*
X006393Y006651D01*
X006887Y005910D01*
X006393Y005910D02*
X006887Y006651D01*
X006393Y005910D01*
X005930Y006180D02*
X005430Y006180D01*
X007866Y006280D02*
X008360Y006280D01*
X007866Y006280D01*
X005930Y005180D02*
X005430Y005180D01*
X012460Y006310D02*
X013101Y006310D01*
X012887Y006524D01*
X013101Y006737D01*
X012460Y006737D01*
X012460Y006955D02*
X012887Y006955D01*
X013101Y007168D01*
X012887Y007382D01*
X012460Y007382D01*
X012780Y007382D02*
X012780Y006955D01*
X012460Y007599D02*
X013101Y008026D01*
X013101Y007599D02*
X012460Y008026D01*
X012430Y008060D02*
X012430Y009300D01*
X012430Y009310D02*
X008930Y009310D01*
X008930Y009300D02*
X008930Y008880D01*
X008930Y008480D01*
X008930Y008060D01*
X008932Y008037D01*
X008937Y008014D01*
X008946Y007992D01*
X008959Y007972D01*
X008974Y007954D01*
X008992Y007939D01*
X009012Y007926D01*
X009034Y007917D01*
X009057Y007912D01*
X009080Y007910D01*
X012280Y007910D01*
X012303Y007912D01*
X012326Y007917D01*
X012348Y007926D01*
X012368Y007939D01*
X012386Y007954D01*
X012401Y007972D01*
X012414Y007992D01*
X012423Y008014D01*
X012428Y008037D01*
X012430Y008060D01*
X012780Y008244D02*
X012780Y008671D01*
X012460Y008564D02*
X013101Y008564D01*
X012780Y008244D01*
X012567Y008888D02*
X012994Y009315D01*
X012567Y009315D01*
X012460Y009208D01*
X012460Y008995D01*
X012567Y008888D01*
X012994Y008888D01*
X013101Y008995D01*
X013101Y009208D01*
X012994Y009315D01*
X012430Y009300D02*
X012428Y009323D01*
X012423Y009346D01*
X012414Y009368D01*
X012401Y009388D01*
X012386Y009406D01*
X012368Y009421D01*
X012348Y009434D01*
X012326Y009443D01*
X012303Y009448D01*
X012280Y009450D01*
X009080Y009450D01*
X009057Y009448D01*
X009034Y009443D01*
X009012Y009434D01*
X008992Y009421D01*
X008974Y009406D01*
X008959Y009388D01*
X008946Y009368D01*
X008937Y009346D01*
X008932Y009323D01*
X008930Y009300D01*
X008930Y008880D02*
X008957Y008878D01*
X008984Y008873D01*
X009010Y008863D01*
X009034Y008851D01*
X009056Y008835D01*
X009076Y008817D01*
X009093Y008795D01*
X009108Y008772D01*
X009118Y008747D01*
X009126Y008721D01*
X009130Y008694D01*
X009130Y008666D01*
X009126Y008639D01*
X009118Y008613D01*
X009108Y008588D01*
X009093Y008565D01*
X009076Y008543D01*
X009056Y008525D01*
X009034Y008509D01*
X009010Y008497D01*
X008984Y008487D01*
X008957Y008482D01*
X008930Y008480D01*
X008360Y008651D02*
X007990Y008651D01*
X007866Y008527D01*
X007866Y008280D01*
X007990Y008157D01*
X008360Y008157D01*
X008113Y008157D02*
X007866Y007910D01*
X007623Y008033D02*
X007500Y007910D01*
X007253Y007910D01*
X007130Y008033D01*
X007130Y008157D01*
X007253Y008280D01*
X007500Y008280D01*
X007623Y008404D01*
X007623Y008527D01*
X007500Y008651D01*
X007253Y008651D01*
X007130Y008527D01*
X006887Y008651D02*
X006393Y008651D01*
X006640Y008651D02*
X006640Y007910D01*
X005930Y008180D02*
X005430Y008180D01*
X008360Y007910D02*
X008360Y008651D01*
X012460Y009640D02*
X012460Y009853D01*
X012567Y009960D01*
X012674Y009960D01*
X012780Y009853D01*
X012780Y009533D01*
X012567Y009533D01*
X012460Y009640D01*
X012780Y009533D02*
X012994Y009746D01*
X013101Y009960D01*
X012780Y010177D02*
X012780Y010498D01*
X012674Y010604D01*
X012567Y010604D01*
X012460Y010498D01*
X012460Y010284D01*
X012567Y010177D01*
X012780Y010177D01*
X012994Y010391D01*
X013101Y010604D01*
X013101Y010822D02*
X012460Y010822D01*
X012460Y011249D01*
X012567Y011466D02*
X012460Y011573D01*
X012460Y011787D01*
X012567Y011893D01*
X012674Y011893D01*
X012780Y011787D01*
X012780Y011573D01*
X012887Y011466D01*
X012994Y011466D01*
X013101Y011573D01*
X013101Y011787D01*
X012994Y011893D01*
X013101Y012111D02*
X012460Y012111D01*
X012460Y012431D01*
X012567Y012538D01*
X012994Y012538D01*
X013101Y012431D01*
X013101Y012111D01*
X013101Y011249D02*
X013101Y010822D01*
X012780Y010822D02*
X012780Y011035D01*
X015960Y010642D02*
X015960Y007718D01*
X022910Y007718D01*
X022910Y010642D01*
X015960Y010642D01*
X016120Y010420D02*
X016122Y010449D01*
X016128Y010477D01*
X016137Y010504D01*
X016151Y010529D01*
X016167Y010553D01*
X016187Y010573D01*
X016209Y010592D01*
X016233Y010606D01*
X016260Y010618D01*
X016287Y010626D01*
X016316Y010630D01*
X016344Y010630D01*
X016373Y010626D01*
X016400Y010618D01*
X016427Y010606D01*
X016451Y010592D01*
X016473Y010573D01*
X016493Y010553D01*
X016509Y010529D01*
X016523Y010504D01*
X016532Y010477D01*
X016538Y010449D01*
X016540Y010420D01*
X016538Y010391D01*
X016532Y010363D01*
X016523Y010336D01*
X016509Y010311D01*
X016493Y010287D01*
X016473Y010267D01*
X016451Y010248D01*
X016427Y010234D01*
X016400Y010222D01*
X016373Y010214D01*
X016344Y010210D01*
X016316Y010210D01*
X016287Y010214D01*
X016260Y010222D01*
X016233Y010234D01*
X016209Y010248D01*
X016187Y010267D01*
X016167Y010287D01*
X016151Y010311D01*
X016137Y010336D01*
X016128Y010363D01*
X016122Y010391D01*
X016120Y010420D01*
X023060Y010376D02*
X023701Y010376D01*
X023701Y010159D02*
X023701Y009732D01*
X023380Y009732D01*
X023487Y009945D01*
X023487Y010052D01*
X023380Y010159D01*
X023167Y010159D01*
X023060Y010052D01*
X023060Y009839D01*
X023167Y009732D01*
X023060Y009514D02*
X023060Y009087D01*
X023487Y009514D01*
X023594Y009514D01*
X023701Y009408D01*
X023701Y009194D01*
X023594Y009087D01*
X023701Y008870D02*
X023701Y008443D01*
X023060Y008443D01*
X023167Y008225D02*
X023060Y008118D01*
X023060Y007905D01*
X023167Y007798D01*
X023274Y007798D01*
X023380Y007905D01*
X023380Y008118D01*
X023274Y008225D01*
X023167Y008225D01*
X023380Y008118D02*
X023487Y008225D01*
X023594Y008225D01*
X023701Y008118D01*
X023701Y007905D01*
X023594Y007798D01*
X023487Y007798D01*
X023380Y007905D01*
X023060Y007581D02*
X023060Y007154D01*
X023060Y007367D02*
X023701Y007367D01*
X023487Y007154D01*
X023594Y006936D02*
X023701Y006829D01*
X023701Y006616D01*
X023594Y006509D01*
X023167Y006509D01*
X023060Y006616D01*
X023060Y006829D01*
X023167Y006936D01*
X023060Y006293D02*
X023060Y006079D01*
X023060Y006186D02*
X023701Y006186D01*
X023701Y006079D02*
X023701Y006293D01*
X023594Y005862D02*
X023380Y005862D01*
X023274Y005755D01*
X023274Y005435D01*
X023060Y005435D02*
X023701Y005435D01*
X023701Y005755D01*
X023594Y005862D01*
X025210Y005947D02*
X025210Y006317D01*
X025333Y006440D01*
X025457Y006440D01*
X025580Y006317D01*
X025580Y005947D01*
X025210Y005947D02*
X025951Y005947D01*
X025951Y006317D01*
X025827Y006440D01*
X025704Y006440D01*
X025580Y006317D01*
X025333Y006683D02*
X025210Y006807D01*
X025210Y007054D01*
X025333Y007177D01*
X025951Y007177D01*
X025827Y007420D02*
X025704Y007420D01*
X025580Y007543D01*
X025580Y007790D01*
X025457Y007914D01*
X025333Y007914D01*
X025210Y007790D01*
X025210Y007543D01*
X025333Y007420D01*
X025827Y007420D02*
X025951Y007543D01*
X025951Y007790D01*
X025827Y007914D01*
X023380Y008443D02*
X023380Y008656D01*
X023274Y010376D02*
X023701Y010803D01*
X023701Y011021D02*
X023380Y011021D01*
X023487Y011234D01*
X023487Y011341D01*
X023380Y011448D01*
X023167Y011448D01*
X023060Y011341D01*
X023060Y011128D01*
X023167Y011021D01*
X023060Y010803D02*
X023380Y010483D01*
X023701Y011021D02*
X023701Y011448D01*
X023594Y011665D02*
X023167Y011665D01*
X023594Y012092D01*
X023167Y012092D01*
X023060Y011986D01*
X023060Y011772D01*
X023167Y011665D01*
X023594Y011665D02*
X023701Y011772D01*
X023701Y011986D01*
X023594Y012092D01*
X020740Y012420D02*
X020740Y012940D01*
X019620Y012940D01*
X019620Y012420D01*
X020740Y012420D01*
X020727Y014710D02*
X021097Y014710D01*
X021220Y014833D01*
X021097Y014957D01*
X020727Y014957D01*
X020727Y015080D02*
X020727Y014710D01*
X020484Y014710D02*
X020484Y015204D01*
X020114Y015204D01*
X019990Y015080D01*
X019990Y014710D01*
X019747Y014833D02*
X019747Y015080D01*
X019624Y015204D01*
X019253Y015204D01*
X019011Y015204D02*
X019011Y014710D01*
X019253Y014710D02*
X019624Y014710D01*
X019747Y014833D01*
X019253Y014710D02*
X019253Y015451D01*
X018764Y015204D02*
X018640Y015204D01*
X018764Y015204D02*
X019011Y014957D01*
X018397Y015080D02*
X018397Y014833D01*
X018273Y014710D01*
X018026Y014710D01*
X017903Y014833D01*
X017903Y015080D01*
X018026Y015204D01*
X018273Y015204D01*
X018397Y015080D01*
X017660Y015204D02*
X017537Y015204D01*
X017537Y014710D01*
X017660Y014710D02*
X017413Y014710D01*
X017169Y014833D02*
X017046Y014710D01*
X016675Y014710D01*
X016675Y015451D01*
X017537Y015451D02*
X017537Y015574D01*
X017046Y015204D02*
X016675Y015204D01*
X016309Y015204D02*
X016062Y015204D01*
X015939Y015080D01*
X015939Y014710D01*
X016309Y014710D01*
X016432Y014833D01*
X016309Y014957D01*
X015939Y014957D01*
X015696Y014957D02*
X015449Y015204D01*
X015325Y015204D01*
X015082Y015204D02*
X014958Y015204D01*
X014835Y015080D01*
X014712Y015204D01*
X014588Y015080D01*
X014588Y014710D01*
X014345Y014710D02*
X013975Y014710D01*
X013852Y014833D01*
X013975Y014957D01*
X014222Y014957D01*
X014345Y015080D01*
X014222Y015204D01*
X013852Y015204D01*
X013609Y015204D02*
X013362Y015204D01*
X013485Y015327D02*
X013485Y014833D01*
X013362Y014710D01*
X013118Y014710D02*
X013118Y015204D01*
X013118Y014957D02*
X012871Y015204D01*
X012747Y015204D01*
X012504Y015080D02*
X012504Y014833D01*
X012380Y014710D01*
X012133Y014710D01*
X012010Y014833D01*
X012010Y015080D01*
X012133Y015204D01*
X012380Y015204D01*
X012504Y015080D01*
X011767Y015204D02*
X011767Y014710D01*
X011273Y014710D02*
X011273Y015080D01*
X011397Y015204D01*
X011767Y015204D01*
X011030Y015080D02*
X011030Y014833D01*
X010907Y014710D01*
X010537Y014710D01*
X010537Y014587D02*
X010537Y015204D01*
X010907Y015204D01*
X011030Y015080D01*
X010294Y014833D02*
X010294Y015327D01*
X010170Y015451D01*
X009924Y015451D01*
X009800Y015327D01*
X009800Y015080D01*
X009924Y014957D01*
X009924Y015204D01*
X010170Y015204D01*
X010170Y014957D01*
X009924Y014957D01*
X009800Y014833D02*
X009924Y014710D01*
X010170Y014710D01*
X010294Y014833D01*
X010537Y014587D02*
X010660Y014463D01*
X010784Y014463D01*
X009557Y014833D02*
X009557Y015080D01*
X009434Y015204D01*
X009063Y015204D01*
X009063Y014587D01*
X009187Y014463D01*
X009310Y014463D01*
X009434Y014710D02*
X009063Y014710D01*
X008821Y014710D02*
X008821Y015204D01*
X008697Y015204D01*
X008574Y015080D01*
X008450Y015204D01*
X008327Y015080D01*
X008327Y014710D01*
X008574Y014710D02*
X008574Y015080D01*
X008084Y014833D02*
X007961Y014957D01*
X007590Y014957D01*
X007590Y015080D02*
X007590Y014710D01*
X007961Y014710D01*
X008084Y014833D01*
X007714Y015204D02*
X007590Y015080D01*
X007714Y015204D02*
X007961Y015204D01*
X007347Y015204D02*
X007224Y015204D01*
X007224Y014710D01*
X007347Y014710D02*
X007100Y014710D01*
X006856Y014710D02*
X006609Y014710D01*
X006733Y014710D02*
X006733Y015451D01*
X006856Y015451D01*
X007224Y015451D02*
X007224Y015574D01*
X005997Y015080D02*
X005873Y015204D01*
X005503Y015204D01*
X005260Y015080D02*
X005137Y015204D01*
X004890Y015204D01*
X004766Y015080D01*
X004766Y014833D01*
X004890Y014710D01*
X005137Y014710D01*
X005260Y014833D01*
X005260Y015080D01*
X005873Y014710D02*
X005997Y014833D01*
X005997Y015080D01*
X006242Y014833D02*
X006242Y014710D01*
X006365Y014710D01*
X006365Y014833D01*
X006242Y014833D01*
X005873Y014710D02*
X005503Y014710D01*
X004524Y014710D02*
X004524Y015204D01*
X004400Y015204D01*
X004277Y015080D01*
X004153Y015204D01*
X004030Y015080D01*
X004030Y014710D01*
X004277Y014710D02*
X004277Y015080D01*
X009434Y014710D02*
X009557Y014833D01*
X014835Y014710D02*
X014835Y015080D01*
X015082Y015204D02*
X015082Y014710D01*
X015696Y014710D02*
X015696Y015204D01*
X017046Y015204D02*
X017169Y015080D01*
X017169Y014833D01*
X020727Y015080D02*
X020850Y015204D01*
X021097Y015204D01*
X022200Y015080D02*
X022694Y015080D01*
X022323Y015451D01*
X022323Y014710D01*
X022937Y014710D02*
X023430Y014710D01*
X023184Y014710D02*
X023184Y015451D01*
X023430Y015204D01*
X023673Y015327D02*
X024167Y014833D01*
X024044Y014710D01*
X023797Y014710D01*
X023673Y014833D01*
X023673Y015327D01*
X023797Y015451D01*
X024044Y015451D01*
X024167Y015327D01*
X024167Y014833D01*
X024410Y014710D02*
X024904Y014710D01*
X024410Y015204D01*
X024410Y015327D01*
X024533Y015451D01*
X024780Y015451D01*
X024904Y015327D01*
X025147Y015080D02*
X025640Y015080D01*
X025883Y014833D02*
X026007Y014710D01*
X026253Y014710D01*
X026377Y014833D01*
X025883Y015327D01*
X025883Y014833D01*
X026377Y014833D02*
X026377Y015327D01*
X026253Y015451D01*
X026007Y015451D01*
X025883Y015327D01*
X026867Y015451D02*
X027114Y015204D01*
X027356Y015327D02*
X027850Y014833D01*
X027727Y014710D01*
X027480Y014710D01*
X027356Y014833D01*
X027356Y015327D01*
X027480Y015451D01*
X027727Y015451D01*
X027850Y015327D01*
X027850Y014833D01*
X028093Y014710D02*
X028587Y014710D01*
X028093Y015204D01*
X028093Y015327D01*
X028216Y015451D01*
X028463Y015451D01*
X028587Y015327D01*
X029568Y015204D02*
X029568Y014957D01*
X029815Y014710D01*
X030057Y014833D02*
X030181Y014710D01*
X030428Y014710D01*
X030551Y014833D01*
X030551Y015327D01*
X030428Y015451D01*
X030181Y015451D01*
X030057Y015327D01*
X029815Y015451D02*
X029568Y015204D01*
X030795Y015451D02*
X031042Y015204D01*
X031042Y014957D01*
X030795Y014710D01*
X032022Y014710D02*
X032392Y014710D01*
X032515Y014833D01*
X032515Y015080D01*
X032392Y015204D01*
X032022Y015204D01*
X032759Y015204D02*
X032882Y015204D01*
X033129Y014957D01*
X033372Y014957D02*
X033743Y014957D01*
X033866Y014833D01*
X033743Y014710D01*
X033372Y014710D01*
X033372Y015080D01*
X033496Y015204D01*
X033743Y015204D01*
X034109Y015080D02*
X034232Y015204D01*
X034479Y015204D01*
X034603Y015080D01*
X034603Y014833D01*
X034479Y014710D01*
X034232Y014710D01*
X034109Y014833D01*
X034109Y015080D01*
X034845Y015080D02*
X034845Y014833D01*
X034969Y014710D01*
X035339Y014710D01*
X035339Y015451D01*
X035339Y015204D02*
X034969Y015204D01*
X034845Y015080D01*
X035582Y015204D02*
X035582Y014587D01*
X035706Y014463D01*
X035829Y014463D01*
X035952Y014710D02*
X035582Y014710D01*
X035952Y014710D02*
X036076Y014833D01*
X036076Y015204D01*
X036319Y015080D02*
X036319Y014957D01*
X036812Y014957D01*
X036812Y015080D02*
X036689Y015204D01*
X036442Y015204D01*
X036319Y015080D01*
X036812Y015080D02*
X036812Y014833D01*
X036689Y014710D01*
X036442Y014710D01*
X037055Y014710D02*
X037426Y015080D01*
X037549Y014957D02*
X037055Y015451D01*
X037549Y015451D02*
X037549Y014710D01*
X038529Y014710D02*
X038899Y014710D01*
X039022Y014833D01*
X039022Y015080D01*
X038899Y015204D01*
X038529Y015204D01*
X039265Y015080D02*
X039265Y014957D01*
X039759Y014957D01*
X039759Y015080D02*
X039636Y015204D01*
X039389Y015204D01*
X039265Y015080D01*
X039759Y015080D02*
X039759Y014833D01*
X039636Y014710D01*
X039389Y014710D01*
X038529Y014710D02*
X038529Y015451D01*
X040003Y015204D02*
X040126Y015204D01*
X040373Y014957D01*
X040616Y014957D02*
X040986Y014957D01*
X041109Y014833D01*
X040986Y014710D01*
X040616Y014710D01*
X040616Y015080D01*
X040739Y015204D01*
X040986Y015204D01*
X041353Y015204D02*
X041476Y015204D01*
X041723Y014957D01*
X041723Y014710D02*
X041723Y015204D01*
X041968Y015080D02*
X042214Y015080D01*
X042457Y015080D02*
X042457Y014710D01*
X042091Y014710D02*
X042091Y015327D01*
X041968Y015451D01*
X042457Y015080D02*
X042581Y015204D01*
X042951Y015204D01*
X042951Y014710D01*
X043195Y014710D02*
X043442Y014710D01*
X043319Y014710D02*
X043319Y015451D01*
X043442Y015451D02*
X043195Y015451D01*
X044422Y015327D02*
X044422Y015204D01*
X044545Y015080D01*
X044915Y015080D01*
X045158Y014957D02*
X045158Y014833D01*
X045282Y014710D01*
X045529Y014710D01*
X045652Y014833D01*
X045895Y014833D02*
X046018Y014710D01*
X046265Y014710D01*
X046389Y014833D01*
X046389Y015451D01*
X045895Y015451D02*
X045895Y014833D01*
X045529Y015080D02*
X045282Y015080D01*
X045158Y014957D01*
X045529Y015080D02*
X045652Y015204D01*
X045652Y015327D01*
X045529Y015451D01*
X045282Y015451D01*
X045158Y015327D01*
X044915Y015451D02*
X044545Y015451D01*
X044422Y015327D01*
X044915Y015451D02*
X044915Y014710D01*
X044545Y014710D01*
X044422Y014833D01*
X044422Y014957D01*
X044545Y015080D01*
X047368Y014833D02*
X047492Y014710D01*
X047738Y014710D01*
X047862Y014833D01*
X047368Y015327D01*
X047368Y014833D01*
X047862Y014833D02*
X047862Y015327D01*
X047738Y015451D01*
X047492Y015451D01*
X047368Y015327D01*
X048473Y015327D02*
X048473Y015204D01*
X048967Y014710D01*
X048473Y014710D01*
X048230Y014710D02*
X048107Y014710D01*
X048107Y014833D01*
X048230Y014833D01*
X048230Y014710D01*
X049210Y015204D02*
X049457Y014710D01*
X049703Y015204D01*
X048967Y015327D02*
X048843Y015451D01*
X048597Y015451D01*
X048473Y015327D01*
X050686Y015574D02*
X050686Y015080D01*
X050686Y014833D02*
X050686Y014710D01*
X050929Y014710D02*
X051299Y015080D01*
X051422Y014957D02*
X050929Y015451D01*
X051422Y015451D02*
X051422Y014710D01*
X051665Y014710D02*
X051912Y014957D01*
X051789Y014957D02*
X052159Y014957D01*
X051789Y014957D02*
X051665Y015080D01*
X051665Y015327D01*
X051789Y015451D01*
X052159Y015451D01*
X052159Y014710D01*
X052403Y014710D02*
X052650Y014710D01*
X052527Y014710D02*
X052527Y015451D01*
X052650Y015451D02*
X052403Y015451D01*
X040373Y015204D02*
X040373Y014710D01*
X033129Y014710D02*
X033129Y015204D01*
X032022Y015451D02*
X032022Y014710D01*
X027114Y014710D02*
X026620Y014710D01*
X026867Y014710D02*
X026867Y015451D01*
X043620Y010940D02*
X044740Y010940D01*
X044740Y010420D01*
X043620Y010420D01*
X043620Y010940D01*
X027580Y005940D02*
X027580Y005447D01*
X027333Y005204D02*
X027827Y005204D01*
X027951Y005080D01*
X027951Y004710D01*
X027210Y004710D01*
X027210Y005080D01*
X027333Y005204D01*
X026951Y005080D02*
X026951Y004710D01*
X026210Y004710D01*
X026210Y005080D01*
X026333Y005204D01*
X026827Y005204D01*
X026951Y005080D01*
X026580Y005447D02*
X026580Y005940D01*
X025951Y005704D02*
X025457Y005704D01*
X025210Y005457D01*
X025457Y005210D01*
X025951Y005210D01*
X027333Y005694D02*
X027827Y005694D01*
X028210Y005554D02*
X028333Y005677D01*
X028827Y005677D01*
X028951Y005554D01*
X028951Y005183D01*
X028210Y005183D01*
X028210Y005554D01*
X029210Y005554D02*
X029210Y005307D01*
X029333Y005183D01*
X029827Y005183D01*
X029951Y005307D01*
X029951Y005554D01*
X029827Y005677D01*
X029333Y005677D02*
X029210Y005554D01*
X028951Y004940D02*
X028210Y004940D01*
X028951Y004447D01*
X028210Y004447D01*
X028333Y004204D02*
X028580Y004204D01*
X028580Y003957D01*
X028333Y004204D02*
X028210Y004080D01*
X028210Y003833D01*
X028333Y003710D01*
X028827Y003710D01*
X028951Y003833D01*
X028951Y004080D01*
X028827Y004204D01*
X029210Y004204D02*
X029951Y004204D01*
X029951Y003710D02*
X029210Y004204D01*
X029210Y004447D02*
X029951Y004940D01*
X029951Y003710D02*
X029210Y003710D01*
X029430Y003180D02*
X029930Y003180D01*
X030180Y002930D01*
X030180Y001430D01*
X029930Y001180D01*
X029430Y001180D01*
X029180Y001430D01*
X029180Y002930D01*
X029430Y003180D01*
X029180Y002930D02*
X028930Y003180D01*
X028430Y003180D01*
X028180Y002930D01*
X028180Y001430D01*
X028430Y001180D01*
X028930Y001180D01*
X029180Y001430D01*
X029201Y001204D02*
X029201Y000833D01*
X029077Y000710D01*
X028707Y000710D01*
X028707Y001204D01*
X028464Y001080D02*
X028341Y001204D01*
X027970Y001204D01*
X027930Y001180D02*
X028180Y001430D01*
X027930Y001180D02*
X027430Y001180D01*
X027180Y001430D01*
X027180Y002930D01*
X027430Y003180D01*
X027930Y003180D01*
X028180Y002930D01*
X027180Y002930D02*
X026930Y003180D01*
X026430Y003180D01*
X026180Y002930D01*
X026180Y001430D01*
X026430Y001180D01*
X026930Y001180D01*
X027180Y001430D01*
X027357Y001204D02*
X027727Y001204D01*
X027357Y001204D02*
X027234Y001080D01*
X027234Y000833D01*
X027357Y000710D01*
X027727Y000710D01*
X027727Y001451D01*
X026991Y000710D02*
X026497Y001451D01*
X026180Y001430D02*
X025930Y001180D01*
X025430Y001180D01*
X025180Y001430D01*
X025180Y002930D01*
X025430Y003180D01*
X025930Y003180D01*
X026180Y002930D01*
X030551Y001451D02*
X030551Y000710D01*
X030551Y000957D02*
X030181Y000710D01*
X030551Y000957D02*
X030181Y001204D01*
X029937Y001080D02*
X029444Y001080D01*
X028464Y001080D02*
X028341Y000957D01*
X028094Y000957D01*
X027970Y000833D01*
X028094Y000710D01*
X028464Y000710D01*
X030795Y001204D02*
X030918Y001204D01*
X031165Y000957D01*
X031165Y000710D02*
X031165Y001204D01*
X031533Y001204D02*
X031533Y000710D01*
X031656Y000710D02*
X031409Y000710D01*
X031899Y001451D02*
X032393Y000710D01*
X032636Y000833D02*
X032759Y000710D01*
X033129Y000710D01*
X033374Y000710D02*
X033497Y000833D01*
X033497Y001327D01*
X033620Y001204D02*
X033374Y001204D01*
X033129Y001080D02*
X033006Y001204D01*
X032636Y001204D01*
X033006Y000957D02*
X033129Y001080D01*
X033006Y000957D02*
X032759Y000957D01*
X032636Y000833D01*
X031656Y001204D02*
X031533Y001204D01*
X031533Y001451D02*
X031533Y001574D01*
X033863Y001204D02*
X034234Y001204D01*
X034357Y001080D01*
X034357Y000833D01*
X034234Y000710D01*
X033863Y000710D01*
X034600Y000957D02*
X034600Y001080D01*
X034723Y001204D01*
X034970Y001204D01*
X035094Y001080D01*
X035094Y000833D01*
X034970Y000710D01*
X034723Y000710D01*
X034600Y000957D02*
X035094Y000957D01*
X035338Y001204D02*
X035338Y000587D01*
X035461Y000463D01*
X035585Y000463D01*
X035951Y000710D02*
X035828Y000833D01*
X035828Y001080D01*
X035951Y001204D01*
X036198Y001204D01*
X036321Y001080D01*
X036321Y000833D01*
X036198Y000710D01*
X035951Y000710D01*
X036688Y001204D02*
X036935Y000957D01*
X036935Y000710D02*
X036935Y001204D01*
X036688Y001204D02*
X036565Y001204D01*
X037178Y001080D02*
X037178Y000833D01*
X037302Y000710D01*
X037672Y000710D01*
X038409Y000710D02*
X037915Y001451D01*
X037672Y001204D02*
X037302Y001204D01*
X037178Y001080D01*
X037672Y001204D02*
X037672Y000463D01*
X038653Y000710D02*
X038776Y000833D01*
X038776Y001327D01*
X038653Y001204D02*
X038900Y001204D01*
X039142Y001080D02*
X039142Y000957D01*
X039636Y000957D01*
X039636Y001080D02*
X039636Y000833D01*
X039513Y000710D01*
X039266Y000710D01*
X039879Y000710D02*
X039879Y001080D01*
X040003Y001204D01*
X040373Y001204D01*
X040373Y000710D01*
X040618Y000710D02*
X040741Y000710D01*
X040741Y000833D01*
X040618Y000833D01*
X040618Y000710D01*
X040984Y000957D02*
X041478Y000957D01*
X041478Y001080D02*
X041478Y000833D01*
X041354Y000710D01*
X041107Y000710D01*
X040984Y000957D02*
X040984Y001080D01*
X041107Y001204D01*
X041354Y001204D01*
X041478Y001080D01*
X041721Y001204D02*
X042091Y001204D01*
X042214Y001080D01*
X042214Y000833D01*
X042091Y000710D01*
X041721Y000710D01*
X041721Y000587D02*
X041721Y001204D01*
X042458Y001204D02*
X042581Y001204D01*
X042828Y000957D01*
X042828Y000710D02*
X042828Y001204D01*
X043071Y001080D02*
X043195Y001204D01*
X043441Y001204D01*
X043565Y001080D01*
X043565Y000833D01*
X043441Y000710D01*
X043195Y000710D01*
X043071Y000833D01*
X043071Y001080D01*
X043809Y001080D02*
X044056Y001080D01*
X044299Y001080D02*
X044299Y000957D01*
X044793Y000957D01*
X044793Y001080D02*
X044793Y000833D01*
X044669Y000710D01*
X044422Y000710D01*
X043933Y000710D02*
X043933Y001327D01*
X043809Y001451D01*
X044299Y001080D02*
X044422Y001204D01*
X044669Y001204D01*
X044793Y001080D01*
X045035Y001204D02*
X045406Y001204D01*
X045529Y001080D01*
X045529Y000833D01*
X045406Y000710D01*
X045035Y000710D01*
X045896Y001204D02*
X046143Y000957D01*
X046143Y000710D02*
X046143Y001204D01*
X046386Y001204D02*
X046386Y000710D01*
X046756Y000710D01*
X046880Y000833D01*
X046880Y001204D01*
X047123Y001080D02*
X047246Y001204D01*
X047493Y001204D01*
X047616Y001080D01*
X047616Y000833D01*
X047493Y000710D01*
X047246Y000710D01*
X047123Y000833D01*
X047123Y001080D01*
X047859Y001204D02*
X048230Y001204D01*
X048353Y001080D01*
X048230Y000957D01*
X047983Y000957D01*
X047859Y000833D01*
X047983Y000710D01*
X048353Y000710D01*
X049090Y000710D02*
X048596Y001451D01*
X049333Y001451D02*
X049826Y000710D01*
X050071Y000710D02*
X050195Y000710D01*
X050195Y000833D01*
X050071Y000833D01*
X050071Y000710D01*
X050437Y000833D02*
X050561Y000710D01*
X050931Y000710D01*
X051175Y000710D02*
X051299Y000833D01*
X051299Y001327D01*
X051422Y001204D02*
X051175Y001204D01*
X050931Y001204D02*
X050561Y001204D01*
X050437Y001080D01*
X050437Y000833D01*
X050195Y001080D02*
X050195Y001204D01*
X050071Y001204D01*
X050071Y001080D01*
X050195Y001080D01*
X050931Y001204D02*
X050931Y000463D01*
X051666Y000710D02*
X051790Y000833D01*
X051790Y001327D01*
X051913Y001204D02*
X051666Y001204D01*
X052156Y001080D02*
X052156Y000710D01*
X052650Y000710D02*
X052650Y001451D01*
X052527Y001204D02*
X052280Y001204D01*
X052156Y001080D01*
X052527Y001204D02*
X052650Y001080D01*
X045896Y001204D02*
X045773Y001204D01*
X041968Y000463D02*
X041844Y000463D01*
X041721Y000587D01*
X039636Y001080D02*
X039513Y001204D01*
X039266Y001204D01*
X039142Y001080D01*
X035338Y001451D02*
X035338Y001574D01*
X025951Y006683D02*
X025333Y006683D01*
D11*
X005110Y000480D02*
X005033Y000557D01*
X005033Y000710D01*
X005110Y000787D01*
X005187Y000787D01*
X005340Y000710D01*
X005340Y000940D01*
X005033Y000940D01*
X005494Y000864D02*
X005494Y000710D01*
X005571Y000633D01*
X005801Y000633D01*
X005801Y000480D02*
X005801Y000940D01*
X005571Y000940D01*
X005494Y000864D01*
X005954Y000940D02*
X006108Y000940D01*
X006031Y000940D02*
X006031Y000557D01*
X006108Y000480D01*
X006184Y000480D01*
X006261Y000557D01*
X005340Y000557D02*
X005264Y000480D01*
X005110Y000480D01*
X009603Y000700D02*
X009910Y000700D01*
X009757Y000700D02*
X009757Y001160D01*
X009910Y001007D01*
X013813Y000834D02*
X013813Y000680D01*
X013890Y000603D01*
X014120Y000603D01*
X014120Y000450D02*
X014120Y000910D01*
X013890Y000910D01*
X013813Y000834D01*
X014274Y000834D02*
X014351Y000910D01*
X014504Y000910D01*
X014581Y000834D01*
X014581Y000757D01*
X014504Y000680D01*
X014351Y000680D01*
X014274Y000603D01*
X014274Y000527D01*
X014351Y000450D01*
X014504Y000450D01*
X014581Y000527D01*
X014734Y000527D02*
X014811Y000450D01*
X014964Y000450D01*
X015041Y000527D01*
X015041Y000834D01*
X014964Y000910D01*
X014811Y000910D01*
X014734Y000834D01*
X015195Y000910D02*
X015348Y000910D01*
X015271Y000910D02*
X015271Y000450D01*
X015195Y000450D02*
X015348Y000450D01*
X016050Y001929D02*
X016050Y002159D01*
X016127Y002236D01*
X016434Y002236D01*
X016510Y002159D01*
X016510Y001929D01*
X016050Y001929D01*
X016050Y002390D02*
X016050Y002697D01*
X016050Y002543D02*
X016510Y002543D01*
X016357Y002390D01*
X016407Y003300D02*
X016330Y003377D01*
X016330Y003530D01*
X016253Y003607D01*
X016177Y003607D01*
X016100Y003530D01*
X016100Y003377D01*
X016177Y003300D01*
X016407Y003300D02*
X016484Y003300D01*
X016560Y003377D01*
X016560Y003530D01*
X016484Y003607D01*
X016484Y003760D02*
X016407Y003760D01*
X016330Y003837D01*
X016330Y003991D01*
X016253Y004067D01*
X016177Y004067D01*
X016100Y003991D01*
X016100Y003837D01*
X016177Y003760D01*
X016484Y003760D02*
X016560Y003837D01*
X016560Y003991D01*
X016484Y004067D01*
X016407Y004221D02*
X016560Y004374D01*
X016100Y004374D01*
X016100Y004221D02*
X016100Y004528D01*
X016330Y004681D02*
X016330Y004988D01*
X016100Y004911D02*
X016560Y004911D01*
X016330Y004681D01*
X012660Y005200D02*
X012353Y005200D01*
X012507Y005200D02*
X012507Y005660D01*
X012660Y005507D01*
X012200Y005584D02*
X012123Y005660D01*
X011969Y005660D01*
X011893Y005584D01*
X012200Y005277D01*
X012123Y005200D01*
X011969Y005200D01*
X011893Y005277D01*
X011893Y005584D01*
X011739Y005584D02*
X011662Y005660D01*
X011509Y005660D01*
X011432Y005584D01*
X011739Y005277D01*
X011662Y005200D01*
X011509Y005200D01*
X011432Y005277D01*
X011432Y005584D01*
X011279Y005660D02*
X011279Y005200D01*
X011279Y005353D02*
X011049Y005200D01*
X010964Y005200D02*
X010658Y005200D01*
X010811Y005200D02*
X010811Y005660D01*
X010964Y005507D01*
X011049Y005507D02*
X011279Y005353D01*
X011739Y005277D02*
X011739Y005584D01*
X012200Y005584D02*
X012200Y005277D01*
X010504Y005277D02*
X010197Y005584D01*
X010197Y005277D01*
X010274Y005200D01*
X010427Y005200D01*
X010504Y005277D01*
X010504Y005584D01*
X010427Y005660D01*
X010274Y005660D01*
X010197Y005584D01*
X010044Y005660D02*
X010044Y005200D01*
X010044Y005353D02*
X009813Y005200D01*
X010044Y005353D02*
X009813Y005507D01*
X020100Y004911D02*
X020560Y004911D01*
X020330Y004681D01*
X020330Y004988D01*
X020100Y004528D02*
X020100Y004221D01*
X020100Y004374D02*
X020560Y004374D01*
X020407Y004221D01*
X020484Y004067D02*
X020560Y003991D01*
X020560Y003837D01*
X020484Y003760D01*
X020407Y003760D01*
X020330Y003837D01*
X020330Y003991D01*
X020253Y004067D01*
X020177Y004067D01*
X020100Y003991D01*
X020100Y003837D01*
X020177Y003760D01*
X020177Y003607D02*
X020100Y003530D01*
X020100Y003377D01*
X020177Y003300D01*
X020330Y003377D02*
X020330Y003530D01*
X020253Y003607D01*
X020177Y003607D01*
X020330Y003377D02*
X020407Y003300D01*
X020484Y003300D01*
X020560Y003377D01*
X020560Y003530D01*
X020484Y003607D01*
X021913Y003550D02*
X022373Y003550D01*
X022143Y003320D01*
X022143Y003627D01*
X021989Y003780D02*
X021989Y003857D01*
X021913Y003857D01*
X021913Y003780D01*
X021989Y003780D01*
X021989Y004011D02*
X021913Y004011D01*
X021989Y004011D02*
X022296Y004318D01*
X022373Y004318D01*
X022373Y004011D01*
X022220Y004471D02*
X021989Y004471D01*
X021913Y004548D01*
X021913Y004778D01*
X022220Y004778D01*
X022143Y004931D02*
X022143Y005085D01*
X022373Y004931D02*
X022373Y005238D01*
X022373Y004931D02*
X021913Y004931D01*
X021834Y002837D02*
X021834Y002530D01*
X021834Y002684D02*
X022294Y002684D01*
X022141Y002530D01*
X022218Y002377D02*
X022294Y002300D01*
X022294Y002147D01*
X022218Y002070D01*
X021911Y002070D01*
X021834Y002147D01*
X021834Y002300D01*
X021911Y002377D01*
X020510Y002466D02*
X020510Y002620D01*
X020434Y002697D01*
X020357Y002697D01*
X020280Y002620D01*
X020203Y002697D01*
X020127Y002697D01*
X020050Y002620D01*
X020050Y002466D01*
X020127Y002390D01*
X020127Y002236D02*
X020434Y002236D01*
X020510Y002159D01*
X020510Y001929D01*
X020050Y001929D01*
X020050Y002159D01*
X020127Y002236D01*
X020434Y002390D02*
X020510Y002466D01*
X020280Y002543D02*
X020280Y002620D01*
X026620Y008200D02*
X026620Y008660D01*
X026313Y008660D01*
X026467Y008430D02*
X026620Y008430D01*
X026774Y008430D02*
X026774Y008200D01*
X026774Y008430D02*
X026851Y008507D01*
X027081Y008507D01*
X027081Y008200D01*
X027234Y008277D02*
X027311Y008200D01*
X027464Y008200D01*
X027541Y008277D01*
X027234Y008584D01*
X027234Y008277D01*
X027541Y008277D02*
X027541Y008584D01*
X027464Y008660D01*
X027311Y008660D01*
X027234Y008584D01*
X027695Y008584D02*
X028002Y008277D01*
X027925Y008200D01*
X027771Y008200D01*
X027695Y008277D01*
X027695Y008584D01*
X027771Y008660D01*
X027925Y008660D01*
X028002Y008584D01*
X028002Y008277D01*
X028155Y008200D02*
X028462Y008200D01*
X028309Y008200D02*
X028309Y008660D01*
X028462Y008507D01*
X028462Y009700D02*
X028155Y009700D01*
X028309Y009700D02*
X028309Y010160D01*
X028462Y010007D01*
X028002Y010084D02*
X027925Y010160D01*
X027771Y010160D01*
X027695Y010084D01*
X028002Y009777D01*
X027925Y009700D01*
X027771Y009700D01*
X027695Y009777D01*
X027695Y010084D01*
X027541Y010084D02*
X027464Y010160D01*
X027311Y010160D01*
X027234Y010084D01*
X027541Y009777D01*
X027464Y009700D01*
X027311Y009700D01*
X027234Y009777D01*
X027234Y010084D01*
X027081Y010007D02*
X026851Y010007D01*
X026774Y009930D01*
X026774Y009700D01*
X026620Y009700D02*
X026620Y010160D01*
X026313Y010160D01*
X027081Y010007D02*
X027081Y009700D01*
X027541Y009777D02*
X027541Y010084D01*
X028002Y010084D02*
X028002Y009777D01*
X026620Y009930D02*
X026467Y009930D01*
X025430Y012200D02*
X025430Y012660D01*
X025660Y012430D01*
X025353Y012430D01*
X025200Y012277D02*
X025123Y012277D01*
X025123Y012200D01*
X025200Y012200D01*
X025200Y012277D01*
X024969Y012277D02*
X024969Y012200D01*
X024969Y012277D02*
X024662Y012584D01*
X024662Y012660D01*
X024969Y012660D01*
X024509Y012660D02*
X024509Y012200D01*
X024509Y012353D02*
X024279Y012507D01*
X024509Y012353D02*
X024279Y012200D01*
X022410Y012430D02*
X022180Y012660D01*
X022180Y012200D01*
X021950Y012200D02*
X021950Y012277D01*
X021873Y012277D01*
X021873Y012200D01*
X021950Y012200D01*
X021719Y012200D02*
X021719Y012277D01*
X021412Y012584D01*
X021412Y012660D01*
X021719Y012660D01*
X022103Y012430D02*
X022410Y012430D01*
X021259Y012353D02*
X021029Y012200D01*
X021259Y012200D02*
X021259Y012660D01*
X021029Y012507D02*
X021259Y012353D01*
X019310Y013375D02*
X019310Y013835D01*
X019157Y013682D01*
X019003Y013835D01*
X019003Y013375D01*
X018850Y013375D02*
X018850Y013835D01*
X018696Y013682D01*
X018543Y013835D01*
X018543Y013375D01*
X018389Y013375D02*
X018159Y013375D01*
X018082Y013452D01*
X018082Y013528D01*
X018159Y013605D01*
X018389Y013605D01*
X018159Y013605D02*
X018082Y013682D01*
X018082Y013759D01*
X018159Y013835D01*
X018389Y013835D01*
X018389Y013375D01*
X017775Y013375D02*
X017775Y013835D01*
X017622Y013835D02*
X017929Y013835D01*
X017468Y013759D02*
X017392Y013835D01*
X017238Y013835D01*
X017162Y013759D01*
X017162Y013682D01*
X017238Y013605D01*
X017162Y013528D01*
X017162Y013452D01*
X017238Y013375D01*
X017392Y013375D01*
X017468Y013452D01*
X017315Y013605D02*
X017238Y013605D01*
X017008Y013682D02*
X016931Y013605D01*
X016701Y013605D01*
X016701Y013452D02*
X016701Y013759D01*
X016778Y013835D01*
X016931Y013835D01*
X017008Y013759D01*
X017008Y013682D01*
X016548Y013759D02*
X016471Y013835D01*
X016317Y013835D01*
X016241Y013759D01*
X016548Y013452D01*
X016471Y013375D01*
X016317Y013375D01*
X016241Y013452D01*
X016241Y013759D01*
X016087Y013605D02*
X015934Y013759D01*
X015780Y013835D01*
X015857Y013605D02*
X015780Y013528D01*
X015780Y013452D01*
X015857Y013375D01*
X016011Y013375D01*
X016087Y013452D01*
X016087Y013605D01*
X015857Y013605D01*
X016548Y013452D02*
X016548Y013759D01*
X016701Y013452D02*
X016778Y013375D01*
X016931Y013375D01*
X017008Y013452D01*
X019743Y013750D02*
X020050Y013750D01*
X019743Y014057D01*
X019743Y014134D01*
X019819Y014210D01*
X019973Y014210D01*
X020050Y014134D01*
X020203Y014134D02*
X020203Y013827D01*
X020280Y013750D01*
X020433Y013750D01*
X020510Y013827D01*
X020510Y014134D01*
X020433Y014210D01*
X020280Y014210D01*
X020203Y014134D01*
X020357Y013903D02*
X020203Y013750D01*
X008810Y010170D02*
X008810Y010016D01*
X008734Y009940D01*
X008734Y009786D02*
X008810Y009709D01*
X008810Y009556D01*
X008734Y009479D01*
X008427Y009479D01*
X008350Y009556D01*
X008350Y009709D01*
X008427Y009786D01*
X008350Y009940D02*
X008657Y010247D01*
X008734Y010247D01*
X008810Y010170D01*
X008350Y010247D02*
X008350Y009940D01*
X008350Y009326D02*
X008350Y009172D01*
X008350Y009249D02*
X008810Y009249D01*
X008810Y009172D02*
X008810Y009326D01*
X005041Y010702D02*
X004888Y010548D01*
X004734Y010702D01*
X004734Y011009D01*
X004581Y011009D02*
X004351Y011009D01*
X004274Y010932D01*
X004274Y010779D01*
X004351Y010702D01*
X004581Y010702D01*
X004581Y010548D02*
X004581Y011009D01*
X005041Y011009D02*
X005041Y010702D01*
X004427Y010702D02*
X004274Y010548D01*
X004120Y010548D02*
X003813Y010548D01*
X003967Y010548D02*
X003967Y011009D01*
X004120Y010855D01*
X004044Y012846D02*
X004044Y013306D01*
X004197Y013229D02*
X004504Y012922D01*
X004427Y012846D01*
X004274Y012846D01*
X004197Y012922D01*
X004197Y013229D01*
X004274Y013306D01*
X004427Y013306D01*
X004504Y013229D01*
X004504Y012922D01*
X004658Y012846D02*
X004964Y012846D01*
X004811Y012846D02*
X004811Y013306D01*
X004964Y013153D01*
X004044Y012999D02*
X003813Y013153D01*
X004044Y012999D02*
X003813Y012846D01*
X014600Y009897D02*
X014600Y009590D01*
X014600Y009743D02*
X015060Y009743D01*
X014907Y009590D01*
X014984Y009436D02*
X015060Y009359D01*
X015060Y009206D01*
X014984Y009129D01*
X014677Y009129D01*
X014600Y009206D01*
X014600Y009359D01*
X014677Y009436D01*
X014600Y008976D02*
X014600Y008822D01*
X014600Y008899D02*
X015060Y008899D01*
X015060Y008822D02*
X015060Y008976D01*
X034622Y013623D02*
X034929Y013623D01*
X034929Y013163D01*
X035082Y013163D02*
X035082Y013470D01*
X034929Y013393D02*
X034775Y013393D01*
X035312Y013163D02*
X035389Y013239D01*
X035389Y013470D01*
X035542Y013546D02*
X035849Y013239D01*
X035849Y013163D01*
X036003Y013163D02*
X036080Y013163D01*
X036080Y013239D01*
X036003Y013239D01*
X036003Y013163D01*
X036310Y013163D02*
X036310Y013623D01*
X036540Y013393D01*
X036233Y013393D01*
X035849Y013623D02*
X035542Y013623D01*
X035542Y013546D01*
X035312Y013163D02*
X035082Y013163D01*
X041950Y011351D02*
X041950Y011198D01*
X042027Y011121D01*
X042334Y011428D01*
X042027Y011428D01*
X041950Y011351D01*
X042027Y011121D02*
X042334Y011121D01*
X042410Y011198D01*
X042410Y011351D01*
X042334Y011428D01*
X042334Y010967D02*
X042027Y010660D01*
X041950Y010737D01*
X041950Y010891D01*
X042027Y010967D01*
X042334Y010967D01*
X042410Y010891D01*
X042410Y010737D01*
X042334Y010660D01*
X042027Y010660D01*
X041950Y010507D02*
X041950Y010200D01*
X041950Y010353D02*
X042410Y010353D01*
X042257Y010200D01*
X042323Y008660D02*
X042170Y008507D01*
X042170Y008200D01*
X042170Y008430D02*
X042477Y008430D01*
X042477Y008507D02*
X042323Y008660D01*
X042477Y008507D02*
X042477Y008200D01*
X042630Y008200D02*
X042937Y008200D01*
X042630Y008507D01*
X042630Y008584D01*
X042707Y008660D01*
X042861Y008660D01*
X042937Y008584D01*
X043091Y008584D02*
X043091Y008507D01*
X043398Y008200D01*
X043091Y008200D01*
X043551Y008200D02*
X043858Y008200D01*
X043551Y008507D01*
X043551Y008584D01*
X043628Y008660D01*
X043781Y008660D01*
X043858Y008584D01*
X044012Y008584D02*
X044088Y008660D01*
X044242Y008660D01*
X044318Y008584D01*
X044472Y008660D02*
X044779Y008660D01*
X044625Y008660D02*
X044625Y008200D01*
X044318Y008200D02*
X044012Y008507D01*
X044012Y008584D01*
X043398Y008584D02*
X043321Y008660D01*
X043167Y008660D01*
X043091Y008584D01*
X044012Y008200D02*
X044318Y008200D01*
X044932Y008277D02*
X045009Y008200D01*
X045239Y008200D01*
X045239Y008660D01*
X045009Y008660D01*
X044932Y008584D01*
X044932Y008507D01*
X045009Y008430D01*
X045239Y008430D01*
X045009Y008430D02*
X044932Y008353D01*
X044932Y008277D01*
X045393Y008200D02*
X045393Y008660D01*
X045546Y008507D01*
X045700Y008660D01*
X045700Y008200D01*
X045853Y008200D02*
X045853Y008660D01*
X046007Y008507D01*
X046160Y008660D01*
X046160Y008200D01*
X047950Y010200D02*
X048257Y010507D01*
X048334Y010507D01*
X048410Y010430D01*
X048410Y010277D01*
X048334Y010200D01*
X047950Y010200D02*
X047950Y010507D01*
X047950Y010660D02*
X048257Y010967D01*
X048334Y010967D01*
X048410Y010891D01*
X048410Y010737D01*
X048334Y010660D01*
X047950Y010660D02*
X047950Y010967D01*
X052450Y011198D02*
X052527Y011121D01*
X052834Y011428D01*
X052527Y011428D01*
X052450Y011351D01*
X052450Y011198D01*
X052527Y011121D02*
X052834Y011121D01*
X052910Y011198D01*
X052910Y011351D01*
X052834Y011428D01*
X052834Y010967D02*
X052527Y010660D01*
X052450Y010660D01*
X052680Y010507D02*
X052680Y010200D01*
X052910Y010430D01*
X052450Y010430D01*
X052910Y010660D02*
X052910Y010967D01*
X052834Y010967D01*
D12*
X005180Y008680D02*
X004680Y008680D01*
X004180Y007680D01*
X004680Y007680D02*
X005180Y007680D01*
X005180Y006680D02*
X004680Y006680D01*
X004180Y005680D01*
X004680Y005680D02*
X005180Y005680D01*
X005180Y002680D02*
X004680Y002680D01*
X004180Y001680D01*
X004680Y001680D02*
X005180Y001680D01*
D13*
X008285Y001785D02*
X008285Y001860D01*
X008360Y001935D01*
X008510Y001935D01*
X008585Y001860D01*
X008746Y001860D02*
X008746Y001710D01*
X008821Y001635D01*
X009046Y001635D01*
X009046Y001485D02*
X009046Y001935D01*
X008821Y001935D01*
X008746Y001860D01*
X008585Y001485D02*
X008285Y001785D01*
X008285Y001485D02*
X008585Y001485D01*
X009281Y001560D02*
X009281Y001935D01*
X009356Y001935D02*
X009206Y001935D01*
X009281Y001560D02*
X009356Y001485D01*
X009431Y001485D01*
X009506Y001560D01*
X009305Y005605D02*
X009080Y005605D01*
X009005Y005680D01*
X009005Y005980D01*
X009080Y006055D01*
X009305Y006055D01*
X009305Y005605D01*
X008845Y005605D02*
X008544Y005905D01*
X008544Y005980D01*
X008619Y006055D01*
X008770Y006055D01*
X008845Y005980D01*
X010144Y005930D02*
X010370Y005930D01*
X010445Y006005D01*
X010445Y006080D01*
X010370Y006155D01*
X010219Y006155D01*
X010144Y006080D01*
X010144Y005780D01*
X010219Y005705D01*
X010370Y005705D01*
X010445Y005780D01*
X010605Y005705D02*
X010755Y005855D01*
X010680Y005855D02*
X010905Y005855D01*
X010905Y005705D02*
X010905Y006155D01*
X010680Y006155D01*
X010605Y006080D01*
X010605Y005930D01*
X010680Y005855D01*
X011565Y005705D02*
X011865Y005705D01*
X011715Y005705D02*
X011715Y006155D01*
X011865Y006005D01*
X012026Y005930D02*
X012101Y005855D01*
X012326Y005855D01*
X012326Y005705D02*
X012326Y006155D01*
X012101Y006155D01*
X012026Y006080D01*
X012026Y005930D01*
X012176Y005855D02*
X012026Y005705D01*
X008845Y005605D02*
X008544Y005605D01*
X023815Y002330D02*
X023815Y002255D01*
X023890Y002180D01*
X023815Y002105D01*
X023815Y002030D01*
X023890Y001955D01*
X024040Y001955D01*
X024115Y002030D01*
X023965Y002180D02*
X023890Y002180D01*
X023815Y002330D02*
X023890Y002405D01*
X024040Y002405D01*
X024115Y002330D01*
X024276Y002330D02*
X024276Y002180D01*
X024351Y002105D01*
X024576Y002105D01*
X024576Y001955D02*
X024576Y002405D01*
X024351Y002405D01*
X024276Y002330D01*
X024736Y002405D02*
X024886Y002405D01*
X024811Y002405D02*
X024811Y002030D01*
X024886Y001955D01*
X024961Y001955D01*
X025036Y002030D01*
X024890Y008955D02*
X024890Y009405D01*
X025115Y009180D01*
X024815Y009180D01*
X025276Y009030D02*
X025351Y008955D01*
X025501Y008955D01*
X025576Y009030D01*
X025576Y009330D01*
X025501Y009405D01*
X025351Y009405D01*
X025276Y009330D01*
X025351Y010455D02*
X025276Y010530D01*
X025351Y010455D02*
X025501Y010455D01*
X025576Y010530D01*
X025576Y010830D01*
X025501Y010905D01*
X025351Y010905D01*
X025276Y010830D01*
X025115Y010830D02*
X025040Y010905D01*
X024890Y010905D01*
X024815Y010830D01*
X024815Y010755D01*
X024890Y010680D01*
X024815Y010605D01*
X024815Y010530D01*
X024890Y010455D01*
X025040Y010455D01*
X025115Y010530D01*
X024965Y010680D02*
X024890Y010680D01*
X024969Y013705D02*
X024894Y013780D01*
X024894Y013930D01*
X024969Y014005D01*
X025044Y014005D01*
X025195Y013930D01*
X025195Y014155D01*
X024894Y014155D01*
X025355Y014080D02*
X025355Y013930D01*
X025430Y013855D01*
X025655Y013855D01*
X025655Y013705D02*
X025655Y014155D01*
X025430Y014155D01*
X025355Y014080D01*
X025505Y013855D02*
X025355Y013705D01*
X025195Y013780D02*
X025120Y013705D01*
X024969Y013705D01*
X022405Y013705D02*
X022405Y014155D01*
X022180Y014155D01*
X022105Y014080D01*
X022105Y013930D01*
X022180Y013855D01*
X022405Y013855D01*
X022255Y013855D02*
X022105Y013705D01*
X021945Y013780D02*
X021945Y013855D01*
X021870Y013930D01*
X021719Y013930D01*
X021644Y013855D01*
X021644Y013780D01*
X021719Y013705D01*
X021870Y013705D01*
X021945Y013780D01*
X021870Y013930D02*
X021945Y014005D01*
X021945Y014080D01*
X021870Y014155D01*
X021719Y014155D01*
X021644Y014080D01*
X021644Y014005D01*
X021719Y013930D01*
X037524Y013839D02*
X037825Y013839D01*
X037524Y014139D01*
X037524Y014214D01*
X037599Y014289D01*
X037749Y014289D01*
X037825Y014214D01*
X037985Y014214D02*
X038060Y014289D01*
X038210Y014289D01*
X038285Y014214D01*
X038285Y013914D01*
X038210Y013839D01*
X038060Y013839D01*
X037985Y013914D01*
X040719Y009405D02*
X040870Y009405D01*
X040945Y009330D01*
X041105Y009330D02*
X041105Y009180D01*
X041180Y009105D01*
X041405Y009105D01*
X041405Y008955D02*
X041405Y009405D01*
X041180Y009405D01*
X041105Y009330D01*
X040719Y009405D02*
X040644Y009330D01*
X040644Y009255D01*
X040945Y008955D01*
X040644Y008955D01*
X041105Y008955D02*
X041255Y009105D01*
X043644Y008955D02*
X043945Y008955D01*
X043794Y008955D02*
X043794Y009405D01*
X043945Y009255D01*
X044105Y009330D02*
X044105Y009030D01*
X044180Y008955D01*
X044330Y008955D01*
X044405Y009030D01*
X044405Y009330D01*
X044330Y009405D01*
X044180Y009405D01*
X044105Y009330D01*
X044255Y009105D02*
X044105Y008955D01*
X046644Y009180D02*
X046945Y009180D01*
X046719Y009405D01*
X046719Y008955D01*
X047105Y008955D02*
X047255Y009105D01*
X047180Y009105D02*
X047405Y009105D01*
X047405Y008955D02*
X047405Y009405D01*
X047180Y009405D01*
X047105Y009330D01*
X047105Y009180D01*
X047180Y009105D01*
X051144Y009105D02*
X051144Y009030D01*
X051219Y008955D01*
X051370Y008955D01*
X051445Y009030D01*
X051605Y008955D02*
X051755Y009105D01*
X051680Y009105D02*
X051905Y009105D01*
X051905Y008955D02*
X051905Y009405D01*
X051680Y009405D01*
X051605Y009330D01*
X051605Y009180D01*
X051680Y009105D01*
X051294Y009180D02*
X051219Y009180D01*
X051144Y009105D01*
X051219Y009180D02*
X051144Y009255D01*
X051144Y009330D01*
X051219Y009405D01*
X051370Y009405D01*
X051445Y009330D01*
X005290Y011320D02*
X003930Y011320D01*
X003930Y011680D01*
X004080Y011680D01*
X004080Y012180D01*
X003930Y012180D01*
X003930Y012540D01*
X005290Y012540D01*
X005290Y011320D01*
D14*
X008609Y004836D02*
X008609Y003024D01*
X008786Y003024D01*
X009574Y003024D02*
X009751Y003024D01*
X009751Y004836D01*
X009574Y004836D01*
X008786Y004836D02*
X008609Y004836D01*
X008786Y004324D02*
X009574Y004324D01*
X016609Y002586D02*
X016609Y000774D01*
X016786Y000774D01*
X017574Y000774D02*
X017751Y000774D01*
X017751Y002586D01*
X017574Y002586D01*
X018609Y002586D02*
X018609Y000774D01*
X018786Y000774D01*
X019574Y000774D02*
X019751Y000774D01*
X019751Y002586D01*
X019574Y002586D01*
X018786Y002586D02*
X018609Y002586D01*
X016786Y002586D02*
X016609Y002586D01*
X016786Y001286D02*
X017574Y001286D01*
X018786Y001286D02*
X019574Y001286D01*
D15*
X009325Y004110D02*
X009300Y004085D01*
X009250Y004085D01*
X009225Y004110D01*
X009225Y004135D01*
X009250Y004160D01*
X009300Y004160D01*
X009325Y004185D01*
X009325Y004210D01*
X009300Y004235D01*
X009250Y004235D01*
X009225Y004210D01*
X009178Y004210D02*
X009178Y004185D01*
X009153Y004160D01*
X009103Y004160D01*
X009078Y004135D01*
X009078Y004110D01*
X009103Y004085D01*
X009153Y004085D01*
X009178Y004110D01*
X009178Y004210D02*
X009153Y004235D01*
X009103Y004235D01*
X009078Y004210D01*
X009030Y004185D02*
X008980Y004235D01*
X008980Y004085D01*
X009030Y004085D02*
X008930Y004085D01*
X008883Y004160D02*
X008783Y004160D01*
X008808Y004085D02*
X008808Y004235D01*
X008883Y004160D01*
M02*
