G75*
%MOIN*%
%OFA0B0*%
%FSLAX24Y24*%
%IPPOS*%
%LPD*%
%AMOC8*
5,1,8,0,0,1.08239X$1,22.5*
%
%ADD10C,0.0120*%
%ADD11OC8,0.0520*%
%ADD12R,0.0512X0.0591*%
%ADD13C,0.0600*%
%ADD14OC8,0.0600*%
%ADD15R,0.0710X0.0440*%
%ADD16C,0.0660*%
%ADD17C,0.0520*%
%ADD18C,0.0560*%
%ADD19C,0.0160*%
D10*
X001239Y005740D02*
X001239Y006327D01*
X001239Y006661D02*
X001239Y007101D01*
X001386Y007248D01*
X001680Y007248D01*
X001826Y007101D01*
X001826Y006661D01*
X002120Y006661D02*
X001239Y006661D01*
X001826Y006954D02*
X002120Y007248D01*
X001973Y007582D02*
X001386Y007582D01*
X001239Y007728D01*
X001239Y008022D01*
X001386Y008169D01*
X001973Y008169D01*
X002120Y008022D01*
X002120Y007728D01*
X001973Y007582D01*
X002120Y008502D02*
X001239Y008502D01*
X002120Y009090D01*
X001239Y009090D01*
X001239Y009423D02*
X001239Y010010D01*
X001239Y009717D02*
X002120Y009717D01*
X009180Y012180D02*
X019180Y012180D01*
X001680Y006034D02*
X001680Y005740D01*
X002120Y005740D02*
X001239Y005740D01*
D11*
X041180Y012680D03*
X042180Y012680D03*
X044180Y012680D03*
X045180Y012680D03*
X047180Y012680D03*
X048180Y012680D03*
X051180Y012680D03*
X052180Y012680D03*
D12*
X021554Y009180D03*
X020806Y009180D03*
X011054Y008680D03*
X010306Y008680D03*
D13*
X005980Y008680D02*
X005380Y008680D01*
X005380Y007680D02*
X005980Y007680D01*
X005980Y006680D02*
X005380Y006680D01*
X005380Y005680D02*
X005980Y005680D01*
X005980Y004680D02*
X005380Y004680D01*
X005380Y003680D02*
X005980Y003680D01*
X005980Y002680D02*
X005380Y002680D01*
X005380Y001680D02*
X005980Y001680D01*
X010180Y001980D02*
X010180Y001380D01*
X011180Y001380D02*
X011180Y001980D01*
X012180Y001980D02*
X012180Y001380D01*
X013180Y001380D02*
X013180Y001980D01*
X014180Y001980D02*
X014180Y001380D01*
X015180Y001380D02*
X015180Y001980D01*
D14*
X025680Y001680D03*
X026680Y001680D03*
X027680Y001680D03*
X028680Y001680D03*
X029680Y001680D03*
X029680Y002680D03*
X028680Y002680D03*
X027680Y002680D03*
X026680Y002680D03*
X025680Y002680D03*
X043180Y012680D03*
X046180Y012680D03*
X049180Y012680D03*
X050180Y012680D03*
D15*
X040400Y007410D03*
X037960Y007410D03*
X036400Y007410D03*
X033960Y007410D03*
X033960Y005950D03*
X036400Y005950D03*
X037960Y005950D03*
X040400Y005950D03*
X040400Y003410D03*
X041960Y003410D03*
X044400Y003410D03*
X045960Y003410D03*
X048400Y003410D03*
X049960Y003410D03*
X052400Y003410D03*
X052400Y001950D03*
X049960Y001950D03*
X048400Y001950D03*
X045960Y001950D03*
X044400Y001950D03*
X041960Y001950D03*
X040400Y001950D03*
X037960Y001950D03*
X036400Y001950D03*
X033960Y001950D03*
X033960Y003410D03*
X036400Y003410D03*
X037960Y003410D03*
D16*
X019182Y014152D03*
X018182Y014152D03*
X017182Y014152D03*
X016182Y014152D03*
X015182Y014152D03*
X014182Y014152D03*
X013182Y014152D03*
X012182Y014152D03*
X011182Y014152D03*
X010182Y014152D03*
X009182Y014152D03*
X008182Y014152D03*
X007182Y014152D03*
X006182Y014152D03*
X005182Y014152D03*
X004182Y014152D03*
D17*
X036695Y011930D02*
X036695Y011410D01*
X037680Y011410D02*
X037680Y011930D01*
X038664Y011930D02*
X038664Y011410D01*
D18*
X032180Y010180D03*
X029680Y010180D03*
X020180Y010180D03*
X015680Y010180D03*
X013180Y010180D03*
X008680Y008680D03*
X015680Y008180D03*
X020180Y008180D03*
X020180Y006180D03*
X019680Y005680D03*
X019180Y005180D03*
X018680Y004680D03*
X017680Y004680D03*
X017180Y005180D03*
X016680Y005680D03*
X016180Y006180D03*
X018180Y004180D03*
X016680Y003680D03*
X021180Y003180D03*
X023180Y002680D03*
X024680Y003680D03*
X026680Y003680D03*
X025680Y004680D03*
X025180Y005180D03*
X024680Y005680D03*
X010680Y002680D03*
X041180Y002680D03*
X045180Y002680D03*
X041180Y005180D03*
X041180Y006680D03*
X019180Y012180D03*
X018680Y012680D03*
X018180Y013180D03*
X009180Y012180D03*
X007180Y012680D03*
X005180Y013180D03*
D19*
X003180Y015405D02*
X003180Y000580D01*
X023964Y000580D01*
X023591Y000953D01*
X023530Y001100D01*
X023530Y002181D01*
X023520Y002171D01*
X023299Y002080D01*
X023061Y002080D01*
X022840Y002171D01*
X022731Y002280D01*
X015727Y002280D01*
X015800Y002103D01*
X015800Y001257D01*
X015706Y001029D01*
X015531Y000854D01*
X015303Y000760D01*
X015057Y000760D01*
X014829Y000854D01*
X014680Y001003D01*
X014531Y000854D01*
X014303Y000760D01*
X014057Y000760D01*
X013829Y000854D01*
X013680Y001003D01*
X013531Y000854D01*
X013303Y000760D01*
X013057Y000760D01*
X012829Y000854D01*
X012654Y001029D01*
X012603Y001153D01*
X012591Y001128D01*
X012546Y001067D01*
X012493Y001014D01*
X012432Y000969D01*
X012364Y000935D01*
X012292Y000912D01*
X012218Y000900D01*
X012200Y000900D01*
X012200Y001660D01*
X012160Y001660D01*
X012160Y000900D01*
X012142Y000900D01*
X012068Y000912D01*
X011996Y000935D01*
X011928Y000969D01*
X011867Y001014D01*
X011814Y001067D01*
X011769Y001128D01*
X011757Y001153D01*
X011706Y001029D01*
X011531Y000854D01*
X011303Y000760D01*
X011057Y000760D01*
X010829Y000854D01*
X010680Y001003D01*
X010531Y000854D01*
X010303Y000760D01*
X010057Y000760D01*
X009829Y000854D01*
X009654Y001029D01*
X009560Y001257D01*
X009560Y002103D01*
X009654Y002331D01*
X009829Y002506D01*
X010057Y002600D01*
X010080Y002600D01*
X010080Y002799D01*
X010171Y003020D01*
X010340Y003189D01*
X010561Y003280D01*
X010799Y003280D01*
X011020Y003189D01*
X011129Y003080D01*
X022731Y003080D01*
X022840Y003189D01*
X023061Y003280D01*
X023264Y003280D01*
X023264Y003280D01*
X017850Y003280D01*
X017703Y003341D01*
X017453Y003591D01*
X017341Y003703D01*
X017280Y003850D01*
X017280Y004231D01*
X017171Y004340D01*
X017080Y004561D01*
X017080Y004580D01*
X017061Y004580D01*
X016840Y004671D01*
X016731Y004780D01*
X014850Y004780D01*
X014703Y004841D01*
X013953Y005591D01*
X013841Y005703D01*
X013780Y005850D01*
X013780Y011010D01*
X013841Y011157D01*
X013953Y011269D01*
X014484Y011800D01*
X009649Y011800D01*
X009520Y011671D01*
X009299Y011580D01*
X009061Y011580D01*
X008840Y011671D01*
X008671Y011840D01*
X008580Y012061D01*
X008580Y012280D01*
X007629Y012280D01*
X007520Y012171D01*
X007299Y012080D01*
X007061Y012080D01*
X006840Y012171D01*
X006671Y012340D01*
X006580Y012561D01*
X006580Y012780D01*
X005629Y012780D01*
X005580Y012731D01*
X005580Y011346D01*
X007846Y009080D01*
X008231Y009080D01*
X008340Y009189D01*
X008561Y009280D01*
X008799Y009280D01*
X009020Y009189D01*
X009129Y009080D01*
X009747Y009080D01*
X009779Y009157D01*
X009869Y009247D01*
X009986Y009295D01*
X010626Y009295D01*
X010743Y009247D01*
X010833Y009157D01*
X010834Y009155D01*
X011006Y009155D01*
X011006Y008728D01*
X011102Y008728D01*
X011102Y009155D01*
X011334Y009155D01*
X011379Y009143D01*
X011420Y009119D01*
X011454Y009086D01*
X011478Y009045D01*
X011490Y008999D01*
X011490Y008728D01*
X011102Y008728D01*
X011102Y008632D01*
X011102Y008205D01*
X011334Y008205D01*
X011379Y008217D01*
X011420Y008241D01*
X011454Y008274D01*
X011478Y008315D01*
X011490Y008361D01*
X011490Y008632D01*
X011102Y008632D01*
X011006Y008632D01*
X011006Y008205D01*
X010834Y008205D01*
X010833Y008203D01*
X010743Y008113D01*
X010626Y008065D01*
X009986Y008065D01*
X009869Y008113D01*
X009779Y008203D01*
X009747Y008280D01*
X009129Y008280D01*
X009020Y008171D01*
X008799Y008080D01*
X008561Y008080D01*
X008340Y008171D01*
X008231Y008280D01*
X007600Y008280D01*
X007453Y008341D01*
X004953Y010841D01*
X004841Y010953D01*
X004780Y011100D01*
X004780Y012731D01*
X004671Y012840D01*
X004580Y013061D01*
X004580Y013299D01*
X004671Y013520D01*
X004783Y013632D01*
X004631Y013784D01*
X004599Y013860D01*
X004571Y013820D01*
X004514Y013763D01*
X004449Y013716D01*
X004377Y013680D01*
X004301Y013655D01*
X004222Y013642D01*
X004200Y013642D01*
X004200Y014134D01*
X004532Y014134D01*
X004532Y014171D01*
X004200Y014171D01*
X004163Y014171D01*
X004163Y014662D01*
X004141Y014662D01*
X004062Y014650D01*
X003986Y014625D01*
X003914Y014589D01*
X003849Y014541D01*
X003793Y014485D01*
X003745Y014420D01*
X003709Y014348D01*
X003684Y014272D01*
X003672Y014193D01*
X003672Y014171D01*
X004163Y014171D01*
X004163Y014134D01*
X003672Y014134D01*
X003672Y014112D01*
X003684Y014033D01*
X003709Y013957D01*
X003745Y013885D01*
X003793Y013820D01*
X003849Y013763D01*
X003914Y013716D01*
X003986Y013680D01*
X004062Y013655D01*
X004141Y013642D01*
X004163Y013642D01*
X004163Y014134D01*
X004200Y014134D01*
X004200Y014171D01*
X004200Y014662D01*
X004222Y014662D01*
X004301Y014650D01*
X004377Y014625D01*
X004449Y014589D01*
X004514Y014541D01*
X004571Y014485D01*
X004599Y014445D01*
X004631Y014521D01*
X004813Y014703D01*
X005052Y014802D01*
X005311Y014802D01*
X005550Y014703D01*
X005682Y014572D01*
X005813Y014703D01*
X006052Y014802D01*
X006311Y014802D01*
X006550Y014703D01*
X006682Y014572D01*
X006813Y014703D01*
X007052Y014802D01*
X007311Y014802D01*
X007550Y014703D01*
X007733Y014521D01*
X007764Y014445D01*
X007793Y014485D01*
X007849Y014541D01*
X007914Y014589D01*
X007986Y014625D01*
X008062Y014650D01*
X008141Y014662D01*
X008163Y014662D01*
X008163Y014171D01*
X008200Y014171D01*
X008200Y014662D01*
X008222Y014662D01*
X008301Y014650D01*
X008377Y014625D01*
X008449Y014589D01*
X008514Y014541D01*
X008571Y014485D01*
X008599Y014445D01*
X008631Y014521D01*
X008813Y014703D01*
X009052Y014802D01*
X009311Y014802D01*
X009550Y014703D01*
X009733Y014521D01*
X009764Y014445D01*
X009793Y014485D01*
X009849Y014541D01*
X009914Y014589D01*
X009986Y014625D01*
X010062Y014650D01*
X010141Y014662D01*
X010163Y014662D01*
X010163Y014171D01*
X010200Y014171D01*
X010200Y014662D01*
X010222Y014662D01*
X010301Y014650D01*
X010377Y014625D01*
X010449Y014589D01*
X010514Y014541D01*
X010571Y014485D01*
X010618Y014420D01*
X010654Y014348D01*
X010679Y014272D01*
X010682Y014256D01*
X010684Y014272D01*
X010709Y014348D01*
X010745Y014420D01*
X010793Y014485D01*
X010849Y014541D01*
X010914Y014589D01*
X010986Y014625D01*
X011062Y014650D01*
X011141Y014662D01*
X011163Y014662D01*
X011163Y014171D01*
X011200Y014171D01*
X011200Y014662D01*
X011222Y014662D01*
X011301Y014650D01*
X011377Y014625D01*
X011449Y014589D01*
X011514Y014541D01*
X011571Y014485D01*
X011618Y014420D01*
X011654Y014348D01*
X011679Y014272D01*
X011682Y014256D01*
X011684Y014272D01*
X011709Y014348D01*
X011745Y014420D01*
X011793Y014485D01*
X011849Y014541D01*
X011914Y014589D01*
X011986Y014625D01*
X012062Y014650D01*
X012141Y014662D01*
X012163Y014662D01*
X012163Y014171D01*
X012200Y014171D01*
X012200Y014662D01*
X012222Y014662D01*
X012301Y014650D01*
X012377Y014625D01*
X012449Y014589D01*
X012514Y014541D01*
X012571Y014485D01*
X012618Y014420D01*
X012654Y014348D01*
X012679Y014272D01*
X012682Y014256D01*
X012684Y014272D01*
X012709Y014348D01*
X012745Y014420D01*
X012793Y014485D01*
X012849Y014541D01*
X012914Y014589D01*
X012986Y014625D01*
X013062Y014650D01*
X013141Y014662D01*
X013163Y014662D01*
X013163Y014171D01*
X013200Y014171D01*
X013200Y014662D01*
X013222Y014662D01*
X013301Y014650D01*
X013377Y014625D01*
X013449Y014589D01*
X013514Y014541D01*
X013571Y014485D01*
X013599Y014445D01*
X013631Y014521D01*
X013813Y014703D01*
X014052Y014802D01*
X014311Y014802D01*
X014550Y014703D01*
X014682Y014572D01*
X014813Y014703D01*
X015052Y014802D01*
X015311Y014802D01*
X015550Y014703D01*
X015682Y014572D01*
X015813Y014703D01*
X016052Y014802D01*
X016311Y014802D01*
X016550Y014703D01*
X016682Y014572D01*
X016813Y014703D01*
X017052Y014802D01*
X017311Y014802D01*
X017550Y014703D01*
X017682Y014572D01*
X017813Y014703D01*
X018052Y014802D01*
X018311Y014802D01*
X018550Y014703D01*
X018733Y014521D01*
X018764Y014445D01*
X018793Y014485D01*
X018849Y014541D01*
X018914Y014589D01*
X018986Y014625D01*
X019062Y014650D01*
X019141Y014662D01*
X019163Y014662D01*
X019163Y014171D01*
X019200Y014171D01*
X019200Y014662D01*
X019222Y014662D01*
X019301Y014650D01*
X019377Y014625D01*
X019449Y014589D01*
X019514Y014541D01*
X019571Y014485D01*
X019618Y014420D01*
X019654Y014348D01*
X019679Y014272D01*
X019692Y014193D01*
X019692Y014171D01*
X019200Y014171D01*
X019200Y014134D01*
X019692Y014134D01*
X019692Y014112D01*
X019679Y014033D01*
X019654Y013957D01*
X019618Y013885D01*
X019571Y013820D01*
X019514Y013763D01*
X019449Y013716D01*
X019377Y013680D01*
X019301Y013655D01*
X019222Y013642D01*
X019200Y013642D01*
X019200Y014134D01*
X019163Y014134D01*
X019163Y013642D01*
X019141Y013642D01*
X019062Y013655D01*
X018986Y013680D01*
X018914Y013716D01*
X018849Y013763D01*
X018793Y013820D01*
X018764Y013860D01*
X018733Y013784D01*
X018578Y013630D01*
X018689Y013520D01*
X018780Y013299D01*
X018780Y013280D01*
X018799Y013280D01*
X019020Y013189D01*
X019189Y013020D01*
X019280Y012799D01*
X019280Y012780D01*
X019299Y012780D01*
X019520Y012689D01*
X019689Y012520D01*
X019780Y012299D01*
X019780Y012080D01*
X033010Y012080D01*
X033157Y012019D01*
X033269Y011907D01*
X034019Y011157D01*
X034080Y011010D01*
X034080Y009346D01*
X034346Y009080D01*
X036760Y009080D01*
X036907Y009019D01*
X037019Y008907D01*
X037519Y008407D01*
X037580Y008260D01*
X037580Y007950D01*
X038379Y007950D01*
X038496Y007901D01*
X038586Y007811D01*
X038635Y007694D01*
X038635Y007126D01*
X038586Y007009D01*
X038496Y006919D01*
X038379Y006870D01*
X037580Y006870D01*
X037580Y006490D01*
X038379Y006490D01*
X038496Y006441D01*
X038586Y006351D01*
X038635Y006234D01*
X038635Y005666D01*
X038586Y005549D01*
X038496Y005459D01*
X038379Y005410D01*
X037580Y005410D01*
X037580Y003810D01*
X037581Y003810D01*
X037930Y003810D01*
X037930Y003440D01*
X037990Y003440D01*
X037990Y003810D01*
X038339Y003810D01*
X038384Y003798D01*
X038426Y003774D01*
X038459Y003741D01*
X038483Y003699D01*
X038495Y003654D01*
X038495Y003440D01*
X037990Y003440D01*
X037990Y003380D01*
X038495Y003380D01*
X038495Y003166D01*
X038483Y003121D01*
X038459Y003079D01*
X038426Y003046D01*
X038384Y003022D01*
X038339Y003010D01*
X037990Y003010D01*
X037990Y003380D01*
X037930Y003380D01*
X037930Y003010D01*
X037581Y003010D01*
X037580Y003010D01*
X037580Y002490D01*
X038379Y002490D01*
X038496Y002441D01*
X038586Y002351D01*
X038635Y002234D01*
X038635Y001666D01*
X038586Y001549D01*
X038496Y001459D01*
X038379Y001410D01*
X037541Y001410D01*
X037424Y001459D01*
X037352Y001530D01*
X037350Y001530D01*
X037284Y001558D01*
X037216Y001583D01*
X037211Y001588D01*
X037203Y001591D01*
X037152Y001642D01*
X037100Y001691D01*
X037096Y001698D01*
X037075Y001719D01*
X037075Y001666D01*
X037026Y001549D01*
X036936Y001459D01*
X036819Y001410D01*
X035981Y001410D01*
X035864Y001459D01*
X035774Y001549D01*
X035725Y001666D01*
X035725Y002234D01*
X035774Y002351D01*
X035864Y002441D01*
X035981Y002490D01*
X036780Y002490D01*
X036780Y002870D01*
X035981Y002870D01*
X035864Y002919D01*
X035774Y003009D01*
X035725Y003126D01*
X035725Y003694D01*
X035774Y003811D01*
X035864Y003901D01*
X035981Y003950D01*
X036780Y003950D01*
X036780Y005410D01*
X035981Y005410D01*
X035864Y005459D01*
X035774Y005549D01*
X035725Y005666D01*
X035725Y006234D01*
X035774Y006351D01*
X035864Y006441D01*
X035981Y006490D01*
X036780Y006490D01*
X036780Y006870D01*
X035981Y006870D01*
X035864Y006919D01*
X035774Y007009D01*
X035725Y007126D01*
X035725Y007694D01*
X035774Y007811D01*
X035864Y007901D01*
X035981Y007950D01*
X036780Y007950D01*
X036780Y008014D01*
X036514Y008280D01*
X034100Y008280D01*
X033953Y008341D01*
X033580Y008714D01*
X033580Y007810D01*
X033581Y007810D01*
X033930Y007810D01*
X033930Y007440D01*
X033990Y007440D01*
X033990Y007810D01*
X034339Y007810D01*
X034384Y007798D01*
X034426Y007774D01*
X034459Y007741D01*
X034483Y007699D01*
X034495Y007654D01*
X034495Y007440D01*
X033990Y007440D01*
X033990Y007380D01*
X034495Y007380D01*
X034495Y007166D01*
X034483Y007121D01*
X034459Y007079D01*
X034426Y007046D01*
X034384Y007022D01*
X034339Y007010D01*
X033990Y007010D01*
X033990Y007380D01*
X033930Y007380D01*
X033930Y007010D01*
X033581Y007010D01*
X033580Y007010D01*
X033580Y006490D01*
X034379Y006490D01*
X034496Y006441D01*
X034586Y006351D01*
X034635Y006234D01*
X034635Y005666D01*
X034586Y005549D01*
X034496Y005459D01*
X034379Y005410D01*
X033541Y005410D01*
X033424Y005459D01*
X033352Y005530D01*
X033350Y005530D01*
X033284Y005558D01*
X033216Y005583D01*
X033211Y005588D01*
X033203Y005591D01*
X033152Y005642D01*
X033100Y005691D01*
X033096Y005698D01*
X033080Y005714D01*
X033080Y002350D01*
X033333Y002350D01*
X033334Y002351D01*
X033424Y002441D01*
X033541Y002490D01*
X034379Y002490D01*
X034496Y002441D01*
X034586Y002351D01*
X034635Y002234D01*
X034635Y001666D01*
X034586Y001549D01*
X034496Y001459D01*
X034379Y001410D01*
X033541Y001410D01*
X033424Y001459D01*
X033334Y001549D01*
X033333Y001550D01*
X032830Y001550D01*
X032683Y001611D01*
X032453Y001841D01*
X032453Y001841D01*
X032356Y001938D01*
X032356Y001786D01*
X032232Y001488D01*
X032004Y001259D01*
X031705Y001136D01*
X031382Y001136D01*
X031084Y001259D01*
X030855Y001488D01*
X030732Y001786D01*
X030732Y002109D01*
X030855Y002408D01*
X031084Y002636D01*
X031382Y002760D01*
X031705Y002760D01*
X032004Y002636D01*
X032232Y002408D01*
X032280Y002292D01*
X032280Y004214D01*
X031907Y003841D01*
X031760Y003780D01*
X027280Y003780D01*
X027280Y003561D01*
X027189Y003340D01*
X027043Y003194D01*
X027180Y003057D01*
X027423Y003300D01*
X027937Y003300D01*
X028279Y002958D01*
X028481Y003160D01*
X028660Y003160D01*
X028660Y002700D01*
X028700Y002700D01*
X028700Y003160D01*
X028879Y003160D01*
X029081Y002958D01*
X029423Y003300D01*
X029937Y003300D01*
X030300Y002937D01*
X030300Y002423D01*
X030057Y002180D01*
X030300Y001937D01*
X030300Y001423D01*
X029957Y001080D01*
X048514Y001080D01*
X048780Y001346D01*
X048780Y001410D01*
X047981Y001410D01*
X047864Y001459D01*
X047774Y001549D01*
X047725Y001666D01*
X047725Y002234D01*
X047774Y002351D01*
X047864Y002441D01*
X047981Y002490D01*
X048819Y002490D01*
X048936Y002441D01*
X049026Y002351D01*
X049075Y002234D01*
X049075Y002141D01*
X049091Y002157D01*
X049203Y002269D01*
X049320Y002317D01*
X049334Y002351D01*
X049424Y002441D01*
X049541Y002490D01*
X050379Y002490D01*
X050496Y002441D01*
X050586Y002351D01*
X050635Y002234D01*
X050635Y001666D01*
X050586Y001549D01*
X050496Y001459D01*
X050379Y001410D01*
X049580Y001410D01*
X049580Y001100D01*
X049519Y000953D01*
X049407Y000841D01*
X049146Y000580D01*
X053468Y000580D01*
X053468Y015405D01*
X003180Y015405D01*
X003180Y015396D02*
X053468Y015396D01*
X053468Y015238D02*
X003180Y015238D01*
X003180Y015079D02*
X053468Y015079D01*
X053468Y014921D02*
X031811Y014921D01*
X031705Y014964D02*
X032004Y014841D01*
X032232Y014612D01*
X032356Y014314D01*
X032356Y013991D01*
X032232Y013692D01*
X032004Y013464D01*
X031705Y013340D01*
X031382Y013340D01*
X031084Y013464D01*
X030855Y013692D01*
X030732Y013991D01*
X030732Y014314D01*
X030855Y014612D01*
X031084Y014841D01*
X031382Y014964D01*
X031705Y014964D01*
X031276Y014921D02*
X003180Y014921D01*
X003180Y014762D02*
X004955Y014762D01*
X004713Y014604D02*
X004419Y014604D01*
X004200Y014604D02*
X004163Y014604D01*
X004163Y014445D02*
X004200Y014445D01*
X004200Y014287D02*
X004163Y014287D01*
X004163Y014128D02*
X004200Y014128D01*
X004200Y013970D02*
X004163Y013970D01*
X004163Y013811D02*
X004200Y013811D01*
X004200Y013653D02*
X004163Y013653D01*
X004077Y013653D02*
X003180Y013653D01*
X003180Y013811D02*
X003802Y013811D01*
X003705Y013970D02*
X003180Y013970D01*
X003180Y014128D02*
X003672Y014128D01*
X003689Y014287D02*
X003180Y014287D01*
X003180Y014445D02*
X003764Y014445D01*
X003944Y014604D02*
X003180Y014604D01*
X005408Y014762D02*
X005955Y014762D01*
X005713Y014604D02*
X005650Y014604D01*
X006408Y014762D02*
X006955Y014762D01*
X006713Y014604D02*
X006650Y014604D01*
X007408Y014762D02*
X008955Y014762D01*
X008713Y014604D02*
X008419Y014604D01*
X008200Y014604D02*
X008163Y014604D01*
X008163Y014445D02*
X008200Y014445D01*
X008200Y014287D02*
X008163Y014287D01*
X008163Y014134D02*
X008200Y014134D01*
X008200Y013642D01*
X008222Y013642D01*
X008301Y013655D01*
X008377Y013680D01*
X008449Y013716D01*
X008514Y013763D01*
X008571Y013820D01*
X008599Y013860D01*
X008631Y013784D01*
X008813Y013601D01*
X008865Y013580D01*
X007498Y013580D01*
X007550Y013601D01*
X007733Y013784D01*
X007764Y013860D01*
X007793Y013820D01*
X007849Y013763D01*
X007914Y013716D01*
X007986Y013680D01*
X008062Y013655D01*
X008141Y013642D01*
X008163Y013642D01*
X008163Y014134D01*
X008163Y014128D02*
X008200Y014128D01*
X008200Y013970D02*
X008163Y013970D01*
X008163Y013811D02*
X008200Y013811D01*
X008200Y013653D02*
X008163Y013653D01*
X008077Y013653D02*
X007601Y013653D01*
X007744Y013811D02*
X007802Y013811D01*
X008286Y013653D02*
X008762Y013653D01*
X008619Y013811D02*
X008561Y013811D01*
X009498Y013580D02*
X009550Y013601D01*
X009733Y013784D01*
X009764Y013860D01*
X009793Y013820D01*
X009849Y013763D01*
X009914Y013716D01*
X009986Y013680D01*
X010062Y013655D01*
X010141Y013642D01*
X010163Y013642D01*
X010163Y014134D01*
X010200Y014134D01*
X010200Y014171D01*
X011163Y014171D01*
X011163Y014134D01*
X010672Y014134D01*
X010200Y014134D01*
X010200Y013642D01*
X010222Y013642D01*
X010301Y013655D01*
X010377Y013680D01*
X010449Y013716D01*
X010514Y013763D01*
X010571Y013820D01*
X010618Y013885D01*
X010654Y013957D01*
X010679Y014033D01*
X010682Y014049D01*
X010684Y014033D01*
X010709Y013957D01*
X010745Y013885D01*
X010793Y013820D01*
X010849Y013763D01*
X010914Y013716D01*
X010986Y013680D01*
X011062Y013655D01*
X011141Y013642D01*
X011163Y013642D01*
X011163Y014134D01*
X011200Y014134D01*
X011200Y014171D01*
X012163Y014171D01*
X012163Y014134D01*
X011672Y014134D01*
X011200Y014134D01*
X011200Y013642D01*
X011222Y013642D01*
X011301Y013655D01*
X011377Y013680D01*
X011449Y013716D01*
X011514Y013763D01*
X011571Y013820D01*
X011618Y013885D01*
X011654Y013957D01*
X011679Y014033D01*
X011682Y014049D01*
X011684Y014033D01*
X011709Y013957D01*
X011745Y013885D01*
X011793Y013820D01*
X011849Y013763D01*
X011914Y013716D01*
X011986Y013680D01*
X012062Y013655D01*
X012141Y013642D01*
X012163Y013642D01*
X012163Y014134D01*
X012200Y014134D01*
X012200Y014171D01*
X013163Y014171D01*
X013163Y014134D01*
X012672Y014134D01*
X012200Y014134D01*
X012200Y013642D01*
X012222Y013642D01*
X012301Y013655D01*
X012377Y013680D01*
X012449Y013716D01*
X012514Y013763D01*
X012571Y013820D01*
X012618Y013885D01*
X012654Y013957D01*
X012679Y014033D01*
X012682Y014049D01*
X012684Y014033D01*
X012709Y013957D01*
X012745Y013885D01*
X012793Y013820D01*
X012849Y013763D01*
X012914Y013716D01*
X012986Y013680D01*
X013062Y013655D01*
X013141Y013642D01*
X013163Y013642D01*
X013163Y014134D01*
X013200Y014134D01*
X013200Y013642D01*
X013222Y013642D01*
X013301Y013655D01*
X013377Y013680D01*
X013449Y013716D01*
X013514Y013763D01*
X013571Y013820D01*
X013599Y013860D01*
X013631Y013784D01*
X013813Y013601D01*
X013865Y013580D01*
X009498Y013580D01*
X009601Y013653D02*
X010077Y013653D01*
X010163Y013653D02*
X010200Y013653D01*
X010286Y013653D02*
X011077Y013653D01*
X011163Y013653D02*
X011200Y013653D01*
X011286Y013653D02*
X012077Y013653D01*
X012163Y013653D02*
X012200Y013653D01*
X012286Y013653D02*
X013077Y013653D01*
X013163Y013653D02*
X013200Y013653D01*
X013286Y013653D02*
X013762Y013653D01*
X013619Y013811D02*
X013561Y013811D01*
X013200Y013811D02*
X013163Y013811D01*
X013163Y013970D02*
X013200Y013970D01*
X013200Y014128D02*
X013163Y014128D01*
X013163Y014287D02*
X013200Y014287D01*
X013200Y014445D02*
X013163Y014445D01*
X013163Y014604D02*
X013200Y014604D01*
X013419Y014604D02*
X013713Y014604D01*
X013955Y014762D02*
X009408Y014762D01*
X009650Y014604D02*
X009944Y014604D01*
X010163Y014604D02*
X010200Y014604D01*
X010200Y014445D02*
X010163Y014445D01*
X010163Y014287D02*
X010200Y014287D01*
X010200Y014128D02*
X010163Y014128D01*
X010163Y013970D02*
X010200Y013970D01*
X010200Y013811D02*
X010163Y013811D01*
X009802Y013811D02*
X009744Y013811D01*
X010561Y013811D02*
X010802Y013811D01*
X010705Y013970D02*
X010658Y013970D01*
X011163Y013970D02*
X011200Y013970D01*
X011200Y014128D02*
X011163Y014128D01*
X011163Y014287D02*
X011200Y014287D01*
X011200Y014445D02*
X011163Y014445D01*
X011163Y014604D02*
X011200Y014604D01*
X011419Y014604D02*
X011944Y014604D01*
X012163Y014604D02*
X012200Y014604D01*
X012200Y014445D02*
X012163Y014445D01*
X012163Y014287D02*
X012200Y014287D01*
X012200Y014128D02*
X012163Y014128D01*
X012163Y013970D02*
X012200Y013970D01*
X012200Y013811D02*
X012163Y013811D01*
X011802Y013811D02*
X011561Y013811D01*
X011658Y013970D02*
X011705Y013970D01*
X011200Y013811D02*
X011163Y013811D01*
X010689Y014287D02*
X010674Y014287D01*
X010599Y014445D02*
X010764Y014445D01*
X010944Y014604D02*
X010419Y014604D01*
X011599Y014445D02*
X011764Y014445D01*
X011689Y014287D02*
X011674Y014287D01*
X012419Y014604D02*
X012944Y014604D01*
X012764Y014445D02*
X012599Y014445D01*
X012674Y014287D02*
X012689Y014287D01*
X012705Y013970D02*
X012658Y013970D01*
X012561Y013811D02*
X012802Y013811D01*
X014650Y014604D02*
X014713Y014604D01*
X014955Y014762D02*
X014408Y014762D01*
X015408Y014762D02*
X015955Y014762D01*
X015713Y014604D02*
X015650Y014604D01*
X016408Y014762D02*
X016955Y014762D01*
X016713Y014604D02*
X016650Y014604D01*
X017408Y014762D02*
X017955Y014762D01*
X017713Y014604D02*
X017650Y014604D01*
X018408Y014762D02*
X031005Y014762D01*
X030852Y014604D02*
X019419Y014604D01*
X019200Y014604D02*
X019163Y014604D01*
X019163Y014445D02*
X019200Y014445D01*
X019200Y014287D02*
X019163Y014287D01*
X019163Y014128D02*
X019200Y014128D01*
X019200Y013970D02*
X019163Y013970D01*
X019163Y013811D02*
X019200Y013811D01*
X019200Y013653D02*
X019163Y013653D01*
X019077Y013653D02*
X018601Y013653D01*
X018699Y013494D02*
X031054Y013494D01*
X030895Y013653D02*
X019286Y013653D01*
X019561Y013811D02*
X030806Y013811D01*
X030740Y013970D02*
X019658Y013970D01*
X019692Y014128D02*
X030732Y014128D01*
X030732Y014287D02*
X019674Y014287D01*
X019599Y014445D02*
X030786Y014445D01*
X032083Y014762D02*
X053468Y014762D01*
X053468Y014604D02*
X032236Y014604D01*
X032302Y014445D02*
X053468Y014445D01*
X053468Y014287D02*
X032356Y014287D01*
X032356Y014128D02*
X053468Y014128D01*
X053468Y013970D02*
X032347Y013970D01*
X032281Y013811D02*
X053468Y013811D01*
X053468Y013653D02*
X032192Y013653D01*
X032034Y013494D02*
X053468Y013494D01*
X053468Y013336D02*
X018765Y013336D01*
X019032Y013177D02*
X040857Y013177D01*
X040940Y013260D02*
X040600Y012920D01*
X040600Y012440D01*
X040940Y012100D01*
X041420Y012100D01*
X041680Y012360D01*
X041940Y012100D01*
X042420Y012100D01*
X042751Y012430D01*
X042981Y012200D01*
X043160Y012200D01*
X043160Y012660D01*
X043200Y012660D01*
X043200Y012200D01*
X043379Y012200D01*
X043609Y012430D01*
X043940Y012100D01*
X044420Y012100D01*
X044680Y012360D01*
X044940Y012100D01*
X045420Y012100D01*
X045751Y012430D01*
X045981Y012200D01*
X046160Y012200D01*
X046160Y012660D01*
X046200Y012660D01*
X046200Y012200D01*
X046379Y012200D01*
X046609Y012430D01*
X046940Y012100D01*
X047420Y012100D01*
X047680Y012360D01*
X047940Y012100D01*
X048420Y012100D01*
X048751Y012430D01*
X048981Y012200D01*
X049160Y012200D01*
X049160Y012660D01*
X049200Y012660D01*
X049200Y012700D01*
X049660Y012700D01*
X049660Y012879D01*
X049379Y013160D01*
X049200Y013160D01*
X049200Y012700D01*
X049160Y012700D01*
X049160Y013160D01*
X048981Y013160D01*
X048751Y012930D01*
X048420Y013260D01*
X047940Y013260D01*
X047680Y013000D01*
X047420Y013260D01*
X046940Y013260D01*
X046609Y012930D01*
X046379Y013160D01*
X046200Y013160D01*
X046200Y012700D01*
X046160Y012700D01*
X046160Y013160D01*
X045981Y013160D01*
X045751Y012930D01*
X045420Y013260D01*
X044940Y013260D01*
X044680Y013000D01*
X044420Y013260D01*
X043940Y013260D01*
X043609Y012930D01*
X043379Y013160D01*
X043200Y013160D01*
X043200Y012700D01*
X043160Y012700D01*
X043160Y013160D01*
X042981Y013160D01*
X042751Y012930D01*
X042420Y013260D01*
X041940Y013260D01*
X041680Y013000D01*
X041420Y013260D01*
X040940Y013260D01*
X040698Y013019D02*
X019189Y013019D01*
X019255Y012860D02*
X040600Y012860D01*
X040600Y012702D02*
X019489Y012702D01*
X019666Y012543D02*
X040600Y012543D01*
X040655Y012385D02*
X039029Y012385D01*
X038992Y012421D02*
X038779Y012510D01*
X038548Y012510D01*
X038335Y012421D01*
X038172Y012258D01*
X038095Y012073D01*
X038087Y012098D01*
X038056Y012160D01*
X038015Y012216D01*
X037966Y012265D01*
X037910Y012306D01*
X037848Y012337D01*
X037783Y012359D01*
X037714Y012370D01*
X037680Y012370D01*
X037680Y011670D01*
X037680Y011670D01*
X037680Y012370D01*
X037645Y012370D01*
X037576Y012359D01*
X037511Y012337D01*
X037449Y012306D01*
X037393Y012265D01*
X037344Y012216D01*
X037303Y012160D01*
X037272Y012098D01*
X037264Y012073D01*
X037187Y012258D01*
X037024Y012421D01*
X036811Y012510D01*
X036580Y012510D01*
X036367Y012421D01*
X036204Y012258D01*
X036115Y012045D01*
X036115Y011294D01*
X036204Y011081D01*
X036367Y010918D01*
X036580Y010830D01*
X036811Y010830D01*
X037024Y010918D01*
X037187Y011081D01*
X037264Y011266D01*
X037272Y011241D01*
X037303Y011179D01*
X037344Y011123D01*
X037393Y011074D01*
X037449Y011033D01*
X037511Y011002D01*
X037576Y010980D01*
X037645Y010970D01*
X037680Y010970D01*
X037714Y010970D01*
X037783Y010980D01*
X037848Y011002D01*
X037910Y011033D01*
X037966Y011074D01*
X038015Y011123D01*
X038056Y011179D01*
X038087Y011241D01*
X038095Y011266D01*
X038172Y011081D01*
X038335Y010918D01*
X038548Y010830D01*
X038779Y010830D01*
X038992Y010918D01*
X039155Y011081D01*
X039244Y011294D01*
X039244Y012045D01*
X039155Y012258D01*
X038992Y012421D01*
X039169Y012226D02*
X040814Y012226D01*
X041546Y012226D02*
X041814Y012226D01*
X042546Y012226D02*
X042955Y012226D01*
X043160Y012226D02*
X043200Y012226D01*
X043200Y012385D02*
X043160Y012385D01*
X043160Y012543D02*
X043200Y012543D01*
X043200Y012702D02*
X043160Y012702D01*
X043160Y012860D02*
X043200Y012860D01*
X043200Y013019D02*
X043160Y013019D01*
X042840Y013019D02*
X042662Y013019D01*
X042503Y013177D02*
X043857Y013177D01*
X043698Y013019D02*
X043520Y013019D01*
X044503Y013177D02*
X044857Y013177D01*
X044698Y013019D02*
X044662Y013019D01*
X045503Y013177D02*
X046857Y013177D01*
X046698Y013019D02*
X046520Y013019D01*
X046200Y013019D02*
X046160Y013019D01*
X046160Y012860D02*
X046200Y012860D01*
X046200Y012702D02*
X046160Y012702D01*
X046160Y012543D02*
X046200Y012543D01*
X046200Y012385D02*
X046160Y012385D01*
X046160Y012226D02*
X046200Y012226D01*
X046405Y012226D02*
X046814Y012226D01*
X046655Y012385D02*
X046563Y012385D01*
X045955Y012226D02*
X045546Y012226D01*
X045705Y012385D02*
X045797Y012385D01*
X044814Y012226D02*
X044546Y012226D01*
X043814Y012226D02*
X043405Y012226D01*
X043563Y012385D02*
X043655Y012385D01*
X042797Y012385D02*
X042705Y012385D01*
X041698Y013019D02*
X041662Y013019D01*
X041503Y013177D02*
X041857Y013177D01*
X038299Y012385D02*
X037061Y012385D01*
X037200Y012226D02*
X037354Y012226D01*
X037680Y012226D02*
X037680Y012226D01*
X037680Y012068D02*
X037680Y012068D01*
X037680Y011909D02*
X037680Y011909D01*
X037680Y011751D02*
X037680Y011751D01*
X037680Y011670D02*
X037680Y010970D01*
X037680Y011670D01*
X037680Y011670D01*
X037680Y011592D02*
X037680Y011592D01*
X037680Y011434D02*
X037680Y011434D01*
X037680Y011275D02*
X037680Y011275D01*
X037680Y011117D02*
X037680Y011117D01*
X038009Y011117D02*
X038157Y011117D01*
X038295Y010958D02*
X037064Y010958D01*
X037202Y011117D02*
X037350Y011117D01*
X036327Y010958D02*
X034080Y010958D01*
X034080Y010800D02*
X053468Y010800D01*
X053468Y010958D02*
X039033Y010958D01*
X039170Y011117D02*
X053468Y011117D01*
X053468Y011275D02*
X039236Y011275D01*
X039244Y011434D02*
X053468Y011434D01*
X053468Y011592D02*
X039244Y011592D01*
X039244Y011751D02*
X053468Y011751D01*
X053468Y011909D02*
X039244Y011909D01*
X039234Y012068D02*
X053468Y012068D01*
X053468Y012226D02*
X052546Y012226D01*
X052420Y012100D02*
X051940Y012100D01*
X051680Y012360D01*
X051420Y012100D01*
X050940Y012100D01*
X050609Y012430D01*
X050379Y012200D01*
X050200Y012200D01*
X050200Y012660D01*
X050160Y012660D01*
X050160Y012200D01*
X049981Y012200D01*
X049700Y012481D01*
X049700Y012660D01*
X050160Y012660D01*
X050160Y012700D01*
X050160Y013160D01*
X049981Y013160D01*
X049700Y012879D01*
X049700Y012700D01*
X050160Y012700D01*
X050200Y012700D01*
X050200Y013160D01*
X050379Y013160D01*
X050609Y012930D01*
X050940Y013260D01*
X051420Y013260D01*
X051680Y013000D01*
X051940Y013260D01*
X052420Y013260D01*
X052760Y012920D01*
X052760Y012440D01*
X052420Y012100D01*
X051814Y012226D02*
X051546Y012226D01*
X050814Y012226D02*
X050405Y012226D01*
X050200Y012226D02*
X050160Y012226D01*
X050160Y012385D02*
X050200Y012385D01*
X050200Y012543D02*
X050160Y012543D01*
X050160Y012702D02*
X050200Y012702D01*
X050200Y012860D02*
X050160Y012860D01*
X050160Y013019D02*
X050200Y013019D01*
X050520Y013019D02*
X050698Y013019D01*
X050857Y013177D02*
X048503Y013177D01*
X048662Y013019D02*
X048840Y013019D01*
X049160Y013019D02*
X049200Y013019D01*
X049200Y012860D02*
X049160Y012860D01*
X049160Y012702D02*
X049200Y012702D01*
X049200Y012660D02*
X049660Y012660D01*
X049660Y012481D01*
X049379Y012200D01*
X049200Y012200D01*
X049200Y012660D01*
X049200Y012543D02*
X049160Y012543D01*
X049160Y012385D02*
X049200Y012385D01*
X049200Y012226D02*
X049160Y012226D01*
X048955Y012226D02*
X048546Y012226D01*
X048705Y012385D02*
X048797Y012385D01*
X049405Y012226D02*
X049955Y012226D01*
X049797Y012385D02*
X049563Y012385D01*
X049660Y012543D02*
X049700Y012543D01*
X049700Y012702D02*
X049660Y012702D01*
X049660Y012860D02*
X049700Y012860D01*
X049840Y013019D02*
X049520Y013019D01*
X047857Y013177D02*
X047503Y013177D01*
X047662Y013019D02*
X047698Y013019D01*
X045840Y013019D02*
X045662Y013019D01*
X047546Y012226D02*
X047814Y012226D01*
X050563Y012385D02*
X050655Y012385D01*
X051662Y013019D02*
X051698Y013019D01*
X051857Y013177D02*
X051503Y013177D01*
X052503Y013177D02*
X053468Y013177D01*
X053468Y013019D02*
X052662Y013019D01*
X052760Y012860D02*
X053468Y012860D01*
X053468Y012702D02*
X052760Y012702D01*
X052760Y012543D02*
X053468Y012543D01*
X053468Y012385D02*
X052705Y012385D01*
X053468Y010641D02*
X034080Y010641D01*
X034080Y010483D02*
X053468Y010483D01*
X053468Y010324D02*
X034080Y010324D01*
X034080Y010166D02*
X053468Y010166D01*
X053468Y010007D02*
X034080Y010007D01*
X034080Y009849D02*
X053468Y009849D01*
X053468Y009690D02*
X034080Y009690D01*
X034080Y009532D02*
X053468Y009532D01*
X053468Y009373D02*
X034080Y009373D01*
X034211Y009215D02*
X053468Y009215D01*
X053468Y009056D02*
X036817Y009056D01*
X037028Y008898D02*
X053468Y008898D01*
X053468Y008739D02*
X037187Y008739D01*
X037345Y008581D02*
X053468Y008581D01*
X053468Y008422D02*
X037504Y008422D01*
X037578Y008264D02*
X053468Y008264D01*
X053468Y008105D02*
X037580Y008105D01*
X037180Y008180D02*
X036680Y008680D01*
X034180Y008680D01*
X033680Y009180D01*
X033680Y010930D01*
X032930Y011680D01*
X014930Y011680D01*
X014180Y010930D01*
X014180Y005930D01*
X014930Y005180D01*
X017180Y005180D01*
X017734Y005411D02*
X018626Y005411D01*
X018671Y005520D02*
X018580Y005299D01*
X018580Y005280D01*
X018561Y005280D01*
X018340Y005189D01*
X018180Y005029D01*
X018020Y005189D01*
X017799Y005280D01*
X017780Y005280D01*
X017780Y005299D01*
X017689Y005520D01*
X017520Y005689D01*
X017299Y005780D01*
X017280Y005780D01*
X017280Y005799D01*
X017189Y006020D01*
X017020Y006189D01*
X016799Y006280D01*
X016780Y006280D01*
X016780Y006299D01*
X016689Y006520D01*
X016520Y006689D01*
X016299Y006780D01*
X016061Y006780D01*
X015840Y006689D01*
X015731Y006580D01*
X015596Y006580D01*
X015580Y006596D01*
X015580Y007580D01*
X015799Y007580D01*
X016020Y007671D01*
X016189Y007840D01*
X016280Y008061D01*
X016280Y008299D01*
X016189Y008520D01*
X016080Y008629D01*
X016080Y009731D01*
X016189Y009840D01*
X016280Y010061D01*
X016280Y010280D01*
X021964Y010280D01*
X021841Y010157D01*
X021780Y010010D01*
X021780Y009795D01*
X021234Y009795D01*
X021117Y009747D01*
X021027Y009657D01*
X021026Y009655D01*
X020854Y009655D01*
X020854Y009228D01*
X020758Y009228D01*
X020758Y009655D01*
X020526Y009655D01*
X020481Y009643D01*
X020440Y009619D01*
X020406Y009586D01*
X020382Y009545D01*
X020370Y009499D01*
X020370Y009228D01*
X020758Y009228D01*
X020758Y009132D01*
X020854Y009132D01*
X020854Y008705D01*
X021026Y008705D01*
X021027Y008703D01*
X021117Y008613D01*
X021234Y008565D01*
X021780Y008565D01*
X021780Y006596D01*
X021764Y006580D01*
X020629Y006580D01*
X020520Y006689D01*
X020299Y006780D01*
X020061Y006780D01*
X019840Y006689D01*
X019671Y006520D01*
X019580Y006299D01*
X019580Y006280D01*
X019561Y006280D01*
X019340Y006189D01*
X019171Y006020D01*
X019080Y005799D01*
X019080Y005780D01*
X019061Y005780D01*
X018840Y005689D01*
X018671Y005520D01*
X018720Y005569D02*
X017640Y005569D01*
X017426Y005728D02*
X018934Y005728D01*
X019116Y005886D02*
X017244Y005886D01*
X017164Y006045D02*
X019196Y006045D01*
X019375Y006203D02*
X016985Y006203D01*
X016754Y006362D02*
X019606Y006362D01*
X019671Y006520D02*
X016689Y006520D01*
X016530Y006679D02*
X019830Y006679D01*
X020530Y006679D02*
X021780Y006679D01*
X021780Y006837D02*
X015580Y006837D01*
X015580Y006679D02*
X015830Y006679D01*
X015430Y006180D02*
X015180Y006430D01*
X015180Y010430D01*
X015430Y010680D01*
X032430Y010680D01*
X032680Y010430D01*
X032680Y002180D01*
X032910Y001950D01*
X033960Y001950D01*
X034635Y001924D02*
X035725Y001924D01*
X035725Y002082D02*
X034635Y002082D01*
X034632Y002241D02*
X035728Y002241D01*
X035821Y002399D02*
X034539Y002399D01*
X033381Y002399D02*
X033080Y002399D01*
X033080Y002558D02*
X036780Y002558D01*
X036780Y002716D02*
X033080Y002716D01*
X033080Y002875D02*
X035970Y002875D01*
X035764Y003033D02*
X034403Y003033D01*
X034384Y003022D02*
X034426Y003046D01*
X034459Y003079D01*
X034483Y003121D01*
X034495Y003166D01*
X034495Y003380D01*
X033990Y003380D01*
X033990Y003440D01*
X033930Y003440D01*
X033930Y003810D01*
X033581Y003810D01*
X033536Y003798D01*
X033494Y003774D01*
X033461Y003741D01*
X033437Y003699D01*
X033425Y003654D01*
X033425Y003440D01*
X033930Y003440D01*
X033930Y003380D01*
X033990Y003380D01*
X033990Y003010D01*
X034339Y003010D01*
X034384Y003022D01*
X034495Y003192D02*
X035725Y003192D01*
X035725Y003350D02*
X034495Y003350D01*
X034495Y003440D02*
X034495Y003654D01*
X034483Y003699D01*
X034459Y003741D01*
X034426Y003774D01*
X034384Y003798D01*
X034339Y003810D01*
X033990Y003810D01*
X033990Y003440D01*
X034495Y003440D01*
X034495Y003509D02*
X035725Y003509D01*
X035725Y003667D02*
X034491Y003667D01*
X033990Y003667D02*
X033930Y003667D01*
X033930Y003509D02*
X033990Y003509D01*
X033930Y003380D02*
X033425Y003380D01*
X033425Y003166D01*
X033437Y003121D01*
X033461Y003079D01*
X033494Y003046D01*
X033536Y003022D01*
X033581Y003010D01*
X033930Y003010D01*
X033930Y003380D01*
X033930Y003350D02*
X033990Y003350D01*
X033990Y003192D02*
X033930Y003192D01*
X033930Y003033D02*
X033990Y003033D01*
X033517Y003033D02*
X033080Y003033D01*
X033080Y003192D02*
X033425Y003192D01*
X033425Y003350D02*
X033080Y003350D01*
X033080Y003509D02*
X033425Y003509D01*
X033429Y003667D02*
X033080Y003667D01*
X033080Y003826D02*
X035788Y003826D01*
X036780Y003984D02*
X033080Y003984D01*
X033080Y004143D02*
X036780Y004143D01*
X036780Y004301D02*
X033080Y004301D01*
X033080Y004460D02*
X036780Y004460D01*
X036780Y004618D02*
X033080Y004618D01*
X033080Y004777D02*
X036780Y004777D01*
X036780Y004935D02*
X033080Y004935D01*
X033080Y005094D02*
X036780Y005094D01*
X036780Y005252D02*
X033080Y005252D01*
X033080Y005411D02*
X033540Y005411D01*
X033253Y005569D02*
X033080Y005569D01*
X033430Y005930D02*
X033180Y006180D01*
X033180Y010680D01*
X032680Y011180D01*
X015180Y011180D01*
X014680Y010680D01*
X014680Y006180D01*
X015180Y005680D01*
X016680Y005680D01*
X016180Y006180D02*
X015430Y006180D01*
X013780Y006203D02*
X006380Y006203D01*
X006357Y006180D02*
X006506Y006329D01*
X006600Y006557D01*
X006600Y006803D01*
X006506Y007031D01*
X006357Y007180D01*
X006506Y007329D01*
X006600Y007557D01*
X006600Y007803D01*
X006506Y008031D01*
X006357Y008180D01*
X006506Y008329D01*
X006600Y008557D01*
X006600Y008803D01*
X006506Y009031D01*
X006331Y009206D01*
X006103Y009300D01*
X005257Y009300D01*
X005029Y009206D01*
X004854Y009031D01*
X004760Y008803D01*
X004760Y008557D01*
X004854Y008329D01*
X005003Y008180D01*
X004854Y008031D01*
X004760Y007803D01*
X004760Y007557D01*
X004854Y007329D01*
X005003Y007180D01*
X004854Y007031D01*
X004760Y006803D01*
X004760Y006557D01*
X004854Y006329D01*
X005003Y006180D01*
X004854Y006031D01*
X004760Y005803D01*
X004760Y005557D01*
X004854Y005329D01*
X005029Y005154D01*
X005153Y005103D01*
X005128Y005091D01*
X005067Y005046D01*
X005014Y004993D01*
X004969Y004932D01*
X004935Y004864D01*
X004912Y004792D01*
X004900Y004718D01*
X004900Y004700D01*
X005660Y004700D01*
X005660Y004660D01*
X004900Y004660D01*
X004900Y004642D01*
X004912Y004568D01*
X004935Y004496D01*
X004969Y004428D01*
X005014Y004367D01*
X005067Y004314D01*
X005128Y004269D01*
X005153Y004257D01*
X005029Y004206D01*
X004854Y004031D01*
X004760Y003803D01*
X004760Y003557D01*
X004854Y003329D01*
X005003Y003180D01*
X004854Y003031D01*
X004760Y002803D01*
X004760Y002557D01*
X004854Y002329D01*
X005003Y002180D01*
X004854Y002031D01*
X004760Y001803D01*
X004760Y001557D01*
X004854Y001329D01*
X005029Y001154D01*
X005257Y001060D01*
X006103Y001060D01*
X006331Y001154D01*
X006506Y001329D01*
X006600Y001557D01*
X006600Y001803D01*
X006506Y002031D01*
X006357Y002180D01*
X006506Y002329D01*
X006600Y002557D01*
X006600Y002803D01*
X006506Y003031D01*
X006357Y003180D01*
X006457Y003280D01*
X016231Y003280D01*
X016340Y003171D01*
X016561Y003080D01*
X016799Y003080D01*
X017020Y003171D01*
X017189Y003340D01*
X017280Y003561D01*
X017280Y003799D01*
X017189Y004020D01*
X017020Y004189D01*
X016799Y004280D01*
X016561Y004280D01*
X016340Y004189D01*
X016231Y004080D01*
X006457Y004080D01*
X006331Y004206D01*
X006207Y004257D01*
X006232Y004269D01*
X006293Y004314D01*
X006346Y004367D01*
X006391Y004428D01*
X006425Y004496D01*
X006448Y004568D01*
X006460Y004642D01*
X006460Y004660D01*
X005700Y004660D01*
X005700Y004700D01*
X006460Y004700D01*
X006460Y004718D01*
X006448Y004792D01*
X006425Y004864D01*
X006391Y004932D01*
X006346Y004993D01*
X006293Y005046D01*
X006232Y005091D01*
X006207Y005103D01*
X006331Y005154D01*
X006506Y005329D01*
X006600Y005557D01*
X006600Y005803D01*
X006506Y006031D01*
X006357Y006180D01*
X006492Y006045D02*
X013780Y006045D01*
X013780Y005886D02*
X006566Y005886D01*
X006600Y005728D02*
X013831Y005728D01*
X013975Y005569D02*
X006600Y005569D01*
X006539Y005411D02*
X014134Y005411D01*
X014292Y005252D02*
X006429Y005252D01*
X006226Y005094D02*
X014451Y005094D01*
X014609Y004935D02*
X006388Y004935D01*
X006451Y004777D02*
X016735Y004777D01*
X016969Y004618D02*
X006456Y004618D01*
X006406Y004460D02*
X017122Y004460D01*
X017210Y004301D02*
X006275Y004301D01*
X006394Y004143D02*
X016294Y004143D01*
X017066Y004143D02*
X017280Y004143D01*
X017280Y003984D02*
X017204Y003984D01*
X017269Y003826D02*
X017290Y003826D01*
X017280Y003667D02*
X017377Y003667D01*
X017258Y003509D02*
X017536Y003509D01*
X017694Y003350D02*
X017193Y003350D01*
X017040Y003192D02*
X022847Y003192D01*
X023430Y003680D02*
X023930Y003180D01*
X023930Y001180D01*
X024430Y000680D01*
X048680Y000680D01*
X049180Y001180D01*
X049180Y001680D01*
X049430Y001930D01*
X049680Y001930D01*
X049960Y001950D01*
X050635Y001924D02*
X051725Y001924D01*
X051725Y002082D02*
X050635Y002082D01*
X050632Y002241D02*
X051728Y002241D01*
X051725Y002234D02*
X051725Y001666D01*
X051774Y001549D01*
X051864Y001459D01*
X051981Y001410D01*
X052819Y001410D01*
X052936Y001459D01*
X053026Y001549D01*
X053075Y001666D01*
X053075Y002234D01*
X053026Y002351D01*
X052936Y002441D01*
X052819Y002490D01*
X051981Y002490D01*
X051864Y002441D01*
X051774Y002351D01*
X051725Y002234D01*
X051821Y002399D02*
X050539Y002399D01*
X049381Y002399D02*
X048979Y002399D01*
X049072Y002241D02*
X049175Y002241D01*
X047821Y002399D02*
X046539Y002399D01*
X046496Y002441D02*
X046586Y002351D01*
X046635Y002234D01*
X046635Y001666D01*
X046586Y001549D01*
X046496Y001459D01*
X046379Y001410D01*
X045541Y001410D01*
X045424Y001459D01*
X045334Y001549D01*
X045333Y001550D01*
X045330Y001550D01*
X045183Y001611D01*
X045075Y001719D01*
X045075Y001666D01*
X045026Y001549D01*
X044936Y001459D01*
X044819Y001410D01*
X043981Y001410D01*
X043864Y001459D01*
X043774Y001549D01*
X043725Y001666D01*
X043725Y002234D01*
X043774Y002351D01*
X043864Y002441D01*
X043981Y002490D01*
X044609Y002490D01*
X044580Y002561D01*
X044580Y002799D01*
X044609Y002870D01*
X043981Y002870D01*
X043864Y002919D01*
X043774Y003009D01*
X043725Y003126D01*
X043725Y003694D01*
X043774Y003811D01*
X043864Y003901D01*
X043981Y003950D01*
X044819Y003950D01*
X044936Y003901D01*
X045026Y003811D01*
X045075Y003694D01*
X045075Y003280D01*
X045299Y003280D01*
X045425Y003228D01*
X045425Y003380D01*
X045930Y003380D01*
X045930Y003440D01*
X045930Y003810D01*
X045581Y003810D01*
X045536Y003798D01*
X045494Y003774D01*
X045461Y003741D01*
X045437Y003699D01*
X045425Y003654D01*
X045425Y003440D01*
X045930Y003440D01*
X045990Y003440D01*
X045990Y003810D01*
X046339Y003810D01*
X046384Y003798D01*
X046426Y003774D01*
X046459Y003741D01*
X046483Y003699D01*
X046495Y003654D01*
X046495Y003440D01*
X045990Y003440D01*
X045990Y003380D01*
X046495Y003380D01*
X046495Y003166D01*
X046483Y003121D01*
X046459Y003079D01*
X046426Y003046D01*
X046384Y003022D01*
X046339Y003010D01*
X045990Y003010D01*
X045990Y003380D01*
X045930Y003380D01*
X045930Y003010D01*
X045693Y003010D01*
X045780Y002799D01*
X045780Y002561D01*
X045751Y002490D01*
X046379Y002490D01*
X046496Y002441D01*
X046632Y002241D02*
X047728Y002241D01*
X047725Y002082D02*
X046635Y002082D01*
X046635Y001924D02*
X047725Y001924D01*
X047725Y001765D02*
X046635Y001765D01*
X046610Y001607D02*
X047750Y001607D01*
X047890Y001448D02*
X046470Y001448D01*
X045450Y001448D02*
X044910Y001448D01*
X045050Y001607D02*
X045194Y001607D01*
X045410Y001950D02*
X045180Y002180D01*
X045180Y002680D01*
X045780Y002716D02*
X053468Y002716D01*
X053468Y002558D02*
X045779Y002558D01*
X045749Y002875D02*
X047970Y002875D01*
X047981Y002870D02*
X048819Y002870D01*
X048936Y002919D01*
X049026Y003009D01*
X049075Y003126D01*
X049075Y003694D01*
X049026Y003811D01*
X048936Y003901D01*
X048819Y003950D01*
X047981Y003950D01*
X047864Y003901D01*
X047774Y003811D01*
X047725Y003694D01*
X047725Y003126D01*
X047774Y003009D01*
X047864Y002919D01*
X047981Y002870D01*
X047764Y003033D02*
X046403Y003033D01*
X046495Y003192D02*
X047725Y003192D01*
X047725Y003350D02*
X046495Y003350D01*
X046495Y003509D02*
X047725Y003509D01*
X047725Y003667D02*
X046491Y003667D01*
X045990Y003667D02*
X045930Y003667D01*
X045930Y003509D02*
X045990Y003509D01*
X045990Y003350D02*
X045930Y003350D01*
X045930Y003192D02*
X045990Y003192D01*
X045990Y003033D02*
X045930Y003033D01*
X045425Y003350D02*
X045075Y003350D01*
X045075Y003509D02*
X045425Y003509D01*
X045429Y003667D02*
X045075Y003667D01*
X045012Y003826D02*
X047788Y003826D01*
X049012Y003826D02*
X051788Y003826D01*
X051774Y003811D02*
X051725Y003694D01*
X051725Y003126D01*
X051774Y003009D01*
X051864Y002919D01*
X051981Y002870D01*
X052819Y002870D01*
X052936Y002919D01*
X053026Y003009D01*
X053075Y003126D01*
X053075Y003694D01*
X053026Y003811D01*
X052936Y003901D01*
X052819Y003950D01*
X051981Y003950D01*
X051864Y003901D01*
X051774Y003811D01*
X051725Y003667D02*
X050491Y003667D01*
X050495Y003654D02*
X050483Y003699D01*
X050459Y003741D01*
X050426Y003774D01*
X050384Y003798D01*
X050339Y003810D01*
X049990Y003810D01*
X049990Y003440D01*
X049930Y003440D01*
X049930Y003810D01*
X049581Y003810D01*
X049536Y003798D01*
X049494Y003774D01*
X049461Y003741D01*
X049437Y003699D01*
X049425Y003654D01*
X049425Y003440D01*
X049930Y003440D01*
X049930Y003380D01*
X049990Y003380D01*
X049990Y003440D01*
X050495Y003440D01*
X050495Y003654D01*
X050495Y003509D02*
X051725Y003509D01*
X051725Y003350D02*
X050495Y003350D01*
X050495Y003380D02*
X049990Y003380D01*
X049990Y003010D01*
X050339Y003010D01*
X050384Y003022D01*
X050426Y003046D01*
X050459Y003079D01*
X050483Y003121D01*
X050495Y003166D01*
X050495Y003380D01*
X049990Y003350D02*
X049930Y003350D01*
X049930Y003380D02*
X049930Y003010D01*
X049581Y003010D01*
X049536Y003022D01*
X049494Y003046D01*
X049461Y003079D01*
X049437Y003121D01*
X049425Y003166D01*
X049425Y003380D01*
X049930Y003380D01*
X049930Y003509D02*
X049990Y003509D01*
X049990Y003667D02*
X049930Y003667D01*
X049429Y003667D02*
X049075Y003667D01*
X049075Y003509D02*
X049425Y003509D01*
X049425Y003350D02*
X049075Y003350D01*
X049075Y003192D02*
X049425Y003192D01*
X049517Y003033D02*
X049036Y003033D01*
X048830Y002875D02*
X051970Y002875D01*
X051764Y003033D02*
X050403Y003033D01*
X050495Y003192D02*
X051725Y003192D01*
X052830Y002875D02*
X053468Y002875D01*
X053468Y003033D02*
X053036Y003033D01*
X053075Y003192D02*
X053468Y003192D01*
X053468Y003350D02*
X053075Y003350D01*
X053075Y003509D02*
X053468Y003509D01*
X053468Y003667D02*
X053075Y003667D01*
X053012Y003826D02*
X053468Y003826D01*
X053468Y003984D02*
X037580Y003984D01*
X037580Y003826D02*
X039788Y003826D01*
X039774Y003811D02*
X039725Y003694D01*
X039725Y003126D01*
X039774Y003009D01*
X039864Y002919D01*
X039981Y002870D01*
X040609Y002870D01*
X040580Y002799D01*
X040580Y002561D01*
X040609Y002490D01*
X039981Y002490D01*
X039864Y002441D01*
X039774Y002351D01*
X039725Y002234D01*
X039725Y001666D01*
X039774Y001549D01*
X039864Y001459D01*
X039981Y001410D01*
X040819Y001410D01*
X040936Y001459D01*
X041026Y001549D01*
X041075Y001666D01*
X041075Y001719D01*
X041183Y001611D01*
X041330Y001550D01*
X041333Y001550D01*
X041334Y001549D01*
X041424Y001459D01*
X041541Y001410D01*
X042379Y001410D01*
X042496Y001459D01*
X042586Y001549D01*
X042635Y001666D01*
X042635Y002234D01*
X042586Y002351D01*
X042496Y002441D01*
X042379Y002490D01*
X041751Y002490D01*
X041780Y002561D01*
X041780Y002799D01*
X041693Y003010D01*
X041930Y003010D01*
X041930Y003380D01*
X041425Y003380D01*
X041425Y003228D01*
X041299Y003280D01*
X041075Y003280D01*
X041075Y003694D01*
X041026Y003811D01*
X040936Y003901D01*
X040819Y003950D01*
X039981Y003950D01*
X039864Y003901D01*
X039774Y003811D01*
X039725Y003667D02*
X038491Y003667D01*
X038495Y003509D02*
X039725Y003509D01*
X039725Y003350D02*
X038495Y003350D01*
X038495Y003192D02*
X039725Y003192D01*
X039764Y003033D02*
X038403Y003033D01*
X037990Y003033D02*
X037930Y003033D01*
X037930Y003192D02*
X037990Y003192D01*
X037990Y003350D02*
X037930Y003350D01*
X037930Y003509D02*
X037990Y003509D01*
X037990Y003667D02*
X037930Y003667D01*
X037580Y004143D02*
X053468Y004143D01*
X053468Y004301D02*
X037580Y004301D01*
X037580Y004460D02*
X053468Y004460D01*
X053468Y004618D02*
X041391Y004618D01*
X041299Y004580D02*
X041520Y004671D01*
X041689Y004840D01*
X041780Y005061D01*
X041780Y005299D01*
X041689Y005520D01*
X041580Y005629D01*
X041580Y005760D01*
X041519Y005907D01*
X041407Y006019D01*
X041137Y006289D01*
X041035Y006331D01*
X041026Y006351D01*
X040936Y006441D01*
X040819Y006490D01*
X039981Y006490D01*
X039864Y006441D01*
X039774Y006351D01*
X039725Y006234D01*
X039725Y005666D01*
X039774Y005549D01*
X039864Y005459D01*
X039981Y005410D01*
X040626Y005410D01*
X040580Y005299D01*
X040580Y005061D01*
X040671Y004840D01*
X040840Y004671D01*
X041061Y004580D01*
X041299Y004580D01*
X040969Y004618D02*
X037580Y004618D01*
X037580Y004777D02*
X040735Y004777D01*
X040632Y004935D02*
X037580Y004935D01*
X037580Y005094D02*
X040580Y005094D01*
X040580Y005252D02*
X037580Y005252D01*
X038380Y005411D02*
X039980Y005411D01*
X039765Y005569D02*
X038595Y005569D01*
X038635Y005728D02*
X039725Y005728D01*
X039725Y005886D02*
X038635Y005886D01*
X038635Y006045D02*
X039725Y006045D01*
X039725Y006203D02*
X038635Y006203D01*
X038576Y006362D02*
X039784Y006362D01*
X040400Y005950D02*
X040910Y005950D01*
X041180Y005680D01*
X041180Y005180D01*
X041734Y005411D02*
X053468Y005411D01*
X053468Y005569D02*
X041640Y005569D01*
X041580Y005728D02*
X053468Y005728D01*
X053468Y005886D02*
X041528Y005886D01*
X041381Y006045D02*
X053468Y006045D01*
X053468Y006203D02*
X041223Y006203D01*
X041016Y006362D02*
X053468Y006362D01*
X053468Y006520D02*
X037580Y006520D01*
X037580Y006679D02*
X053468Y006679D01*
X053468Y006837D02*
X037580Y006837D01*
X036780Y006837D02*
X033580Y006837D01*
X033580Y006679D02*
X036780Y006679D01*
X036780Y006520D02*
X033580Y006520D01*
X034576Y006362D02*
X035784Y006362D01*
X035725Y006203D02*
X034635Y006203D01*
X034635Y006045D02*
X035725Y006045D01*
X035725Y005886D02*
X034635Y005886D01*
X034635Y005728D02*
X035725Y005728D01*
X035765Y005569D02*
X034595Y005569D01*
X034380Y005411D02*
X035980Y005411D01*
X033960Y005950D02*
X033430Y005930D01*
X033580Y006996D02*
X035787Y006996D01*
X035725Y007154D02*
X034492Y007154D01*
X034495Y007313D02*
X035725Y007313D01*
X035725Y007471D02*
X034495Y007471D01*
X034495Y007630D02*
X035725Y007630D01*
X035764Y007788D02*
X034401Y007788D01*
X033990Y007788D02*
X033930Y007788D01*
X033930Y007630D02*
X033990Y007630D01*
X033990Y007471D02*
X033930Y007471D01*
X033930Y007313D02*
X033990Y007313D01*
X033990Y007154D02*
X033930Y007154D01*
X033580Y007947D02*
X035973Y007947D01*
X036689Y008105D02*
X033580Y008105D01*
X033580Y008264D02*
X036531Y008264D01*
X037180Y008180D02*
X037180Y002180D01*
X037430Y001930D01*
X037960Y001950D01*
X038635Y001924D02*
X039725Y001924D01*
X039725Y002082D02*
X038635Y002082D01*
X038632Y002241D02*
X039728Y002241D01*
X039821Y002399D02*
X038539Y002399D01*
X037580Y002558D02*
X040581Y002558D01*
X040580Y002716D02*
X037580Y002716D01*
X037580Y002875D02*
X039970Y002875D01*
X041180Y002680D02*
X041180Y002180D01*
X041410Y001950D01*
X041960Y001950D01*
X042635Y001924D02*
X043725Y001924D01*
X043725Y002082D02*
X042635Y002082D01*
X042632Y002241D02*
X043728Y002241D01*
X043821Y002399D02*
X042539Y002399D01*
X041779Y002558D02*
X044581Y002558D01*
X044580Y002716D02*
X041780Y002716D01*
X041749Y002875D02*
X043970Y002875D01*
X043764Y003033D02*
X042403Y003033D01*
X042384Y003022D02*
X042426Y003046D01*
X042459Y003079D01*
X042483Y003121D01*
X042495Y003166D01*
X042495Y003380D01*
X041990Y003380D01*
X041990Y003440D01*
X041930Y003440D01*
X041930Y003810D01*
X041581Y003810D01*
X041536Y003798D01*
X041494Y003774D01*
X041461Y003741D01*
X041437Y003699D01*
X041425Y003654D01*
X041425Y003440D01*
X041930Y003440D01*
X041930Y003380D01*
X041990Y003380D01*
X041990Y003010D01*
X042339Y003010D01*
X042384Y003022D01*
X042495Y003192D02*
X043725Y003192D01*
X043725Y003350D02*
X042495Y003350D01*
X042495Y003440D02*
X041990Y003440D01*
X041990Y003810D01*
X042339Y003810D01*
X042384Y003798D01*
X042426Y003774D01*
X042459Y003741D01*
X042483Y003699D01*
X042495Y003654D01*
X042495Y003440D01*
X042495Y003509D02*
X043725Y003509D01*
X043725Y003667D02*
X042491Y003667D01*
X041990Y003667D02*
X041930Y003667D01*
X041930Y003509D02*
X041990Y003509D01*
X041990Y003350D02*
X041930Y003350D01*
X041930Y003192D02*
X041990Y003192D01*
X041990Y003033D02*
X041930Y003033D01*
X041425Y003350D02*
X041075Y003350D01*
X041075Y003509D02*
X041425Y003509D01*
X041429Y003667D02*
X041075Y003667D01*
X041012Y003826D02*
X043788Y003826D01*
X041625Y004777D02*
X053468Y004777D01*
X053468Y004935D02*
X041728Y004935D01*
X041780Y005094D02*
X053468Y005094D01*
X053468Y005252D02*
X041780Y005252D01*
X041180Y006680D02*
X041180Y007180D01*
X040950Y007410D01*
X040400Y007410D01*
X040430Y007440D02*
X040370Y007440D01*
X040370Y007810D01*
X040021Y007810D01*
X039976Y007798D01*
X039934Y007774D01*
X039901Y007741D01*
X039877Y007699D01*
X039865Y007654D01*
X039865Y007440D01*
X040370Y007440D01*
X040370Y007380D01*
X040430Y007380D01*
X040430Y007440D01*
X040430Y007810D01*
X040779Y007810D01*
X040824Y007798D01*
X040866Y007774D01*
X040899Y007741D01*
X040923Y007699D01*
X040935Y007654D01*
X040935Y007440D01*
X040430Y007440D01*
X040430Y007471D02*
X040370Y007471D01*
X040370Y007380D02*
X039865Y007380D01*
X039865Y007166D01*
X039877Y007121D01*
X039901Y007079D01*
X039934Y007046D01*
X039976Y007022D01*
X040021Y007010D01*
X040370Y007010D01*
X040370Y007380D01*
X040430Y007380D02*
X040430Y007010D01*
X040779Y007010D01*
X040824Y007022D01*
X040866Y007046D01*
X040899Y007079D01*
X040923Y007121D01*
X040935Y007166D01*
X040935Y007380D01*
X040430Y007380D01*
X040430Y007313D02*
X040370Y007313D01*
X040370Y007154D02*
X040430Y007154D01*
X040932Y007154D02*
X053468Y007154D01*
X053468Y006996D02*
X038573Y006996D01*
X038635Y007154D02*
X039868Y007154D01*
X039865Y007313D02*
X038635Y007313D01*
X038635Y007471D02*
X039865Y007471D01*
X039865Y007630D02*
X038635Y007630D01*
X038596Y007788D02*
X039959Y007788D01*
X040370Y007788D02*
X040430Y007788D01*
X040430Y007630D02*
X040370Y007630D01*
X040841Y007788D02*
X053468Y007788D01*
X053468Y007630D02*
X040935Y007630D01*
X040935Y007471D02*
X053468Y007471D01*
X053468Y007313D02*
X040935Y007313D01*
X038387Y007947D02*
X053468Y007947D01*
X038159Y012226D02*
X038005Y012226D01*
X036330Y012385D02*
X019745Y012385D01*
X019780Y012226D02*
X036190Y012226D01*
X036125Y012068D02*
X033040Y012068D01*
X033267Y011909D02*
X036115Y011909D01*
X036115Y011751D02*
X033425Y011751D01*
X033584Y011592D02*
X036115Y011592D01*
X036115Y011434D02*
X033742Y011434D01*
X033901Y011275D02*
X036123Y011275D01*
X036189Y011117D02*
X034036Y011117D01*
X032180Y010180D02*
X032180Y004680D01*
X031680Y004180D01*
X018180Y004180D01*
X017680Y003930D02*
X017680Y004680D01*
X018680Y004680D02*
X025680Y004680D01*
X025180Y005180D02*
X019180Y005180D01*
X018493Y005252D02*
X017867Y005252D01*
X018115Y005094D02*
X018245Y005094D01*
X019680Y005680D02*
X024680Y005680D01*
X022180Y006430D02*
X021930Y006180D01*
X020180Y006180D01*
X022180Y006430D02*
X022180Y008930D01*
X021930Y009180D01*
X021554Y009180D01*
X021930Y009180D02*
X022180Y009430D01*
X022180Y009930D01*
X022430Y010180D01*
X029680Y010180D01*
X033580Y008581D02*
X033714Y008581D01*
X033580Y008422D02*
X033872Y008422D01*
X021780Y008422D02*
X016229Y008422D01*
X016280Y008264D02*
X021780Y008264D01*
X021780Y008105D02*
X016280Y008105D01*
X016233Y007947D02*
X021780Y007947D01*
X021780Y007788D02*
X016137Y007788D01*
X015919Y007630D02*
X021780Y007630D01*
X021780Y007471D02*
X015580Y007471D01*
X015580Y007313D02*
X021780Y007313D01*
X021780Y007154D02*
X015580Y007154D01*
X015580Y006996D02*
X021780Y006996D01*
X020180Y008180D02*
X020180Y009180D01*
X020806Y009180D01*
X020758Y009215D02*
X016080Y009215D01*
X016080Y009373D02*
X020370Y009373D01*
X020379Y009532D02*
X016080Y009532D01*
X016080Y009690D02*
X021060Y009690D01*
X020854Y009532D02*
X020758Y009532D01*
X020758Y009373D02*
X020854Y009373D01*
X020180Y009180D02*
X020180Y010180D01*
X021780Y010007D02*
X016258Y010007D01*
X016280Y010166D02*
X021850Y010166D01*
X021780Y009849D02*
X016192Y009849D01*
X015680Y010180D02*
X015680Y008180D01*
X016128Y008581D02*
X021196Y008581D01*
X020854Y008739D02*
X020758Y008739D01*
X020758Y008705D02*
X020758Y009132D01*
X020370Y009132D01*
X020370Y008861D01*
X020382Y008815D01*
X020406Y008774D01*
X020440Y008741D01*
X020481Y008717D01*
X020526Y008705D01*
X020758Y008705D01*
X020758Y008898D02*
X020854Y008898D01*
X020854Y009056D02*
X020758Y009056D01*
X020370Y009056D02*
X016080Y009056D01*
X016080Y008898D02*
X020370Y008898D01*
X020442Y008739D02*
X016080Y008739D01*
X013780Y008739D02*
X011490Y008739D01*
X011490Y008581D02*
X013780Y008581D01*
X013780Y008422D02*
X011490Y008422D01*
X011443Y008264D02*
X013780Y008264D01*
X013780Y008105D02*
X010723Y008105D01*
X011006Y008264D02*
X011102Y008264D01*
X011102Y008422D02*
X011006Y008422D01*
X011006Y008581D02*
X011102Y008581D01*
X011102Y008739D02*
X011006Y008739D01*
X011006Y008898D02*
X011102Y008898D01*
X011102Y009056D02*
X011006Y009056D01*
X010775Y009215D02*
X013780Y009215D01*
X013780Y009373D02*
X007553Y009373D01*
X007711Y009215D02*
X008403Y009215D01*
X008957Y009215D02*
X009837Y009215D01*
X010306Y008680D02*
X008680Y008680D01*
X007680Y008680D01*
X005180Y011180D01*
X005180Y013180D01*
X018180Y013180D01*
X018744Y013811D02*
X018802Y013811D01*
X018944Y014604D02*
X018650Y014604D01*
X018680Y012680D02*
X007180Y012680D01*
X006580Y012702D02*
X005580Y012702D01*
X005580Y012543D02*
X006587Y012543D01*
X006653Y012385D02*
X005580Y012385D01*
X005580Y012226D02*
X006785Y012226D01*
X007575Y012226D02*
X008580Y012226D01*
X008580Y012068D02*
X005580Y012068D01*
X005580Y011909D02*
X008643Y011909D01*
X008761Y011751D02*
X005580Y011751D01*
X005580Y011592D02*
X009032Y011592D01*
X009328Y011592D02*
X014276Y011592D01*
X014118Y011434D02*
X005580Y011434D01*
X005651Y011275D02*
X013959Y011275D01*
X013824Y011117D02*
X005809Y011117D01*
X005968Y010958D02*
X013780Y010958D01*
X013780Y010800D02*
X006126Y010800D01*
X006285Y010641D02*
X013780Y010641D01*
X013780Y010483D02*
X006443Y010483D01*
X006602Y010324D02*
X013780Y010324D01*
X013780Y010166D02*
X006760Y010166D01*
X006919Y010007D02*
X013780Y010007D01*
X013780Y009849D02*
X007077Y009849D01*
X007236Y009690D02*
X013780Y009690D01*
X013780Y009532D02*
X007394Y009532D01*
X006580Y009215D02*
X006310Y009215D01*
X006421Y009373D02*
X003180Y009373D01*
X003180Y009215D02*
X005050Y009215D01*
X004879Y009056D02*
X003180Y009056D01*
X003180Y008898D02*
X004799Y008898D01*
X004760Y008739D02*
X003180Y008739D01*
X003180Y008581D02*
X004760Y008581D01*
X004816Y008422D02*
X003180Y008422D01*
X003180Y008264D02*
X004920Y008264D01*
X004928Y008105D02*
X003180Y008105D01*
X003180Y007947D02*
X004819Y007947D01*
X004760Y007788D02*
X003180Y007788D01*
X003180Y007630D02*
X004760Y007630D01*
X004795Y007471D02*
X003180Y007471D01*
X003180Y007313D02*
X004871Y007313D01*
X004977Y007154D02*
X003180Y007154D01*
X003180Y006996D02*
X004840Y006996D01*
X004774Y006837D02*
X003180Y006837D01*
X003180Y006679D02*
X004760Y006679D01*
X004775Y006520D02*
X003180Y006520D01*
X003180Y006362D02*
X004841Y006362D01*
X004980Y006203D02*
X003180Y006203D01*
X003180Y006045D02*
X004868Y006045D01*
X004794Y005886D02*
X003180Y005886D01*
X003180Y005728D02*
X004760Y005728D01*
X004760Y005569D02*
X003180Y005569D01*
X003180Y005411D02*
X004821Y005411D01*
X004931Y005252D02*
X003180Y005252D01*
X003180Y005094D02*
X005134Y005094D01*
X004972Y004935D02*
X003180Y004935D01*
X003180Y004777D02*
X004909Y004777D01*
X004904Y004618D02*
X003180Y004618D01*
X003180Y004460D02*
X004954Y004460D01*
X005085Y004301D02*
X003180Y004301D01*
X003180Y004143D02*
X004966Y004143D01*
X004835Y003984D02*
X003180Y003984D01*
X003180Y003826D02*
X004769Y003826D01*
X004760Y003667D02*
X003180Y003667D01*
X003180Y003509D02*
X004780Y003509D01*
X004846Y003350D02*
X003180Y003350D01*
X003180Y003192D02*
X004992Y003192D01*
X004856Y003033D02*
X003180Y003033D01*
X003180Y002875D02*
X004789Y002875D01*
X004760Y002716D02*
X003180Y002716D01*
X003180Y002558D02*
X004760Y002558D01*
X004825Y002399D02*
X003180Y002399D01*
X003180Y002241D02*
X004943Y002241D01*
X004905Y002082D02*
X003180Y002082D01*
X003180Y001924D02*
X004810Y001924D01*
X004760Y001765D02*
X003180Y001765D01*
X003180Y001607D02*
X004760Y001607D01*
X004805Y001448D02*
X003180Y001448D01*
X003180Y001290D02*
X004894Y001290D01*
X005085Y001131D02*
X003180Y001131D01*
X003180Y000973D02*
X009711Y000973D01*
X009612Y001131D02*
X006275Y001131D01*
X006466Y001290D02*
X009560Y001290D01*
X009560Y001448D02*
X006555Y001448D01*
X006600Y001607D02*
X009560Y001607D01*
X009560Y001765D02*
X006600Y001765D01*
X006550Y001924D02*
X009560Y001924D01*
X009560Y002082D02*
X006455Y002082D01*
X006417Y002241D02*
X009617Y002241D01*
X009722Y002399D02*
X006535Y002399D01*
X006600Y002558D02*
X009954Y002558D01*
X010080Y002716D02*
X006600Y002716D01*
X006571Y002875D02*
X010111Y002875D01*
X010184Y003033D02*
X006504Y003033D01*
X006368Y003192D02*
X010347Y003192D01*
X011013Y003192D02*
X016320Y003192D01*
X016680Y003680D02*
X005680Y003680D01*
X010680Y002680D02*
X023180Y002680D01*
X022771Y002241D02*
X015743Y002241D01*
X015800Y002082D02*
X023056Y002082D01*
X023304Y002082D02*
X023530Y002082D01*
X023530Y001924D02*
X015800Y001924D01*
X015800Y001765D02*
X023530Y001765D01*
X023530Y001607D02*
X015800Y001607D01*
X015800Y001448D02*
X023530Y001448D01*
X023530Y001290D02*
X015800Y001290D01*
X015748Y001131D02*
X023530Y001131D01*
X023583Y000973D02*
X015649Y000973D01*
X015434Y000814D02*
X023730Y000814D01*
X023889Y000656D02*
X003180Y000656D01*
X003180Y000814D02*
X009926Y000814D01*
X010434Y000814D02*
X010926Y000814D01*
X010711Y000973D02*
X010649Y000973D01*
X011434Y000814D02*
X012926Y000814D01*
X012711Y000973D02*
X012436Y000973D01*
X012592Y001131D02*
X012612Y001131D01*
X012200Y001131D02*
X012160Y001131D01*
X012160Y000973D02*
X012200Y000973D01*
X011924Y000973D02*
X011649Y000973D01*
X011748Y001131D02*
X011768Y001131D01*
X012160Y001290D02*
X012200Y001290D01*
X012200Y001448D02*
X012160Y001448D01*
X012160Y001607D02*
X012200Y001607D01*
X013649Y000973D02*
X013711Y000973D01*
X013926Y000814D02*
X013434Y000814D01*
X014434Y000814D02*
X014926Y000814D01*
X014711Y000973D02*
X014649Y000973D01*
X017680Y003930D02*
X017930Y003680D01*
X023430Y003680D01*
X024680Y003680D02*
X026680Y003680D01*
X027280Y003667D02*
X032280Y003667D01*
X032280Y003509D02*
X027258Y003509D01*
X027193Y003350D02*
X032280Y003350D01*
X032280Y003192D02*
X030045Y003192D01*
X030204Y003033D02*
X032280Y003033D01*
X032280Y002875D02*
X030300Y002875D01*
X030300Y002716D02*
X031277Y002716D01*
X031005Y002558D02*
X030300Y002558D01*
X030276Y002399D02*
X030852Y002399D01*
X030786Y002241D02*
X030117Y002241D01*
X030155Y002082D02*
X030732Y002082D01*
X030732Y001924D02*
X030300Y001924D01*
X030300Y001765D02*
X030740Y001765D01*
X030806Y001607D02*
X030300Y001607D01*
X030300Y001448D02*
X030895Y001448D01*
X031053Y001290D02*
X030166Y001290D01*
X030008Y001131D02*
X048565Y001131D01*
X048724Y001290D02*
X032034Y001290D01*
X032193Y001448D02*
X033450Y001448D01*
X034470Y001448D02*
X035890Y001448D01*
X035750Y001607D02*
X034610Y001607D01*
X034635Y001765D02*
X035725Y001765D01*
X036910Y001448D02*
X037450Y001448D01*
X037188Y001607D02*
X037050Y001607D01*
X038470Y001448D02*
X039890Y001448D01*
X039750Y001607D02*
X038610Y001607D01*
X038635Y001765D02*
X039725Y001765D01*
X040910Y001448D02*
X041450Y001448D01*
X041194Y001607D02*
X041050Y001607D01*
X042470Y001448D02*
X043890Y001448D01*
X043750Y001607D02*
X042610Y001607D01*
X042635Y001765D02*
X043725Y001765D01*
X045410Y001950D02*
X045960Y001950D01*
X049580Y001290D02*
X053468Y001290D01*
X053468Y001448D02*
X052910Y001448D01*
X053050Y001607D02*
X053468Y001607D01*
X053468Y001765D02*
X053075Y001765D01*
X053075Y001924D02*
X053468Y001924D01*
X053468Y002082D02*
X053075Y002082D01*
X053072Y002241D02*
X053468Y002241D01*
X053468Y002399D02*
X052979Y002399D01*
X051725Y001765D02*
X050635Y001765D01*
X050610Y001607D02*
X051750Y001607D01*
X051890Y001448D02*
X050470Y001448D01*
X049580Y001131D02*
X053468Y001131D01*
X053468Y000973D02*
X049527Y000973D01*
X049380Y000814D02*
X053468Y000814D01*
X053468Y000656D02*
X049221Y000656D01*
X054180Y001180D02*
X055180Y001180D01*
X055180Y002180D01*
X049990Y003033D02*
X049930Y003033D01*
X049930Y003192D02*
X049990Y003192D01*
X032694Y001607D02*
X032282Y001607D01*
X032347Y001765D02*
X032529Y001765D01*
X032371Y001924D02*
X032356Y001924D01*
X032280Y002399D02*
X032236Y002399D01*
X032280Y002558D02*
X032082Y002558D01*
X032280Y002716D02*
X031811Y002716D01*
X029315Y003192D02*
X028045Y003192D01*
X028204Y003033D02*
X028354Y003033D01*
X028660Y003033D02*
X028700Y003033D01*
X028700Y002875D02*
X028660Y002875D01*
X028660Y002716D02*
X028700Y002716D01*
X029006Y003033D02*
X029156Y003033D01*
X027315Y003192D02*
X027045Y003192D01*
X031869Y003826D02*
X032280Y003826D01*
X032280Y003984D02*
X032050Y003984D01*
X032208Y004143D02*
X032280Y004143D01*
X013780Y006362D02*
X006519Y006362D01*
X006585Y006520D02*
X013780Y006520D01*
X013780Y006679D02*
X006600Y006679D01*
X006586Y006837D02*
X013780Y006837D01*
X013780Y006996D02*
X006520Y006996D01*
X006383Y007154D02*
X013780Y007154D01*
X013780Y007313D02*
X006489Y007313D01*
X006565Y007471D02*
X013780Y007471D01*
X013780Y007630D02*
X006600Y007630D01*
X006600Y007788D02*
X013780Y007788D01*
X013780Y007947D02*
X006541Y007947D01*
X006432Y008105D02*
X008500Y008105D01*
X008248Y008264D02*
X006440Y008264D01*
X006544Y008422D02*
X007372Y008422D01*
X007214Y008581D02*
X006600Y008581D01*
X006600Y008739D02*
X007055Y008739D01*
X006897Y008898D02*
X006561Y008898D01*
X006481Y009056D02*
X006738Y009056D01*
X006263Y009532D02*
X003180Y009532D01*
X003180Y009690D02*
X006104Y009690D01*
X005946Y009849D02*
X003180Y009849D01*
X003180Y010007D02*
X005787Y010007D01*
X005629Y010166D02*
X003180Y010166D01*
X003180Y010324D02*
X005470Y010324D01*
X005312Y010483D02*
X003180Y010483D01*
X003180Y010641D02*
X005153Y010641D01*
X004995Y010800D02*
X003180Y010800D01*
X003180Y010958D02*
X004839Y010958D01*
X004780Y011117D02*
X003180Y011117D01*
X003180Y011275D02*
X004780Y011275D01*
X004780Y011434D02*
X003180Y011434D01*
X003180Y011592D02*
X004780Y011592D01*
X004780Y011751D02*
X003180Y011751D01*
X003180Y011909D02*
X004780Y011909D01*
X004780Y012068D02*
X003180Y012068D01*
X003180Y012226D02*
X004780Y012226D01*
X004780Y012385D02*
X003180Y012385D01*
X003180Y012543D02*
X004780Y012543D01*
X004780Y012702D02*
X003180Y012702D01*
X003180Y012860D02*
X004663Y012860D01*
X004597Y013019D02*
X003180Y013019D01*
X003180Y013177D02*
X004580Y013177D01*
X004595Y013336D02*
X003180Y013336D01*
X003180Y013494D02*
X004661Y013494D01*
X004762Y013653D02*
X004286Y013653D01*
X004561Y013811D02*
X004619Y013811D01*
X007650Y014604D02*
X007944Y014604D01*
X009599Y011751D02*
X014435Y011751D01*
X013780Y009056D02*
X011471Y009056D01*
X011490Y008898D02*
X013780Y008898D01*
X009889Y008105D02*
X008860Y008105D01*
X009112Y008264D02*
X009754Y008264D01*
X001180Y002180D02*
X001180Y001180D01*
X002180Y001180D01*
M02*
