G75*
%MOIN*%
%OFA0B0*%
%FSLAX24Y24*%
%IPPOS*%
%LPD*%
%AMOC8*
5,1,8,0,0,1.08239X$1,22.5*
%
%ADD10C,0.0160*%
%ADD11C,0.0000*%
D10*
X000180Y000180D02*
X000180Y015805D01*
X056430Y015805D01*
X056430Y000180D01*
X000180Y000180D01*
D11*
X001524Y001948D02*
X001526Y001992D01*
X001532Y002036D01*
X001542Y002079D01*
X001555Y002121D01*
X001573Y002161D01*
X001594Y002200D01*
X001618Y002237D01*
X001645Y002272D01*
X001676Y002304D01*
X001709Y002333D01*
X001745Y002359D01*
X001783Y002381D01*
X001823Y002400D01*
X001864Y002416D01*
X001907Y002428D01*
X001950Y002436D01*
X001994Y002440D01*
X002038Y002440D01*
X002082Y002436D01*
X002125Y002428D01*
X002168Y002416D01*
X002209Y002400D01*
X002249Y002381D01*
X002287Y002359D01*
X002323Y002333D01*
X002356Y002304D01*
X002387Y002272D01*
X002414Y002237D01*
X002438Y002200D01*
X002459Y002161D01*
X002477Y002121D01*
X002490Y002079D01*
X002500Y002036D01*
X002506Y001992D01*
X002508Y001948D01*
X002506Y001904D01*
X002500Y001860D01*
X002490Y001817D01*
X002477Y001775D01*
X002459Y001735D01*
X002438Y001696D01*
X002414Y001659D01*
X002387Y001624D01*
X002356Y001592D01*
X002323Y001563D01*
X002287Y001537D01*
X002249Y001515D01*
X002209Y001496D01*
X002168Y001480D01*
X002125Y001468D01*
X002082Y001460D01*
X002038Y001456D01*
X001994Y001456D01*
X001950Y001460D01*
X001907Y001468D01*
X001864Y001480D01*
X001823Y001496D01*
X001783Y001515D01*
X001745Y001537D01*
X001709Y001563D01*
X001676Y001592D01*
X001645Y001624D01*
X001618Y001659D01*
X001594Y001696D01*
X001573Y001735D01*
X001555Y001775D01*
X001542Y001817D01*
X001532Y001860D01*
X001526Y001904D01*
X001524Y001948D01*
X001050Y004305D02*
X001052Y004355D01*
X001058Y004405D01*
X001068Y004454D01*
X001082Y004502D01*
X001099Y004549D01*
X001120Y004594D01*
X001145Y004638D01*
X001173Y004679D01*
X001205Y004718D01*
X001239Y004755D01*
X001276Y004789D01*
X001316Y004819D01*
X001358Y004846D01*
X001402Y004870D01*
X001448Y004891D01*
X001495Y004907D01*
X001543Y004920D01*
X001593Y004929D01*
X001642Y004934D01*
X001693Y004935D01*
X001743Y004932D01*
X001792Y004925D01*
X001841Y004914D01*
X001889Y004899D01*
X001935Y004881D01*
X001980Y004859D01*
X002023Y004833D01*
X002064Y004804D01*
X002103Y004772D01*
X002139Y004737D01*
X002171Y004699D01*
X002201Y004659D01*
X002228Y004616D01*
X002251Y004572D01*
X002270Y004526D01*
X002286Y004478D01*
X002298Y004429D01*
X002306Y004380D01*
X002310Y004330D01*
X002310Y004280D01*
X002306Y004230D01*
X002298Y004181D01*
X002286Y004132D01*
X002270Y004084D01*
X002251Y004038D01*
X002228Y003994D01*
X002201Y003951D01*
X002171Y003911D01*
X002139Y003873D01*
X002103Y003838D01*
X002064Y003806D01*
X002023Y003777D01*
X001980Y003751D01*
X001935Y003729D01*
X001889Y003711D01*
X001841Y003696D01*
X001792Y003685D01*
X001743Y003678D01*
X001693Y003675D01*
X001642Y003676D01*
X001593Y003681D01*
X001543Y003690D01*
X001495Y003703D01*
X001448Y003719D01*
X001402Y003740D01*
X001358Y003764D01*
X001316Y003791D01*
X001276Y003821D01*
X001239Y003855D01*
X001205Y003892D01*
X001173Y003931D01*
X001145Y003972D01*
X001120Y004016D01*
X001099Y004061D01*
X001082Y004108D01*
X001068Y004156D01*
X001058Y004205D01*
X001052Y004255D01*
X001050Y004305D01*
X001050Y011680D02*
X001052Y011730D01*
X001058Y011780D01*
X001068Y011829D01*
X001082Y011877D01*
X001099Y011924D01*
X001120Y011969D01*
X001145Y012013D01*
X001173Y012054D01*
X001205Y012093D01*
X001239Y012130D01*
X001276Y012164D01*
X001316Y012194D01*
X001358Y012221D01*
X001402Y012245D01*
X001448Y012266D01*
X001495Y012282D01*
X001543Y012295D01*
X001593Y012304D01*
X001642Y012309D01*
X001693Y012310D01*
X001743Y012307D01*
X001792Y012300D01*
X001841Y012289D01*
X001889Y012274D01*
X001935Y012256D01*
X001980Y012234D01*
X002023Y012208D01*
X002064Y012179D01*
X002103Y012147D01*
X002139Y012112D01*
X002171Y012074D01*
X002201Y012034D01*
X002228Y011991D01*
X002251Y011947D01*
X002270Y011901D01*
X002286Y011853D01*
X002298Y011804D01*
X002306Y011755D01*
X002310Y011705D01*
X002310Y011655D01*
X002306Y011605D01*
X002298Y011556D01*
X002286Y011507D01*
X002270Y011459D01*
X002251Y011413D01*
X002228Y011369D01*
X002201Y011326D01*
X002171Y011286D01*
X002139Y011248D01*
X002103Y011213D01*
X002064Y011181D01*
X002023Y011152D01*
X001980Y011126D01*
X001935Y011104D01*
X001889Y011086D01*
X001841Y011071D01*
X001792Y011060D01*
X001743Y011053D01*
X001693Y011050D01*
X001642Y011051D01*
X001593Y011056D01*
X001543Y011065D01*
X001495Y011078D01*
X001448Y011094D01*
X001402Y011115D01*
X001358Y011139D01*
X001316Y011166D01*
X001276Y011196D01*
X001239Y011230D01*
X001205Y011267D01*
X001173Y011306D01*
X001145Y011347D01*
X001120Y011391D01*
X001099Y011436D01*
X001082Y011483D01*
X001068Y011531D01*
X001058Y011580D01*
X001052Y011630D01*
X001050Y011680D01*
X001524Y014152D02*
X001526Y014196D01*
X001532Y014240D01*
X001542Y014283D01*
X001555Y014325D01*
X001573Y014365D01*
X001594Y014404D01*
X001618Y014441D01*
X001645Y014476D01*
X001676Y014508D01*
X001709Y014537D01*
X001745Y014563D01*
X001783Y014585D01*
X001823Y014604D01*
X001864Y014620D01*
X001907Y014632D01*
X001950Y014640D01*
X001994Y014644D01*
X002038Y014644D01*
X002082Y014640D01*
X002125Y014632D01*
X002168Y014620D01*
X002209Y014604D01*
X002249Y014585D01*
X002287Y014563D01*
X002323Y014537D01*
X002356Y014508D01*
X002387Y014476D01*
X002414Y014441D01*
X002438Y014404D01*
X002459Y014365D01*
X002477Y014325D01*
X002490Y014283D01*
X002500Y014240D01*
X002506Y014196D01*
X002508Y014152D01*
X002506Y014108D01*
X002500Y014064D01*
X002490Y014021D01*
X002477Y013979D01*
X002459Y013939D01*
X002438Y013900D01*
X002414Y013863D01*
X002387Y013828D01*
X002356Y013796D01*
X002323Y013767D01*
X002287Y013741D01*
X002249Y013719D01*
X002209Y013700D01*
X002168Y013684D01*
X002125Y013672D01*
X002082Y013664D01*
X002038Y013660D01*
X001994Y013660D01*
X001950Y013664D01*
X001907Y013672D01*
X001864Y013684D01*
X001823Y013700D01*
X001783Y013719D01*
X001745Y013741D01*
X001709Y013767D01*
X001676Y013796D01*
X001645Y013828D01*
X001618Y013863D01*
X001594Y013900D01*
X001573Y013939D01*
X001555Y013979D01*
X001542Y014021D01*
X001532Y014064D01*
X001526Y014108D01*
X001524Y014152D01*
X031052Y014152D02*
X031054Y014196D01*
X031060Y014240D01*
X031070Y014283D01*
X031083Y014325D01*
X031101Y014365D01*
X031122Y014404D01*
X031146Y014441D01*
X031173Y014476D01*
X031204Y014508D01*
X031237Y014537D01*
X031273Y014563D01*
X031311Y014585D01*
X031351Y014604D01*
X031392Y014620D01*
X031435Y014632D01*
X031478Y014640D01*
X031522Y014644D01*
X031566Y014644D01*
X031610Y014640D01*
X031653Y014632D01*
X031696Y014620D01*
X031737Y014604D01*
X031777Y014585D01*
X031815Y014563D01*
X031851Y014537D01*
X031884Y014508D01*
X031915Y014476D01*
X031942Y014441D01*
X031966Y014404D01*
X031987Y014365D01*
X032005Y014325D01*
X032018Y014283D01*
X032028Y014240D01*
X032034Y014196D01*
X032036Y014152D01*
X032034Y014108D01*
X032028Y014064D01*
X032018Y014021D01*
X032005Y013979D01*
X031987Y013939D01*
X031966Y013900D01*
X031942Y013863D01*
X031915Y013828D01*
X031884Y013796D01*
X031851Y013767D01*
X031815Y013741D01*
X031777Y013719D01*
X031737Y013700D01*
X031696Y013684D01*
X031653Y013672D01*
X031610Y013664D01*
X031566Y013660D01*
X031522Y013660D01*
X031478Y013664D01*
X031435Y013672D01*
X031392Y013684D01*
X031351Y013700D01*
X031311Y013719D01*
X031273Y013741D01*
X031237Y013767D01*
X031204Y013796D01*
X031173Y013828D01*
X031146Y013863D01*
X031122Y013900D01*
X031101Y013939D01*
X031083Y013979D01*
X031070Y014021D01*
X031060Y014064D01*
X031054Y014108D01*
X031052Y014152D01*
X054300Y011680D02*
X054302Y011730D01*
X054308Y011780D01*
X054318Y011829D01*
X054332Y011877D01*
X054349Y011924D01*
X054370Y011969D01*
X054395Y012013D01*
X054423Y012054D01*
X054455Y012093D01*
X054489Y012130D01*
X054526Y012164D01*
X054566Y012194D01*
X054608Y012221D01*
X054652Y012245D01*
X054698Y012266D01*
X054745Y012282D01*
X054793Y012295D01*
X054843Y012304D01*
X054892Y012309D01*
X054943Y012310D01*
X054993Y012307D01*
X055042Y012300D01*
X055091Y012289D01*
X055139Y012274D01*
X055185Y012256D01*
X055230Y012234D01*
X055273Y012208D01*
X055314Y012179D01*
X055353Y012147D01*
X055389Y012112D01*
X055421Y012074D01*
X055451Y012034D01*
X055478Y011991D01*
X055501Y011947D01*
X055520Y011901D01*
X055536Y011853D01*
X055548Y011804D01*
X055556Y011755D01*
X055560Y011705D01*
X055560Y011655D01*
X055556Y011605D01*
X055548Y011556D01*
X055536Y011507D01*
X055520Y011459D01*
X055501Y011413D01*
X055478Y011369D01*
X055451Y011326D01*
X055421Y011286D01*
X055389Y011248D01*
X055353Y011213D01*
X055314Y011181D01*
X055273Y011152D01*
X055230Y011126D01*
X055185Y011104D01*
X055139Y011086D01*
X055091Y011071D01*
X055042Y011060D01*
X054993Y011053D01*
X054943Y011050D01*
X054892Y011051D01*
X054843Y011056D01*
X054793Y011065D01*
X054745Y011078D01*
X054698Y011094D01*
X054652Y011115D01*
X054608Y011139D01*
X054566Y011166D01*
X054526Y011196D01*
X054489Y011230D01*
X054455Y011267D01*
X054423Y011306D01*
X054395Y011347D01*
X054370Y011391D01*
X054349Y011436D01*
X054332Y011483D01*
X054318Y011531D01*
X054308Y011580D01*
X054302Y011630D01*
X054300Y011680D01*
X054300Y004305D02*
X054302Y004355D01*
X054308Y004405D01*
X054318Y004454D01*
X054332Y004502D01*
X054349Y004549D01*
X054370Y004594D01*
X054395Y004638D01*
X054423Y004679D01*
X054455Y004718D01*
X054489Y004755D01*
X054526Y004789D01*
X054566Y004819D01*
X054608Y004846D01*
X054652Y004870D01*
X054698Y004891D01*
X054745Y004907D01*
X054793Y004920D01*
X054843Y004929D01*
X054892Y004934D01*
X054943Y004935D01*
X054993Y004932D01*
X055042Y004925D01*
X055091Y004914D01*
X055139Y004899D01*
X055185Y004881D01*
X055230Y004859D01*
X055273Y004833D01*
X055314Y004804D01*
X055353Y004772D01*
X055389Y004737D01*
X055421Y004699D01*
X055451Y004659D01*
X055478Y004616D01*
X055501Y004572D01*
X055520Y004526D01*
X055536Y004478D01*
X055548Y004429D01*
X055556Y004380D01*
X055560Y004330D01*
X055560Y004280D01*
X055556Y004230D01*
X055548Y004181D01*
X055536Y004132D01*
X055520Y004084D01*
X055501Y004038D01*
X055478Y003994D01*
X055451Y003951D01*
X055421Y003911D01*
X055389Y003873D01*
X055353Y003838D01*
X055314Y003806D01*
X055273Y003777D01*
X055230Y003751D01*
X055185Y003729D01*
X055139Y003711D01*
X055091Y003696D01*
X055042Y003685D01*
X054993Y003678D01*
X054943Y003675D01*
X054892Y003676D01*
X054843Y003681D01*
X054793Y003690D01*
X054745Y003703D01*
X054698Y003719D01*
X054652Y003740D01*
X054608Y003764D01*
X054566Y003791D01*
X054526Y003821D01*
X054489Y003855D01*
X054455Y003892D01*
X054423Y003931D01*
X054395Y003972D01*
X054370Y004016D01*
X054349Y004061D01*
X054332Y004108D01*
X054318Y004156D01*
X054308Y004205D01*
X054302Y004255D01*
X054300Y004305D01*
X031052Y001948D02*
X031054Y001992D01*
X031060Y002036D01*
X031070Y002079D01*
X031083Y002121D01*
X031101Y002161D01*
X031122Y002200D01*
X031146Y002237D01*
X031173Y002272D01*
X031204Y002304D01*
X031237Y002333D01*
X031273Y002359D01*
X031311Y002381D01*
X031351Y002400D01*
X031392Y002416D01*
X031435Y002428D01*
X031478Y002436D01*
X031522Y002440D01*
X031566Y002440D01*
X031610Y002436D01*
X031653Y002428D01*
X031696Y002416D01*
X031737Y002400D01*
X031777Y002381D01*
X031815Y002359D01*
X031851Y002333D01*
X031884Y002304D01*
X031915Y002272D01*
X031942Y002237D01*
X031966Y002200D01*
X031987Y002161D01*
X032005Y002121D01*
X032018Y002079D01*
X032028Y002036D01*
X032034Y001992D01*
X032036Y001948D01*
X032034Y001904D01*
X032028Y001860D01*
X032018Y001817D01*
X032005Y001775D01*
X031987Y001735D01*
X031966Y001696D01*
X031942Y001659D01*
X031915Y001624D01*
X031884Y001592D01*
X031851Y001563D01*
X031815Y001537D01*
X031777Y001515D01*
X031737Y001496D01*
X031696Y001480D01*
X031653Y001468D01*
X031610Y001460D01*
X031566Y001456D01*
X031522Y001456D01*
X031478Y001460D01*
X031435Y001468D01*
X031392Y001480D01*
X031351Y001496D01*
X031311Y001515D01*
X031273Y001537D01*
X031237Y001563D01*
X031204Y001592D01*
X031173Y001624D01*
X031146Y001659D01*
X031122Y001696D01*
X031101Y001735D01*
X031083Y001775D01*
X031070Y001817D01*
X031060Y001860D01*
X031054Y001904D01*
X031052Y001948D01*
M02*
