G75*
%MOIN*%
%OFA0B0*%
%FSLAX24Y24*%
%IPPOS*%
%LPD*%
%AMOC8*
5,1,8,0,0,1.08239X$1,22.5*
%
%ADD10C,0.0080*%
%ADD11C,0.0100*%
%ADD12C,0.0060*%
%ADD13C,0.0050*%
%ADD14C,0.0040*%
D10*
X034155Y002050D02*
X034155Y003310D01*
X034550Y003705D02*
X035810Y003705D01*
X036205Y003310D02*
X036205Y002050D01*
X035810Y001655D02*
X034550Y001655D01*
X034680Y002680D02*
X034682Y002724D01*
X034688Y002768D01*
X034698Y002811D01*
X034711Y002853D01*
X034728Y002894D01*
X034749Y002933D01*
X034773Y002970D01*
X034800Y003005D01*
X034830Y003037D01*
X034863Y003067D01*
X034899Y003093D01*
X034936Y003117D01*
X034976Y003136D01*
X035017Y003153D01*
X035060Y003165D01*
X035103Y003174D01*
X035147Y003179D01*
X035191Y003180D01*
X035235Y003177D01*
X035279Y003170D01*
X035322Y003159D01*
X035364Y003145D01*
X035404Y003127D01*
X035443Y003105D01*
X035479Y003081D01*
X035513Y003053D01*
X035545Y003022D01*
X035574Y002988D01*
X035600Y002952D01*
X035622Y002914D01*
X035641Y002874D01*
X035656Y002832D01*
X035668Y002790D01*
X035676Y002746D01*
X035680Y002702D01*
X035680Y002658D01*
X035676Y002614D01*
X035668Y002570D01*
X035656Y002528D01*
X035641Y002486D01*
X035622Y002446D01*
X035600Y002408D01*
X035574Y002372D01*
X035545Y002338D01*
X035513Y002307D01*
X035479Y002279D01*
X035443Y002255D01*
X035404Y002233D01*
X035364Y002215D01*
X035322Y002201D01*
X035279Y002190D01*
X035235Y002183D01*
X035191Y002180D01*
X035147Y002181D01*
X035103Y002186D01*
X035060Y002195D01*
X035017Y002207D01*
X034976Y002224D01*
X034936Y002243D01*
X034899Y002267D01*
X034863Y002293D01*
X034830Y002323D01*
X034800Y002355D01*
X034773Y002390D01*
X034749Y002427D01*
X034728Y002466D01*
X034711Y002507D01*
X034698Y002549D01*
X034688Y002592D01*
X034682Y002636D01*
X034680Y002680D01*
X038155Y002050D02*
X038155Y003310D01*
X038550Y003705D02*
X039810Y003705D01*
X040205Y003310D02*
X040205Y002050D01*
X039810Y001655D02*
X038550Y001655D01*
X038680Y002680D02*
X038682Y002724D01*
X038688Y002768D01*
X038698Y002811D01*
X038711Y002853D01*
X038728Y002894D01*
X038749Y002933D01*
X038773Y002970D01*
X038800Y003005D01*
X038830Y003037D01*
X038863Y003067D01*
X038899Y003093D01*
X038936Y003117D01*
X038976Y003136D01*
X039017Y003153D01*
X039060Y003165D01*
X039103Y003174D01*
X039147Y003179D01*
X039191Y003180D01*
X039235Y003177D01*
X039279Y003170D01*
X039322Y003159D01*
X039364Y003145D01*
X039404Y003127D01*
X039443Y003105D01*
X039479Y003081D01*
X039513Y003053D01*
X039545Y003022D01*
X039574Y002988D01*
X039600Y002952D01*
X039622Y002914D01*
X039641Y002874D01*
X039656Y002832D01*
X039668Y002790D01*
X039676Y002746D01*
X039680Y002702D01*
X039680Y002658D01*
X039676Y002614D01*
X039668Y002570D01*
X039656Y002528D01*
X039641Y002486D01*
X039622Y002446D01*
X039600Y002408D01*
X039574Y002372D01*
X039545Y002338D01*
X039513Y002307D01*
X039479Y002279D01*
X039443Y002255D01*
X039404Y002233D01*
X039364Y002215D01*
X039322Y002201D01*
X039279Y002190D01*
X039235Y002183D01*
X039191Y002180D01*
X039147Y002181D01*
X039103Y002186D01*
X039060Y002195D01*
X039017Y002207D01*
X038976Y002224D01*
X038936Y002243D01*
X038899Y002267D01*
X038863Y002293D01*
X038830Y002323D01*
X038800Y002355D01*
X038773Y002390D01*
X038749Y002427D01*
X038728Y002466D01*
X038711Y002507D01*
X038698Y002549D01*
X038688Y002592D01*
X038682Y002636D01*
X038680Y002680D01*
X042155Y002050D02*
X042155Y003310D01*
X042550Y003705D02*
X043810Y003705D01*
X044205Y003310D02*
X044205Y002050D01*
X043810Y001655D02*
X042550Y001655D01*
X042680Y002680D02*
X042682Y002724D01*
X042688Y002768D01*
X042698Y002811D01*
X042711Y002853D01*
X042728Y002894D01*
X042749Y002933D01*
X042773Y002970D01*
X042800Y003005D01*
X042830Y003037D01*
X042863Y003067D01*
X042899Y003093D01*
X042936Y003117D01*
X042976Y003136D01*
X043017Y003153D01*
X043060Y003165D01*
X043103Y003174D01*
X043147Y003179D01*
X043191Y003180D01*
X043235Y003177D01*
X043279Y003170D01*
X043322Y003159D01*
X043364Y003145D01*
X043404Y003127D01*
X043443Y003105D01*
X043479Y003081D01*
X043513Y003053D01*
X043545Y003022D01*
X043574Y002988D01*
X043600Y002952D01*
X043622Y002914D01*
X043641Y002874D01*
X043656Y002832D01*
X043668Y002790D01*
X043676Y002746D01*
X043680Y002702D01*
X043680Y002658D01*
X043676Y002614D01*
X043668Y002570D01*
X043656Y002528D01*
X043641Y002486D01*
X043622Y002446D01*
X043600Y002408D01*
X043574Y002372D01*
X043545Y002338D01*
X043513Y002307D01*
X043479Y002279D01*
X043443Y002255D01*
X043404Y002233D01*
X043364Y002215D01*
X043322Y002201D01*
X043279Y002190D01*
X043235Y002183D01*
X043191Y002180D01*
X043147Y002181D01*
X043103Y002186D01*
X043060Y002195D01*
X043017Y002207D01*
X042976Y002224D01*
X042936Y002243D01*
X042899Y002267D01*
X042863Y002293D01*
X042830Y002323D01*
X042800Y002355D01*
X042773Y002390D01*
X042749Y002427D01*
X042728Y002466D01*
X042711Y002507D01*
X042698Y002549D01*
X042688Y002592D01*
X042682Y002636D01*
X042680Y002680D01*
X046155Y002050D02*
X046155Y003310D01*
X046550Y003705D02*
X047810Y003705D01*
X048205Y003310D02*
X048205Y002050D01*
X047810Y001655D02*
X046550Y001655D01*
X046680Y002680D02*
X046682Y002724D01*
X046688Y002768D01*
X046698Y002811D01*
X046711Y002853D01*
X046728Y002894D01*
X046749Y002933D01*
X046773Y002970D01*
X046800Y003005D01*
X046830Y003037D01*
X046863Y003067D01*
X046899Y003093D01*
X046936Y003117D01*
X046976Y003136D01*
X047017Y003153D01*
X047060Y003165D01*
X047103Y003174D01*
X047147Y003179D01*
X047191Y003180D01*
X047235Y003177D01*
X047279Y003170D01*
X047322Y003159D01*
X047364Y003145D01*
X047404Y003127D01*
X047443Y003105D01*
X047479Y003081D01*
X047513Y003053D01*
X047545Y003022D01*
X047574Y002988D01*
X047600Y002952D01*
X047622Y002914D01*
X047641Y002874D01*
X047656Y002832D01*
X047668Y002790D01*
X047676Y002746D01*
X047680Y002702D01*
X047680Y002658D01*
X047676Y002614D01*
X047668Y002570D01*
X047656Y002528D01*
X047641Y002486D01*
X047622Y002446D01*
X047600Y002408D01*
X047574Y002372D01*
X047545Y002338D01*
X047513Y002307D01*
X047479Y002279D01*
X047443Y002255D01*
X047404Y002233D01*
X047364Y002215D01*
X047322Y002201D01*
X047279Y002190D01*
X047235Y002183D01*
X047191Y002180D01*
X047147Y002181D01*
X047103Y002186D01*
X047060Y002195D01*
X047017Y002207D01*
X046976Y002224D01*
X046936Y002243D01*
X046899Y002267D01*
X046863Y002293D01*
X046830Y002323D01*
X046800Y002355D01*
X046773Y002390D01*
X046749Y002427D01*
X046728Y002466D01*
X046711Y002507D01*
X046698Y002549D01*
X046688Y002592D01*
X046682Y002636D01*
X046680Y002680D01*
X050155Y002050D02*
X050155Y003310D01*
X050550Y003705D02*
X051810Y003705D01*
X052205Y003310D02*
X052205Y002050D01*
X051810Y001655D02*
X050550Y001655D01*
X050680Y002680D02*
X050682Y002724D01*
X050688Y002768D01*
X050698Y002811D01*
X050711Y002853D01*
X050728Y002894D01*
X050749Y002933D01*
X050773Y002970D01*
X050800Y003005D01*
X050830Y003037D01*
X050863Y003067D01*
X050899Y003093D01*
X050936Y003117D01*
X050976Y003136D01*
X051017Y003153D01*
X051060Y003165D01*
X051103Y003174D01*
X051147Y003179D01*
X051191Y003180D01*
X051235Y003177D01*
X051279Y003170D01*
X051322Y003159D01*
X051364Y003145D01*
X051404Y003127D01*
X051443Y003105D01*
X051479Y003081D01*
X051513Y003053D01*
X051545Y003022D01*
X051574Y002988D01*
X051600Y002952D01*
X051622Y002914D01*
X051641Y002874D01*
X051656Y002832D01*
X051668Y002790D01*
X051676Y002746D01*
X051680Y002702D01*
X051680Y002658D01*
X051676Y002614D01*
X051668Y002570D01*
X051656Y002528D01*
X051641Y002486D01*
X051622Y002446D01*
X051600Y002408D01*
X051574Y002372D01*
X051545Y002338D01*
X051513Y002307D01*
X051479Y002279D01*
X051443Y002255D01*
X051404Y002233D01*
X051364Y002215D01*
X051322Y002201D01*
X051279Y002190D01*
X051235Y002183D01*
X051191Y002180D01*
X051147Y002181D01*
X051103Y002186D01*
X051060Y002195D01*
X051017Y002207D01*
X050976Y002224D01*
X050936Y002243D01*
X050899Y002267D01*
X050863Y002293D01*
X050830Y002323D01*
X050800Y002355D01*
X050773Y002390D01*
X050749Y002427D01*
X050728Y002466D01*
X050711Y002507D01*
X050698Y002549D01*
X050688Y002592D01*
X050682Y002636D01*
X050680Y002680D01*
X039810Y005655D02*
X038550Y005655D01*
X038155Y006050D02*
X038155Y007310D01*
X038550Y007705D02*
X039810Y007705D01*
X040205Y007310D02*
X040205Y006050D01*
X038680Y006680D02*
X038682Y006724D01*
X038688Y006768D01*
X038698Y006811D01*
X038711Y006853D01*
X038728Y006894D01*
X038749Y006933D01*
X038773Y006970D01*
X038800Y007005D01*
X038830Y007037D01*
X038863Y007067D01*
X038899Y007093D01*
X038936Y007117D01*
X038976Y007136D01*
X039017Y007153D01*
X039060Y007165D01*
X039103Y007174D01*
X039147Y007179D01*
X039191Y007180D01*
X039235Y007177D01*
X039279Y007170D01*
X039322Y007159D01*
X039364Y007145D01*
X039404Y007127D01*
X039443Y007105D01*
X039479Y007081D01*
X039513Y007053D01*
X039545Y007022D01*
X039574Y006988D01*
X039600Y006952D01*
X039622Y006914D01*
X039641Y006874D01*
X039656Y006832D01*
X039668Y006790D01*
X039676Y006746D01*
X039680Y006702D01*
X039680Y006658D01*
X039676Y006614D01*
X039668Y006570D01*
X039656Y006528D01*
X039641Y006486D01*
X039622Y006446D01*
X039600Y006408D01*
X039574Y006372D01*
X039545Y006338D01*
X039513Y006307D01*
X039479Y006279D01*
X039443Y006255D01*
X039404Y006233D01*
X039364Y006215D01*
X039322Y006201D01*
X039279Y006190D01*
X039235Y006183D01*
X039191Y006180D01*
X039147Y006181D01*
X039103Y006186D01*
X039060Y006195D01*
X039017Y006207D01*
X038976Y006224D01*
X038936Y006243D01*
X038899Y006267D01*
X038863Y006293D01*
X038830Y006323D01*
X038800Y006355D01*
X038773Y006390D01*
X038749Y006427D01*
X038728Y006466D01*
X038711Y006507D01*
X038698Y006549D01*
X038688Y006592D01*
X038682Y006636D01*
X038680Y006680D01*
X036205Y007310D02*
X036205Y006050D01*
X035810Y005655D02*
X034550Y005655D01*
X034155Y006050D02*
X034155Y007310D01*
X034550Y007705D02*
X035810Y007705D01*
X034680Y006680D02*
X034682Y006724D01*
X034688Y006768D01*
X034698Y006811D01*
X034711Y006853D01*
X034728Y006894D01*
X034749Y006933D01*
X034773Y006970D01*
X034800Y007005D01*
X034830Y007037D01*
X034863Y007067D01*
X034899Y007093D01*
X034936Y007117D01*
X034976Y007136D01*
X035017Y007153D01*
X035060Y007165D01*
X035103Y007174D01*
X035147Y007179D01*
X035191Y007180D01*
X035235Y007177D01*
X035279Y007170D01*
X035322Y007159D01*
X035364Y007145D01*
X035404Y007127D01*
X035443Y007105D01*
X035479Y007081D01*
X035513Y007053D01*
X035545Y007022D01*
X035574Y006988D01*
X035600Y006952D01*
X035622Y006914D01*
X035641Y006874D01*
X035656Y006832D01*
X035668Y006790D01*
X035676Y006746D01*
X035680Y006702D01*
X035680Y006658D01*
X035676Y006614D01*
X035668Y006570D01*
X035656Y006528D01*
X035641Y006486D01*
X035622Y006446D01*
X035600Y006408D01*
X035574Y006372D01*
X035545Y006338D01*
X035513Y006307D01*
X035479Y006279D01*
X035443Y006255D01*
X035404Y006233D01*
X035364Y006215D01*
X035322Y006201D01*
X035279Y006190D01*
X035235Y006183D01*
X035191Y006180D01*
X035147Y006181D01*
X035103Y006186D01*
X035060Y006195D01*
X035017Y006207D01*
X034976Y006224D01*
X034936Y006243D01*
X034899Y006267D01*
X034863Y006293D01*
X034830Y006323D01*
X034800Y006355D01*
X034773Y006390D01*
X034749Y006427D01*
X034728Y006466D01*
X034711Y006507D01*
X034698Y006549D01*
X034688Y006592D01*
X034682Y006636D01*
X034680Y006680D01*
X042680Y011930D02*
X042680Y013430D01*
X045680Y013430D02*
X045680Y011930D01*
X048680Y011930D02*
X048680Y013430D01*
X049308Y014630D02*
X049308Y015110D01*
X049548Y015351D01*
X049788Y015110D01*
X049788Y014630D01*
X050045Y014750D02*
X050165Y014630D01*
X050405Y014630D01*
X050525Y014750D01*
X050045Y014750D02*
X050045Y015231D01*
X050165Y015351D01*
X050405Y015351D01*
X050525Y015231D01*
X050781Y015351D02*
X051262Y015351D01*
X051022Y015351D02*
X051022Y014630D01*
X051518Y014630D02*
X051758Y014630D01*
X051638Y014630D02*
X051638Y015351D01*
X051518Y015351D02*
X051758Y015351D01*
X052009Y015351D02*
X052009Y014870D01*
X052249Y014630D01*
X052489Y014870D01*
X052489Y015351D01*
X052746Y015351D02*
X052986Y015351D01*
X052866Y015351D02*
X052866Y014630D01*
X052746Y014630D02*
X052986Y014630D01*
X053477Y014630D02*
X053477Y015351D01*
X053237Y015351D02*
X053717Y015351D01*
X053973Y015351D02*
X053973Y015231D01*
X054214Y014990D01*
X054214Y014630D01*
X054214Y014990D02*
X054454Y015231D01*
X054454Y015351D01*
X049788Y014990D02*
X049308Y014990D01*
X045901Y014720D02*
X045421Y015441D01*
X045165Y015441D02*
X044684Y015441D01*
X044925Y015441D02*
X044925Y014720D01*
X045421Y014720D02*
X045901Y015441D01*
X043691Y015321D02*
X043691Y015080D01*
X043571Y014960D01*
X043211Y014960D01*
X043451Y014960D02*
X043691Y014720D01*
X043211Y014720D02*
X043211Y015441D01*
X043571Y015441D01*
X043691Y015321D01*
X042960Y015441D02*
X042720Y015441D01*
X042840Y015441D02*
X042840Y014720D01*
X042720Y014720D02*
X042960Y014720D01*
X039401Y014720D02*
X038921Y015441D01*
X038665Y015321D02*
X038545Y015441D01*
X038184Y015441D01*
X038184Y014720D01*
X038425Y014960D02*
X038665Y014720D01*
X038921Y014720D02*
X039401Y015441D01*
X038665Y015321D02*
X038665Y015080D01*
X038545Y014960D01*
X038184Y014960D01*
X037191Y015080D02*
X037191Y015321D01*
X037071Y015441D01*
X036711Y015441D01*
X036711Y014720D01*
X036460Y014720D02*
X036220Y014720D01*
X036340Y014720D02*
X036340Y015441D01*
X036220Y015441D02*
X036460Y015441D01*
X037071Y014960D02*
X037191Y015080D01*
X037071Y014960D02*
X036711Y014960D01*
X036951Y014960D02*
X037191Y014720D01*
X052680Y013430D02*
X052680Y011930D01*
D11*
X052637Y011876D01*
X052591Y011824D01*
X052542Y011775D01*
X052490Y011728D01*
X052436Y011685D01*
X052380Y011644D01*
X052321Y011607D01*
X052261Y011573D01*
X052198Y011543D01*
X052135Y011516D01*
X052069Y011492D01*
X052003Y011472D01*
X051935Y011456D01*
X051867Y011444D01*
X051798Y011436D01*
X051729Y011431D01*
X051659Y011430D01*
X051590Y011433D01*
X051521Y011440D01*
X051453Y011451D01*
X051385Y011465D01*
X051318Y011484D01*
X051252Y011506D01*
X051187Y011531D01*
X051124Y011560D01*
X051063Y011593D01*
X051004Y011629D01*
X050947Y011668D01*
X050891Y011710D01*
X050839Y011755D01*
X050789Y011803D01*
X050742Y011854D01*
X050697Y011908D01*
X050656Y011963D01*
X050618Y012021D01*
X050583Y012081D01*
X050551Y012143D01*
X050523Y012206D01*
X050499Y012271D01*
X050478Y012337D01*
X050461Y012405D01*
X050447Y012473D01*
X050438Y012542D01*
X050432Y012611D01*
X050430Y012680D01*
X050432Y012749D01*
X050438Y012818D01*
X050447Y012887D01*
X050461Y012955D01*
X050478Y013023D01*
X050499Y013089D01*
X050523Y013154D01*
X050551Y013217D01*
X050583Y013279D01*
X050618Y013339D01*
X050656Y013397D01*
X050697Y013452D01*
X050742Y013506D01*
X050789Y013557D01*
X050839Y013605D01*
X050891Y013650D01*
X050947Y013692D01*
X051004Y013731D01*
X051063Y013767D01*
X051124Y013800D01*
X051187Y013829D01*
X051252Y013854D01*
X051318Y013876D01*
X051385Y013895D01*
X051453Y013909D01*
X051521Y013920D01*
X051590Y013927D01*
X051659Y013930D01*
X051729Y013929D01*
X051798Y013924D01*
X051867Y013916D01*
X051935Y013904D01*
X052003Y013888D01*
X052069Y013868D01*
X052135Y013844D01*
X052198Y013817D01*
X052261Y013787D01*
X052321Y013753D01*
X052380Y013716D01*
X052436Y013675D01*
X052490Y013632D01*
X052542Y013585D01*
X052591Y013536D01*
X052637Y013484D01*
X052680Y013430D01*
X048680Y013430D02*
X048637Y013484D01*
X048591Y013536D01*
X048542Y013585D01*
X048490Y013632D01*
X048436Y013675D01*
X048380Y013716D01*
X048321Y013753D01*
X048261Y013787D01*
X048198Y013817D01*
X048135Y013844D01*
X048069Y013868D01*
X048003Y013888D01*
X047935Y013904D01*
X047867Y013916D01*
X047798Y013924D01*
X047729Y013929D01*
X047659Y013930D01*
X047590Y013927D01*
X047521Y013920D01*
X047453Y013909D01*
X047385Y013895D01*
X047318Y013876D01*
X047252Y013854D01*
X047187Y013829D01*
X047124Y013800D01*
X047063Y013767D01*
X047004Y013731D01*
X046947Y013692D01*
X046891Y013650D01*
X046839Y013605D01*
X046789Y013557D01*
X046742Y013506D01*
X046697Y013452D01*
X046656Y013397D01*
X046618Y013339D01*
X046583Y013279D01*
X046551Y013217D01*
X046523Y013154D01*
X046499Y013089D01*
X046478Y013023D01*
X046461Y012955D01*
X046447Y012887D01*
X046438Y012818D01*
X046432Y012749D01*
X046430Y012680D01*
X046432Y012611D01*
X046438Y012542D01*
X046447Y012473D01*
X046461Y012405D01*
X046478Y012337D01*
X046499Y012271D01*
X046523Y012206D01*
X046551Y012143D01*
X046583Y012081D01*
X046618Y012021D01*
X046656Y011963D01*
X046697Y011908D01*
X046742Y011854D01*
X046789Y011803D01*
X046839Y011755D01*
X046891Y011710D01*
X046947Y011668D01*
X047004Y011629D01*
X047063Y011593D01*
X047124Y011560D01*
X047187Y011531D01*
X047252Y011506D01*
X047318Y011484D01*
X047385Y011465D01*
X047453Y011451D01*
X047521Y011440D01*
X047590Y011433D01*
X047659Y011430D01*
X047729Y011431D01*
X047798Y011436D01*
X047867Y011444D01*
X047935Y011456D01*
X048003Y011472D01*
X048069Y011492D01*
X048135Y011516D01*
X048198Y011543D01*
X048261Y011573D01*
X048321Y011607D01*
X048380Y011644D01*
X048436Y011685D01*
X048490Y011728D01*
X048542Y011775D01*
X048591Y011824D01*
X048637Y011876D01*
X048680Y011930D01*
X045680Y011930D02*
X045637Y011876D01*
X045591Y011824D01*
X045542Y011775D01*
X045490Y011728D01*
X045436Y011685D01*
X045380Y011644D01*
X045321Y011607D01*
X045261Y011573D01*
X045198Y011543D01*
X045135Y011516D01*
X045069Y011492D01*
X045003Y011472D01*
X044935Y011456D01*
X044867Y011444D01*
X044798Y011436D01*
X044729Y011431D01*
X044659Y011430D01*
X044590Y011433D01*
X044521Y011440D01*
X044453Y011451D01*
X044385Y011465D01*
X044318Y011484D01*
X044252Y011506D01*
X044187Y011531D01*
X044124Y011560D01*
X044063Y011593D01*
X044004Y011629D01*
X043947Y011668D01*
X043891Y011710D01*
X043839Y011755D01*
X043789Y011803D01*
X043742Y011854D01*
X043697Y011908D01*
X043656Y011963D01*
X043618Y012021D01*
X043583Y012081D01*
X043551Y012143D01*
X043523Y012206D01*
X043499Y012271D01*
X043478Y012337D01*
X043461Y012405D01*
X043447Y012473D01*
X043438Y012542D01*
X043432Y012611D01*
X043430Y012680D01*
X043432Y012749D01*
X043438Y012818D01*
X043447Y012887D01*
X043461Y012955D01*
X043478Y013023D01*
X043499Y013089D01*
X043523Y013154D01*
X043551Y013217D01*
X043583Y013279D01*
X043618Y013339D01*
X043656Y013397D01*
X043697Y013452D01*
X043742Y013506D01*
X043789Y013557D01*
X043839Y013605D01*
X043891Y013650D01*
X043947Y013692D01*
X044004Y013731D01*
X044063Y013767D01*
X044124Y013800D01*
X044187Y013829D01*
X044252Y013854D01*
X044318Y013876D01*
X044385Y013895D01*
X044453Y013909D01*
X044521Y013920D01*
X044590Y013927D01*
X044659Y013930D01*
X044729Y013929D01*
X044798Y013924D01*
X044867Y013916D01*
X044935Y013904D01*
X045003Y013888D01*
X045069Y013868D01*
X045135Y013844D01*
X045198Y013817D01*
X045261Y013787D01*
X045321Y013753D01*
X045380Y013716D01*
X045436Y013675D01*
X045490Y013632D01*
X045542Y013585D01*
X045591Y013536D01*
X045637Y013484D01*
X045680Y013430D01*
X042680Y013430D02*
X042637Y013484D01*
X042591Y013536D01*
X042542Y013585D01*
X042490Y013632D01*
X042436Y013675D01*
X042380Y013716D01*
X042321Y013753D01*
X042261Y013787D01*
X042198Y013817D01*
X042135Y013844D01*
X042069Y013868D01*
X042003Y013888D01*
X041935Y013904D01*
X041867Y013916D01*
X041798Y013924D01*
X041729Y013929D01*
X041659Y013930D01*
X041590Y013927D01*
X041521Y013920D01*
X041453Y013909D01*
X041385Y013895D01*
X041318Y013876D01*
X041252Y013854D01*
X041187Y013829D01*
X041124Y013800D01*
X041063Y013767D01*
X041004Y013731D01*
X040947Y013692D01*
X040891Y013650D01*
X040839Y013605D01*
X040789Y013557D01*
X040742Y013506D01*
X040697Y013452D01*
X040656Y013397D01*
X040618Y013339D01*
X040583Y013279D01*
X040551Y013217D01*
X040523Y013154D01*
X040499Y013089D01*
X040478Y013023D01*
X040461Y012955D01*
X040447Y012887D01*
X040438Y012818D01*
X040432Y012749D01*
X040430Y012680D01*
X040432Y012611D01*
X040438Y012542D01*
X040447Y012473D01*
X040461Y012405D01*
X040478Y012337D01*
X040499Y012271D01*
X040523Y012206D01*
X040551Y012143D01*
X040583Y012081D01*
X040618Y012021D01*
X040656Y011963D01*
X040697Y011908D01*
X040742Y011854D01*
X040789Y011803D01*
X040839Y011755D01*
X040891Y011710D01*
X040947Y011668D01*
X041004Y011629D01*
X041063Y011593D01*
X041124Y011560D01*
X041187Y011531D01*
X041252Y011506D01*
X041318Y011484D01*
X041385Y011465D01*
X041453Y011451D01*
X041521Y011440D01*
X041590Y011433D01*
X041659Y011430D01*
X041729Y011431D01*
X041798Y011436D01*
X041867Y011444D01*
X041935Y011456D01*
X042003Y011472D01*
X042069Y011492D01*
X042135Y011516D01*
X042198Y011543D01*
X042261Y011573D01*
X042321Y011607D01*
X042380Y011644D01*
X042436Y011685D01*
X042490Y011728D01*
X042542Y011775D01*
X042591Y011824D01*
X042637Y011876D01*
X042680Y011930D01*
D12*
X042930Y012180D02*
X043430Y012180D01*
X043680Y012430D01*
X043680Y012930D01*
X043430Y013180D01*
X042930Y013180D01*
X042680Y012930D01*
X042680Y012430D01*
X042930Y012180D01*
X040680Y012680D02*
X040682Y012743D01*
X040688Y012805D01*
X040698Y012867D01*
X040711Y012929D01*
X040729Y012989D01*
X040750Y013048D01*
X040775Y013106D01*
X040804Y013162D01*
X040836Y013216D01*
X040871Y013268D01*
X040909Y013317D01*
X040951Y013365D01*
X040995Y013409D01*
X041043Y013451D01*
X041092Y013489D01*
X041144Y013524D01*
X041198Y013556D01*
X041254Y013585D01*
X041312Y013610D01*
X041371Y013631D01*
X041431Y013649D01*
X041493Y013662D01*
X041555Y013672D01*
X041617Y013678D01*
X041680Y013680D01*
X041743Y013678D01*
X041805Y013672D01*
X041867Y013662D01*
X041929Y013649D01*
X041989Y013631D01*
X042048Y013610D01*
X042106Y013585D01*
X042162Y013556D01*
X042216Y013524D01*
X042268Y013489D01*
X042317Y013451D01*
X042365Y013409D01*
X042409Y013365D01*
X042451Y013317D01*
X042489Y013268D01*
X042524Y013216D01*
X042556Y013162D01*
X042585Y013106D01*
X042610Y013048D01*
X042631Y012989D01*
X042649Y012929D01*
X042662Y012867D01*
X042672Y012805D01*
X042678Y012743D01*
X042680Y012680D01*
X042678Y012617D01*
X042672Y012555D01*
X042662Y012493D01*
X042649Y012431D01*
X042631Y012371D01*
X042610Y012312D01*
X042585Y012254D01*
X042556Y012198D01*
X042524Y012144D01*
X042489Y012092D01*
X042451Y012043D01*
X042409Y011995D01*
X042365Y011951D01*
X042317Y011909D01*
X042268Y011871D01*
X042216Y011836D01*
X042162Y011804D01*
X042106Y011775D01*
X042048Y011750D01*
X041989Y011729D01*
X041929Y011711D01*
X041867Y011698D01*
X041805Y011688D01*
X041743Y011682D01*
X041680Y011680D01*
X041617Y011682D01*
X041555Y011688D01*
X041493Y011698D01*
X041431Y011711D01*
X041371Y011729D01*
X041312Y011750D01*
X041254Y011775D01*
X041198Y011804D01*
X041144Y011836D01*
X041092Y011871D01*
X041043Y011909D01*
X040995Y011951D01*
X040951Y011995D01*
X040909Y012043D01*
X040871Y012092D01*
X040836Y012144D01*
X040804Y012198D01*
X040775Y012254D01*
X040750Y012312D01*
X040729Y012371D01*
X040711Y012431D01*
X040698Y012493D01*
X040688Y012555D01*
X040682Y012617D01*
X040680Y012680D01*
X043680Y012680D02*
X043682Y012743D01*
X043688Y012805D01*
X043698Y012867D01*
X043711Y012929D01*
X043729Y012989D01*
X043750Y013048D01*
X043775Y013106D01*
X043804Y013162D01*
X043836Y013216D01*
X043871Y013268D01*
X043909Y013317D01*
X043951Y013365D01*
X043995Y013409D01*
X044043Y013451D01*
X044092Y013489D01*
X044144Y013524D01*
X044198Y013556D01*
X044254Y013585D01*
X044312Y013610D01*
X044371Y013631D01*
X044431Y013649D01*
X044493Y013662D01*
X044555Y013672D01*
X044617Y013678D01*
X044680Y013680D01*
X044743Y013678D01*
X044805Y013672D01*
X044867Y013662D01*
X044929Y013649D01*
X044989Y013631D01*
X045048Y013610D01*
X045106Y013585D01*
X045162Y013556D01*
X045216Y013524D01*
X045268Y013489D01*
X045317Y013451D01*
X045365Y013409D01*
X045409Y013365D01*
X045451Y013317D01*
X045489Y013268D01*
X045524Y013216D01*
X045556Y013162D01*
X045585Y013106D01*
X045610Y013048D01*
X045631Y012989D01*
X045649Y012929D01*
X045662Y012867D01*
X045672Y012805D01*
X045678Y012743D01*
X045680Y012680D01*
X045678Y012617D01*
X045672Y012555D01*
X045662Y012493D01*
X045649Y012431D01*
X045631Y012371D01*
X045610Y012312D01*
X045585Y012254D01*
X045556Y012198D01*
X045524Y012144D01*
X045489Y012092D01*
X045451Y012043D01*
X045409Y011995D01*
X045365Y011951D01*
X045317Y011909D01*
X045268Y011871D01*
X045216Y011836D01*
X045162Y011804D01*
X045106Y011775D01*
X045048Y011750D01*
X044989Y011729D01*
X044929Y011711D01*
X044867Y011698D01*
X044805Y011688D01*
X044743Y011682D01*
X044680Y011680D01*
X044617Y011682D01*
X044555Y011688D01*
X044493Y011698D01*
X044431Y011711D01*
X044371Y011729D01*
X044312Y011750D01*
X044254Y011775D01*
X044198Y011804D01*
X044144Y011836D01*
X044092Y011871D01*
X044043Y011909D01*
X043995Y011951D01*
X043951Y011995D01*
X043909Y012043D01*
X043871Y012092D01*
X043836Y012144D01*
X043804Y012198D01*
X043775Y012254D01*
X043750Y012312D01*
X043729Y012371D01*
X043711Y012431D01*
X043698Y012493D01*
X043688Y012555D01*
X043682Y012617D01*
X043680Y012680D01*
X045680Y012430D02*
X045930Y012180D01*
X046430Y012180D01*
X046680Y012430D01*
X046680Y012930D01*
X046430Y013180D01*
X045930Y013180D01*
X045680Y012930D01*
X045680Y012430D01*
X046680Y012680D02*
X046682Y012743D01*
X046688Y012805D01*
X046698Y012867D01*
X046711Y012929D01*
X046729Y012989D01*
X046750Y013048D01*
X046775Y013106D01*
X046804Y013162D01*
X046836Y013216D01*
X046871Y013268D01*
X046909Y013317D01*
X046951Y013365D01*
X046995Y013409D01*
X047043Y013451D01*
X047092Y013489D01*
X047144Y013524D01*
X047198Y013556D01*
X047254Y013585D01*
X047312Y013610D01*
X047371Y013631D01*
X047431Y013649D01*
X047493Y013662D01*
X047555Y013672D01*
X047617Y013678D01*
X047680Y013680D01*
X047743Y013678D01*
X047805Y013672D01*
X047867Y013662D01*
X047929Y013649D01*
X047989Y013631D01*
X048048Y013610D01*
X048106Y013585D01*
X048162Y013556D01*
X048216Y013524D01*
X048268Y013489D01*
X048317Y013451D01*
X048365Y013409D01*
X048409Y013365D01*
X048451Y013317D01*
X048489Y013268D01*
X048524Y013216D01*
X048556Y013162D01*
X048585Y013106D01*
X048610Y013048D01*
X048631Y012989D01*
X048649Y012929D01*
X048662Y012867D01*
X048672Y012805D01*
X048678Y012743D01*
X048680Y012680D01*
X048678Y012617D01*
X048672Y012555D01*
X048662Y012493D01*
X048649Y012431D01*
X048631Y012371D01*
X048610Y012312D01*
X048585Y012254D01*
X048556Y012198D01*
X048524Y012144D01*
X048489Y012092D01*
X048451Y012043D01*
X048409Y011995D01*
X048365Y011951D01*
X048317Y011909D01*
X048268Y011871D01*
X048216Y011836D01*
X048162Y011804D01*
X048106Y011775D01*
X048048Y011750D01*
X047989Y011729D01*
X047929Y011711D01*
X047867Y011698D01*
X047805Y011688D01*
X047743Y011682D01*
X047680Y011680D01*
X047617Y011682D01*
X047555Y011688D01*
X047493Y011698D01*
X047431Y011711D01*
X047371Y011729D01*
X047312Y011750D01*
X047254Y011775D01*
X047198Y011804D01*
X047144Y011836D01*
X047092Y011871D01*
X047043Y011909D01*
X046995Y011951D01*
X046951Y011995D01*
X046909Y012043D01*
X046871Y012092D01*
X046836Y012144D01*
X046804Y012198D01*
X046775Y012254D01*
X046750Y012312D01*
X046729Y012371D01*
X046711Y012431D01*
X046698Y012493D01*
X046688Y012555D01*
X046682Y012617D01*
X046680Y012680D01*
X048680Y012430D02*
X048930Y012180D01*
X049430Y012180D01*
X049680Y012430D01*
X049930Y012180D01*
X050430Y012180D01*
X050680Y012430D01*
X050680Y012930D01*
X050430Y013180D01*
X049930Y013180D01*
X049680Y012930D01*
X049680Y012430D01*
X049680Y012930D01*
X049430Y013180D01*
X048930Y013180D01*
X048680Y012930D01*
X048680Y012430D01*
X050680Y012680D02*
X050682Y012743D01*
X050688Y012805D01*
X050698Y012867D01*
X050711Y012929D01*
X050729Y012989D01*
X050750Y013048D01*
X050775Y013106D01*
X050804Y013162D01*
X050836Y013216D01*
X050871Y013268D01*
X050909Y013317D01*
X050951Y013365D01*
X050995Y013409D01*
X051043Y013451D01*
X051092Y013489D01*
X051144Y013524D01*
X051198Y013556D01*
X051254Y013585D01*
X051312Y013610D01*
X051371Y013631D01*
X051431Y013649D01*
X051493Y013662D01*
X051555Y013672D01*
X051617Y013678D01*
X051680Y013680D01*
X051743Y013678D01*
X051805Y013672D01*
X051867Y013662D01*
X051929Y013649D01*
X051989Y013631D01*
X052048Y013610D01*
X052106Y013585D01*
X052162Y013556D01*
X052216Y013524D01*
X052268Y013489D01*
X052317Y013451D01*
X052365Y013409D01*
X052409Y013365D01*
X052451Y013317D01*
X052489Y013268D01*
X052524Y013216D01*
X052556Y013162D01*
X052585Y013106D01*
X052610Y013048D01*
X052631Y012989D01*
X052649Y012929D01*
X052662Y012867D01*
X052672Y012805D01*
X052678Y012743D01*
X052680Y012680D01*
X052678Y012617D01*
X052672Y012555D01*
X052662Y012493D01*
X052649Y012431D01*
X052631Y012371D01*
X052610Y012312D01*
X052585Y012254D01*
X052556Y012198D01*
X052524Y012144D01*
X052489Y012092D01*
X052451Y012043D01*
X052409Y011995D01*
X052365Y011951D01*
X052317Y011909D01*
X052268Y011871D01*
X052216Y011836D01*
X052162Y011804D01*
X052106Y011775D01*
X052048Y011750D01*
X051989Y011729D01*
X051929Y011711D01*
X051867Y011698D01*
X051805Y011688D01*
X051743Y011682D01*
X051680Y011680D01*
X051617Y011682D01*
X051555Y011688D01*
X051493Y011698D01*
X051431Y011711D01*
X051371Y011729D01*
X051312Y011750D01*
X051254Y011775D01*
X051198Y011804D01*
X051144Y011836D01*
X051092Y011871D01*
X051043Y011909D01*
X050995Y011951D01*
X050951Y011995D01*
X050909Y012043D01*
X050871Y012092D01*
X050836Y012144D01*
X050804Y012198D01*
X050775Y012254D01*
X050750Y012312D01*
X050729Y012371D01*
X050711Y012431D01*
X050698Y012493D01*
X050688Y012555D01*
X050682Y012617D01*
X050680Y012680D01*
D13*
X050435Y013425D02*
X050435Y013725D01*
X050435Y013575D02*
X049985Y013575D01*
X050135Y013425D01*
X049435Y013500D02*
X049435Y013650D01*
X049360Y013725D01*
X049060Y013725D01*
X048985Y013650D01*
X048985Y013500D01*
X049060Y013425D01*
X049135Y013425D01*
X049210Y013500D01*
X049210Y013725D01*
X049435Y013500D02*
X049360Y013425D01*
X049985Y013960D02*
X050060Y013885D01*
X050360Y013885D01*
X050060Y014186D01*
X050360Y014186D01*
X050435Y014111D01*
X050435Y013960D01*
X050360Y013885D01*
X049985Y013960D02*
X049985Y014111D01*
X050060Y014186D01*
X050955Y014365D02*
X050955Y013915D01*
X051255Y013915D01*
X051415Y013915D02*
X051716Y013915D01*
X051876Y013915D02*
X052101Y013915D01*
X052176Y013990D01*
X052176Y014290D01*
X052101Y014365D01*
X051876Y014365D01*
X051876Y013915D01*
X052336Y013915D02*
X052636Y013915D01*
X052486Y013915D02*
X052486Y014365D01*
X052336Y014215D01*
X051716Y014365D02*
X051415Y014365D01*
X051415Y013915D01*
X051415Y014140D02*
X051566Y014140D01*
X048636Y014215D02*
X048336Y013915D01*
X048636Y013915D01*
X048176Y013990D02*
X048176Y014290D01*
X048101Y014365D01*
X047876Y014365D01*
X047876Y013915D01*
X048101Y013915D01*
X048176Y013990D01*
X047716Y013915D02*
X047415Y013915D01*
X047415Y014365D01*
X047716Y014365D01*
X047566Y014140D02*
X047415Y014140D01*
X046955Y014365D02*
X046955Y013915D01*
X047255Y013915D01*
X046435Y013650D02*
X046360Y013725D01*
X046285Y013725D01*
X046210Y013650D01*
X046210Y013425D01*
X046360Y013425D01*
X046435Y013500D01*
X046435Y013650D01*
X046210Y013425D02*
X046060Y013575D01*
X045985Y013725D01*
X045636Y013990D02*
X045561Y013915D01*
X045411Y013915D01*
X045336Y013990D01*
X045176Y013990D02*
X045101Y013915D01*
X044876Y013915D01*
X044876Y014365D01*
X045101Y014365D01*
X045176Y014290D01*
X045176Y013990D01*
X045486Y014140D02*
X045561Y014140D01*
X045636Y014065D01*
X045636Y013990D01*
X045561Y014140D02*
X045636Y014215D01*
X045636Y014290D01*
X045561Y014365D01*
X045411Y014365D01*
X045336Y014290D01*
X044716Y014365D02*
X044415Y014365D01*
X044415Y013915D01*
X044716Y013915D01*
X044255Y013915D02*
X043955Y013915D01*
X043955Y014365D01*
X044415Y014140D02*
X044566Y014140D01*
X043435Y013650D02*
X043435Y013500D01*
X043360Y013425D01*
X043210Y013575D02*
X043210Y013650D01*
X043285Y013725D01*
X043360Y013725D01*
X043435Y013650D01*
X043210Y013650D02*
X043135Y013725D01*
X043060Y013725D01*
X042985Y013650D01*
X042985Y013500D01*
X043060Y013425D01*
X042561Y013915D02*
X042561Y014365D01*
X042336Y014140D01*
X042636Y014140D01*
X042176Y013990D02*
X042176Y014290D01*
X042101Y014365D01*
X041876Y014365D01*
X041876Y013915D01*
X042101Y013915D01*
X042176Y013990D01*
X041716Y013915D02*
X041415Y013915D01*
X041415Y014365D01*
X041716Y014365D01*
X041566Y014140D02*
X041415Y014140D01*
X040955Y014365D02*
X040955Y013915D01*
X041255Y013915D01*
X039728Y013330D02*
X039728Y013255D01*
X039653Y013180D01*
X039503Y013180D01*
X039428Y013255D01*
X039428Y013330D01*
X039503Y013405D01*
X039653Y013405D01*
X039728Y013330D01*
X039653Y013180D02*
X039728Y013105D01*
X039728Y013030D01*
X039653Y012955D01*
X039503Y012955D01*
X039428Y013030D01*
X039428Y013105D01*
X039503Y013180D01*
X039268Y013105D02*
X039193Y013180D01*
X039117Y013180D01*
X039193Y013180D02*
X039268Y013255D01*
X039268Y013330D01*
X039193Y013405D01*
X039042Y013405D01*
X038967Y013330D01*
X038807Y013330D02*
X038807Y013255D01*
X038732Y013180D01*
X038582Y013180D01*
X038507Y013255D01*
X038507Y013330D01*
X038582Y013405D01*
X038732Y013405D01*
X038807Y013330D01*
X038732Y013180D02*
X038807Y013105D01*
X038807Y013030D01*
X038732Y012955D01*
X038582Y012955D01*
X038507Y013030D01*
X038507Y013105D01*
X038582Y013180D01*
X038347Y013180D02*
X038047Y013180D01*
X038272Y013405D01*
X038272Y012955D01*
X037886Y013180D02*
X037811Y013105D01*
X037586Y013105D01*
X037586Y012955D02*
X037586Y013405D01*
X037811Y013405D01*
X037886Y013330D01*
X037886Y013180D01*
X037426Y013030D02*
X037426Y013330D01*
X037351Y013405D01*
X037201Y013405D01*
X037126Y013330D01*
X037126Y013030D01*
X037201Y012955D01*
X037351Y012955D01*
X037426Y013030D01*
X036966Y013030D02*
X036891Y012955D01*
X036740Y012955D01*
X036665Y013030D01*
X036740Y013180D02*
X036891Y013180D01*
X036966Y013105D01*
X036966Y013030D01*
X036740Y013180D02*
X036665Y013255D01*
X036665Y013330D01*
X036740Y013405D01*
X036891Y013405D01*
X036966Y013330D01*
X036505Y013405D02*
X036205Y013405D01*
X036355Y013405D02*
X036355Y012955D01*
X036695Y012457D02*
X038664Y012457D01*
X038861Y011670D01*
X038664Y010882D01*
X038467Y010882D01*
X036892Y010882D01*
X036695Y010882D01*
X036498Y011670D01*
X036695Y012457D01*
X038967Y013030D02*
X039042Y012955D01*
X039193Y012955D01*
X039268Y013030D01*
X039268Y013105D01*
X036966Y013955D02*
X036665Y013955D01*
X036816Y013955D02*
X036816Y014405D01*
X036665Y014255D01*
X036505Y014405D02*
X036505Y014030D01*
X036430Y013955D01*
X036280Y013955D01*
X036205Y014030D01*
X036205Y014405D01*
X042762Y011365D02*
X043062Y011365D01*
X042912Y011365D02*
X042912Y010915D01*
X043222Y010990D02*
X043297Y010915D01*
X043447Y010915D01*
X043523Y010990D01*
X043523Y011065D01*
X043447Y011140D01*
X043297Y011140D01*
X043222Y011215D01*
X043222Y011290D01*
X043297Y011365D01*
X043447Y011365D01*
X043523Y011290D01*
X043683Y011215D02*
X043833Y011365D01*
X043983Y011215D01*
X043983Y010915D01*
X044143Y010915D02*
X044443Y010915D01*
X044603Y011140D02*
X044904Y011140D01*
X045064Y010990D02*
X045064Y010915D01*
X045064Y010990D02*
X045364Y011290D01*
X045364Y011365D01*
X045064Y011365D01*
X044829Y011365D02*
X044603Y011140D01*
X044829Y010915D02*
X044829Y011365D01*
X045524Y011290D02*
X045599Y011365D01*
X045749Y011365D01*
X045824Y011290D01*
X045524Y010990D01*
X045599Y010915D01*
X045749Y010915D01*
X045824Y010990D01*
X045824Y011290D01*
X045985Y011290D02*
X046060Y011365D01*
X046210Y011365D01*
X046285Y011290D01*
X045985Y010990D01*
X046060Y010915D01*
X046210Y010915D01*
X046285Y010990D01*
X046285Y011290D01*
X045985Y011290D02*
X045985Y010990D01*
X045524Y010990D02*
X045524Y011290D01*
X044143Y011365D02*
X044143Y010915D01*
X043983Y011140D02*
X043683Y011140D01*
X043683Y011215D02*
X043683Y010915D01*
X038467Y010882D02*
X038446Y010829D01*
X038421Y010779D01*
X038392Y010730D01*
X038360Y010683D01*
X038326Y010638D01*
X038288Y010596D01*
X038247Y010556D01*
X038204Y010520D01*
X038159Y010486D01*
X038111Y010455D01*
X038062Y010428D01*
X038011Y010404D01*
X037958Y010383D01*
X037904Y010366D01*
X037849Y010353D01*
X037793Y010344D01*
X037737Y010338D01*
X037680Y010336D01*
X037623Y010338D01*
X037567Y010344D01*
X037511Y010353D01*
X037456Y010366D01*
X037402Y010383D01*
X037349Y010404D01*
X037298Y010428D01*
X037249Y010455D01*
X037201Y010486D01*
X037156Y010520D01*
X037113Y010556D01*
X037072Y010596D01*
X037034Y010638D01*
X037000Y010683D01*
X036968Y010730D01*
X036939Y010779D01*
X036914Y010829D01*
X036893Y010882D01*
X035541Y008605D02*
X035616Y008530D01*
X035616Y008380D01*
X035541Y008305D01*
X035315Y008305D01*
X035315Y008155D02*
X035315Y008605D01*
X035541Y008605D01*
X035155Y008605D02*
X035155Y008230D01*
X035080Y008155D01*
X034930Y008155D01*
X034855Y008230D01*
X034855Y008605D01*
X038855Y008605D02*
X039155Y008605D01*
X039005Y008605D02*
X039005Y008155D01*
X039315Y008155D02*
X039616Y008155D01*
X039776Y008155D02*
X039776Y008455D01*
X039926Y008605D01*
X040076Y008455D01*
X040076Y008155D01*
X040236Y008230D02*
X040311Y008155D01*
X040461Y008155D01*
X040536Y008230D01*
X040697Y008155D02*
X040697Y008605D01*
X040536Y008530D02*
X040461Y008605D01*
X040311Y008605D01*
X040236Y008530D01*
X040236Y008230D01*
X040076Y008380D02*
X039776Y008380D01*
X039616Y008605D02*
X039315Y008605D01*
X039315Y008155D01*
X039315Y008380D02*
X039466Y008380D01*
X040697Y008380D02*
X040997Y008380D01*
X040997Y008605D02*
X040997Y008155D01*
X039616Y005355D02*
X039616Y005280D01*
X039315Y004980D01*
X039315Y004905D01*
X039155Y004980D02*
X039080Y004905D01*
X038930Y004905D01*
X038855Y004980D01*
X038930Y005130D02*
X039080Y005130D01*
X039155Y005055D01*
X039155Y004980D01*
X038930Y005130D02*
X038855Y005205D01*
X038855Y005280D01*
X038930Y005355D01*
X039080Y005355D01*
X039155Y005280D01*
X039315Y005355D02*
X039616Y005355D01*
X039616Y004605D02*
X039315Y004305D01*
X039390Y004380D02*
X039616Y004155D01*
X039315Y004155D02*
X039315Y004605D01*
X039155Y004530D02*
X039080Y004605D01*
X038930Y004605D01*
X038855Y004530D01*
X038855Y004230D01*
X038930Y004155D01*
X039080Y004155D01*
X039155Y004230D01*
X039155Y004530D01*
X036536Y004605D02*
X036536Y004155D01*
X036236Y004605D01*
X036236Y004155D01*
X036076Y004155D02*
X035926Y004305D01*
X035776Y004155D01*
X035776Y004605D01*
X035616Y004530D02*
X035541Y004605D01*
X035390Y004605D01*
X035315Y004530D01*
X035315Y004230D01*
X035390Y004155D01*
X035541Y004155D01*
X035616Y004230D01*
X035616Y004530D01*
X035155Y004530D02*
X035080Y004605D01*
X034855Y004605D01*
X034855Y004155D01*
X035080Y004155D01*
X035155Y004230D01*
X035155Y004530D01*
X036076Y004605D02*
X036076Y004155D01*
X035616Y004905D02*
X035315Y004905D01*
X035616Y005205D01*
X035616Y005280D01*
X035541Y005355D01*
X035390Y005355D01*
X035315Y005280D01*
X035155Y005280D02*
X035080Y005355D01*
X034930Y005355D01*
X034855Y005280D01*
X034855Y005205D01*
X034930Y005130D01*
X035080Y005130D01*
X035155Y005055D01*
X035155Y004980D01*
X035080Y004905D01*
X034930Y004905D01*
X034855Y004980D01*
X042855Y004530D02*
X042855Y004230D01*
X042930Y004155D01*
X043080Y004155D01*
X043155Y004230D01*
X043466Y004155D02*
X043466Y004605D01*
X043616Y004605D02*
X043315Y004605D01*
X043155Y004530D02*
X043080Y004605D01*
X042930Y004605D01*
X042855Y004530D01*
X043776Y004605D02*
X043776Y004155D01*
X044076Y004155D01*
X046855Y004155D02*
X046855Y004455D01*
X047005Y004605D01*
X047155Y004455D01*
X047155Y004155D01*
X047315Y004155D02*
X047616Y004155D01*
X047315Y004155D02*
X047315Y004605D01*
X047155Y004380D02*
X046855Y004380D01*
X047776Y004605D02*
X048076Y004605D01*
X047926Y004605D02*
X047926Y004155D01*
X050855Y004230D02*
X050930Y004155D01*
X051080Y004155D01*
X051155Y004230D01*
X051155Y004305D01*
X051080Y004380D01*
X050930Y004380D01*
X050855Y004455D01*
X050855Y004530D01*
X050930Y004605D01*
X051080Y004605D01*
X051155Y004530D01*
X051315Y004605D02*
X051315Y004155D01*
X051616Y004155D02*
X051616Y004605D01*
X051776Y004605D02*
X051926Y004605D01*
X051851Y004605D02*
X051851Y004155D01*
X051776Y004155D02*
X051926Y004155D01*
X052083Y004155D02*
X052083Y004605D01*
X052383Y004605D01*
X052543Y004605D02*
X052843Y004605D01*
X052693Y004605D02*
X052693Y004155D01*
X052233Y004380D02*
X052083Y004380D01*
X051616Y004380D02*
X051315Y004380D01*
X051541Y001355D02*
X051315Y001130D01*
X051616Y001130D01*
X051541Y000905D02*
X051541Y001355D01*
X051155Y001280D02*
X051080Y001355D01*
X050930Y001355D01*
X050855Y001280D01*
X050855Y001205D01*
X050930Y001130D01*
X051080Y001130D01*
X051155Y001055D01*
X051155Y000980D01*
X051080Y000905D01*
X050930Y000905D01*
X050855Y000980D01*
X047616Y000980D02*
X047541Y000905D01*
X047390Y000905D01*
X047315Y000980D01*
X047315Y001130D02*
X047466Y001205D01*
X047541Y001205D01*
X047616Y001130D01*
X047616Y000980D01*
X047315Y001130D02*
X047315Y001355D01*
X047616Y001355D01*
X047155Y001280D02*
X047080Y001355D01*
X046930Y001355D01*
X046855Y001280D01*
X046855Y001205D01*
X046930Y001130D01*
X047080Y001130D01*
X047155Y001055D01*
X047155Y000980D01*
X047080Y000905D01*
X046930Y000905D01*
X046855Y000980D01*
X043616Y000980D02*
X043616Y001055D01*
X043541Y001130D01*
X043315Y001130D01*
X043315Y000980D01*
X043390Y000905D01*
X043541Y000905D01*
X043616Y000980D01*
X043466Y001280D02*
X043315Y001130D01*
X043155Y001055D02*
X043080Y001130D01*
X042930Y001130D01*
X042855Y001205D01*
X042855Y001280D01*
X042930Y001355D01*
X043080Y001355D01*
X043155Y001280D01*
X043155Y001055D02*
X043155Y000980D01*
X043080Y000905D01*
X042930Y000905D01*
X042855Y000980D01*
X043466Y001280D02*
X043616Y001355D01*
X039616Y001280D02*
X039616Y001205D01*
X039541Y001130D01*
X039616Y001055D01*
X039616Y000980D01*
X039541Y000905D01*
X039390Y000905D01*
X039315Y000980D01*
X039155Y000980D02*
X039080Y000905D01*
X038930Y000905D01*
X038855Y000980D01*
X038930Y001130D02*
X039080Y001130D01*
X039155Y001055D01*
X039155Y000980D01*
X038930Y001130D02*
X038855Y001205D01*
X038855Y001280D01*
X038930Y001355D01*
X039080Y001355D01*
X039155Y001280D01*
X039315Y001280D02*
X039390Y001355D01*
X039541Y001355D01*
X039616Y001280D01*
X039541Y001130D02*
X039466Y001130D01*
X035616Y000905D02*
X035315Y000905D01*
X035466Y000905D02*
X035466Y001355D01*
X035315Y001205D01*
X035155Y001280D02*
X035080Y001355D01*
X034930Y001355D01*
X034855Y001280D01*
X034855Y001205D01*
X034930Y001130D01*
X035080Y001130D01*
X035155Y001055D01*
X035155Y000980D01*
X035080Y000905D01*
X034930Y000905D01*
X034855Y000980D01*
X021545Y009780D02*
X021470Y009705D01*
X021320Y009705D01*
X021245Y009780D01*
X021245Y009930D02*
X021395Y010005D01*
X021470Y010005D01*
X021545Y009930D01*
X021545Y009780D01*
X021245Y009930D02*
X021245Y010155D01*
X021545Y010155D01*
X021084Y010080D02*
X021009Y010155D01*
X020859Y010155D01*
X020784Y010080D01*
X020784Y009780D01*
X020859Y009705D01*
X021009Y009705D01*
X021084Y009780D01*
X048336Y014290D02*
X048411Y014365D01*
X048561Y014365D01*
X048636Y014290D01*
X048636Y014215D01*
D14*
X010507Y007700D02*
X010200Y007700D01*
X010353Y007700D02*
X010353Y008160D01*
X010200Y008007D01*
X010660Y008084D02*
X010660Y007777D01*
X010967Y008084D01*
X010967Y007777D01*
X010891Y007700D01*
X010737Y007700D01*
X010660Y007777D01*
X011121Y007777D02*
X011428Y008084D01*
X011428Y007777D01*
X011351Y007700D01*
X011198Y007700D01*
X011121Y007777D01*
X011121Y008084D01*
X011198Y008160D01*
X011351Y008160D01*
X011428Y008084D01*
X011581Y008007D02*
X011811Y008007D01*
X011888Y007930D01*
X011888Y007700D01*
X012042Y007700D02*
X012042Y008160D01*
X012348Y008160D01*
X012195Y007930D02*
X012042Y007930D01*
X011581Y008007D02*
X011581Y007700D01*
X010967Y008084D02*
X010891Y008160D01*
X010737Y008160D01*
X010660Y008084D01*
X010737Y009200D02*
X010891Y009200D01*
X010967Y009277D01*
X010967Y009353D01*
X010891Y009430D01*
X010660Y009430D01*
X010660Y009277D01*
X010737Y009200D01*
X010507Y009277D02*
X010430Y009200D01*
X010277Y009200D01*
X010200Y009277D01*
X010200Y009584D01*
X010277Y009660D01*
X010430Y009660D01*
X010507Y009584D01*
X010660Y009430D02*
X010814Y009584D01*
X010967Y009660D01*
X020398Y008507D02*
X020551Y008660D01*
X020551Y008200D01*
X020398Y008200D02*
X020705Y008200D01*
X020858Y008277D02*
X021165Y008584D01*
X021165Y008277D01*
X021089Y008200D01*
X020935Y008200D01*
X020858Y008277D01*
X020858Y008584D01*
X020935Y008660D01*
X021089Y008660D01*
X021165Y008584D01*
X021319Y008584D02*
X021396Y008660D01*
X021549Y008660D01*
X021626Y008584D01*
X021319Y008277D01*
X021396Y008200D01*
X021549Y008200D01*
X021626Y008277D01*
X021626Y008584D01*
X021779Y008507D02*
X022009Y008507D01*
X022086Y008430D01*
X022086Y008200D01*
X022240Y008200D02*
X022240Y008660D01*
X022547Y008660D01*
X022393Y008430D02*
X022240Y008430D01*
X021779Y008507D02*
X021779Y008200D01*
X021319Y008277D02*
X021319Y008584D01*
X021201Y013320D02*
X021201Y013780D01*
X020971Y013550D01*
X021278Y013550D01*
X021431Y013550D02*
X021738Y013550D01*
X021892Y013397D02*
X021892Y013320D01*
X021892Y013397D02*
X022198Y013704D01*
X022198Y013780D01*
X021892Y013780D01*
X021661Y013780D02*
X021431Y013550D01*
X021661Y013320D02*
X021661Y013780D01*
X022352Y013704D02*
X022352Y013627D01*
X022429Y013550D01*
X022582Y013550D01*
X022659Y013473D01*
X022659Y013397D01*
X022582Y013320D01*
X022429Y013320D01*
X022352Y013397D01*
X022352Y013473D01*
X022429Y013550D01*
X022582Y013550D02*
X022659Y013627D01*
X022659Y013704D01*
X022582Y013780D01*
X022429Y013780D01*
X022352Y013704D01*
X022812Y013704D02*
X022889Y013780D01*
X023043Y013780D01*
X023119Y013704D01*
X022812Y013397D01*
X022889Y013320D01*
X023043Y013320D01*
X023119Y013397D01*
X023119Y013704D01*
X022812Y013704D02*
X022812Y013397D01*
X021738Y014070D02*
X021431Y014070D01*
X021585Y014070D02*
X021585Y014530D01*
X021431Y014377D01*
X021278Y014454D02*
X021278Y014147D01*
X021201Y014070D01*
X020971Y014070D01*
X020971Y014530D01*
X021201Y014530D01*
X021278Y014454D01*
X020817Y014454D02*
X020741Y014530D01*
X020587Y014530D01*
X020510Y014454D01*
X020510Y014147D01*
X020587Y014070D01*
X020741Y014070D01*
X020817Y014147D01*
X020357Y014070D02*
X020050Y014070D01*
X020050Y014530D01*
X020050Y013780D02*
X020050Y013320D01*
X020050Y013550D02*
X020357Y013550D01*
X020357Y013780D02*
X020357Y013320D01*
X020510Y013320D02*
X020741Y013320D01*
X020817Y013397D01*
X020817Y013704D01*
X020741Y013780D01*
X020510Y013780D01*
X020510Y013320D01*
M02*
